<svg width="63" height="63" viewBox="0 0 63 63" fill="none" xmlns="http://www.w3.org/2000/svg">
<path d="M60.7012 30.9996C60.7012 29.5855 62.1774 28.088 61.9822 26.7332C61.7742 25.3425 59.9323 24.3081 59.5298 22.9891C59.1273 21.646 60.1035 19.8032 59.5178 18.5434C58.9201 17.272 56.8453 16.784 56.0772 15.6194C55.2962 14.4431 55.7107 12.41 54.7713 11.3522C53.832 10.3069 51.7092 10.4012 50.6234 9.49849C49.5496 8.58331 49.3544 6.51521 48.147 5.76607C46.9515 5.01694 44.9384 5.69436 43.6326 5.11205C42.3395 4.54143 41.5586 2.60428 40.1799 2.21218C38.8261 1.82007 37.0938 3.03225 35.6663 2.83035C34.2629 2.64014 32.9459 1 31.4936 1C30.0421 1 28.7243 2.64014 27.3337 2.83035C25.9062 3.03225 24.1739 1.82007 22.8193 2.21218C21.4406 2.60428 20.6477 4.54143 19.3666 5.11205C18.0616 5.69436 16.0485 5.00525 14.8522 5.76607C13.6448 6.5269 13.4496 8.59501 12.3758 9.49849C11.302 10.4137 9.16724 10.3069 8.22787 11.3522C7.2885 12.3984 7.70298 14.4431 6.92284 15.6194C6.1539 16.784 4.07993 17.272 3.48223 18.5434C2.89652 19.8032 3.8727 21.646 3.46942 22.9891C3.06695 24.3081 1.21302 25.3425 1.01779 26.7332C0.822553 28.088 2.29882 29.5855 2.29882 30.9996C2.29882 32.4145 0.822553 33.912 1.01779 35.2668C1.22502 36.6575 3.06695 37.6919 3.46942 39.0109C3.8727 40.354 2.89652 42.1968 3.48223 43.4566C4.07993 44.728 6.1539 45.216 6.92284 46.3806C7.70298 47.5569 7.2885 49.59 8.22787 50.6478C9.16724 51.6931 11.29 51.598 12.3758 52.5015C13.4496 53.4167 13.6448 55.4848 14.8522 56.2339C16.0485 56.9831 18.0616 56.3056 19.3666 56.888C20.6597 57.4586 21.4406 59.3957 22.8193 59.7878C24.1739 60.1799 25.9062 58.9678 27.3337 59.1697C28.7243 59.3599 30.0421 61 31.4936 61C32.9459 61 34.2629 59.3599 35.6535 59.1697C37.081 58.9678 38.8141 60.1799 40.1679 59.7878C41.5466 59.3957 42.3395 57.4586 43.6206 56.888C44.9264 56.3056 46.9387 56.9948 48.135 56.2339C49.3424 55.4731 49.5376 53.405 50.6114 52.5015C51.6852 51.5863 53.82 51.6931 54.7593 50.6478C55.6987 49.6016 55.2842 47.5569 56.0652 46.3806C56.8333 45.216 58.9073 44.728 59.505 43.4566C60.0907 42.1968 59.1153 40.354 59.5178 39.0109C59.9202 37.6919 61.7622 36.6575 61.9694 35.2668C62.1774 33.912 60.7012 32.4145 60.7012 30.9996Z" fill="#4D6D4B"/>
<mask id="mask0_124_112" style="mask-type:luminance" maskUnits="userSpaceOnUse" x="0" y="0" width="63" height="63">
<path d="M0 0H63V62.296H0V0Z" fill="white"/>
</mask>
<g mask="url(#mask0_124_112)">
<path d="M31.4992 62.2771C30.4483 62.2771 29.5433 61.7021 28.7489 61.1867C28.187 60.8277 27.6491 60.4805 27.209 60.42C26.7329 60.3603 26.1092 60.5402 25.4495 60.7318C24.5445 60.995 23.5304 61.3069 22.5525 61.0194C21.5505 60.7318 20.8531 59.9289 20.2422 59.2227C19.8021 58.7191 19.3869 58.2399 18.9709 58.0482C18.5436 57.8573 17.8959 57.8573 17.2113 57.8691C16.2703 57.8809 15.1945 57.8809 14.3392 57.3301C13.471 56.7786 13.031 55.8202 12.6398 54.9702C12.3584 54.359 12.1019 53.7839 11.7476 53.4846C11.3933 53.1852 10.7696 53.0171 10.1219 52.8262C9.21771 52.574 8.17883 52.2865 7.50628 51.5205C6.83453 50.7538 6.68784 49.7113 6.55316 48.8007C6.45537 48.1424 6.3696 47.5076 6.12511 47.1242C5.88062 46.7409 5.33071 46.4054 4.75596 46.0582C3.94954 45.5672 3.04533 45.0039 2.61727 44.0698C2.18921 43.1592 2.34873 42.1167 2.49542 41.2062C2.59322 40.5361 2.69102 39.9131 2.55635 39.47C2.4337 39.0387 2.00644 38.5713 1.55434 38.0685C0.930684 37.3732 0.209237 36.5711 0.0625426 35.5647C-0.0841517 34.5827 0.368757 33.636 0.75914 32.7978C1.05253 32.1866 1.33389 31.5997 1.33389 31.1323C1.33389 30.6656 1.05253 30.078 0.75914 29.4676C0.368757 28.6411 -0.0841517 27.6944 0.0625426 26.7006C0.209237 25.6825 0.91866 24.8914 1.55434 24.1969C2.00644 23.6941 2.42168 23.2267 2.55635 22.8071C2.69102 22.3641 2.59322 21.7293 2.49542 21.0702C2.34873 20.1596 2.18921 19.1297 2.61727 18.2074C3.04533 17.2851 3.96157 16.7218 4.75596 16.219C5.33071 15.86 5.88062 15.5245 6.12511 15.1529C6.38162 14.7695 6.46739 14.1348 6.55316 13.4756C6.67501 12.5659 6.8217 11.5234 7.50628 10.7566C8.17883 9.98986 9.21771 9.70233 10.1219 9.45093C10.7816 9.27102 11.4053 9.0919 11.7476 8.79259C12.1019 8.49248 12.3584 7.91741 12.6398 7.30699C13.031 6.45617 13.459 5.49772 14.3392 4.94701C15.2065 4.39629 16.2703 4.40808 17.2113 4.40808C17.8959 4.40808 18.5436 4.41986 18.9709 4.22817C19.3869 4.03648 19.8021 3.55726 20.2422 3.05447C20.8531 2.34741 21.5505 1.5453 22.5525 1.25777C23.5304 0.970233 24.5565 1.28134 25.4495 1.5453C26.1092 1.73699 26.7329 1.92868 27.209 1.8564C27.6611 1.7967 28.187 1.44946 28.7489 1.08965C29.5433 0.575069 30.4483 0 31.4992 0C32.5501 0 33.4551 0.575069 34.2495 1.08965C34.8115 1.44946 35.3493 1.7967 35.7894 1.8564C36.2664 1.92868 36.8892 1.73699 37.5498 1.5453C38.454 1.28134 39.468 0.970233 40.446 1.25777C41.4488 1.5453 42.1454 2.34741 42.7562 3.05447C43.1963 3.55726 43.6115 4.03648 44.0276 4.22817C44.4548 4.41986 45.1033 4.41986 45.7871 4.40808C46.729 4.39629 47.8039 4.39629 48.66 4.94701C49.5274 5.49772 49.9675 6.45617 50.3587 7.30699C50.64 7.91741 50.8965 8.49248 51.2508 8.79259C51.6052 9.0919 52.2288 9.25924 52.8765 9.45093C53.7807 9.70233 54.8196 9.98986 55.4921 10.7566C56.1647 11.5234 56.3114 12.5659 56.4453 13.4756C56.5431 14.1348 56.6288 14.7695 56.8733 15.1529C57.1178 15.5363 57.6677 15.8717 58.2425 16.219C59.0489 16.71 59.9531 17.2733 60.3812 18.2074C60.8092 19.1179 60.6497 20.1596 60.503 21.0702C60.406 21.7411 60.3082 22.3641 60.4421 22.8071C60.5647 23.2384 60.992 23.7059 61.4449 24.2087C62.0677 24.9039 62.7892 25.7061 62.9359 26.7124C63.0826 27.6944 62.6305 28.6411 62.2393 29.4794C61.9459 30.0906 61.6645 30.6774 61.6645 31.1441C61.6645 31.6115 61.9459 32.1984 62.2393 32.8096C62.6305 33.636 63.0826 34.5827 62.9359 35.5765C62.7892 36.5947 62.0798 37.385 61.4449 38.0803C60.992 38.583 60.5767 39.0505 60.4421 39.47C60.3082 39.9131 60.406 40.5479 60.503 41.2062C60.6497 42.1167 60.8092 43.1475 60.3812 44.0698C59.9531 44.9921 59.0369 45.5546 58.2425 46.0582C57.6677 46.4172 57.1178 46.7526 56.8733 47.1242C56.6168 47.5076 56.531 48.1424 56.4453 48.8007C56.3234 49.7113 56.1767 50.7538 55.4921 51.5205C54.8196 52.2865 53.7807 52.574 52.8765 52.8262C52.2168 53.0053 51.5931 53.1852 51.2508 53.4846C50.8965 53.7839 50.64 54.359 50.3587 54.9702C49.9675 55.8202 49.5394 56.7786 48.66 57.3301C47.7919 57.8809 46.729 57.8691 45.7871 57.8691C45.1033 57.8691 44.4548 57.8573 44.0276 58.0482C43.6115 58.2399 43.1963 58.7191 42.7562 59.2227C42.1454 59.9289 41.4488 60.7318 40.446 61.0194C39.468 61.3069 38.4419 60.995 37.5498 60.7318C36.8892 60.5402 36.2664 60.3485 35.7894 60.42C35.3373 60.4805 34.8115 60.8277 34.2495 61.1867C33.4551 61.7021 32.5501 62.2771 31.4992 62.2771ZM27.0014 58.6115C27.1601 58.6115 27.3068 58.6233 27.4655 58.6476C28.3216 58.767 29.0423 59.2345 29.7517 59.6893C30.3874 60.0971 30.9982 60.4922 31.4992 60.4922C32.0002 60.4922 32.6118 60.1089 33.2467 59.6893C33.9561 59.2345 34.6896 58.767 35.5329 58.6476C36.4002 58.5274 37.2564 58.7796 38.0748 59.0192C38.7594 59.2227 39.468 59.4379 39.9329 59.306C40.4099 59.1748 40.874 58.6358 41.363 58.0725C41.9129 57.4378 42.4877 56.7904 43.2692 56.4314C44.0644 56.0724 44.9566 56.0842 45.7999 56.0842C46.5206 56.0842 47.266 56.0959 47.6701 55.8328C48.0853 55.5688 48.3787 54.934 48.6841 54.2513C49.0264 53.4846 49.3927 52.706 50.0532 52.1427C50.713 51.5802 51.5563 51.3406 52.3755 51.1128C53.0961 50.9093 53.7935 50.7176 54.111 50.3586C54.4284 49.9988 54.5262 49.3043 54.624 48.5737C54.7346 47.7472 54.8565 46.8846 55.3334 46.1658C55.7976 45.447 56.5431 44.9921 57.2645 44.5482C57.9002 44.153 58.511 43.7822 58.7186 43.3384C58.9142 42.9078 58.8044 42.189 58.6946 41.4937C58.5719 40.6673 58.4381 39.8047 58.6825 38.9782C58.927 38.1643 59.501 37.5288 60.0637 36.9065C60.5647 36.3433 61.0409 35.8161 61.1146 35.3251C61.1756 34.8695 60.8701 34.2111 60.5647 33.5763C60.1976 32.8096 59.8192 32.0192 59.8192 31.1441C59.8192 30.2697 60.1976 29.4794 60.5647 28.7126C60.8701 28.0778 61.1756 27.4187 61.1146 26.9638C61.0409 26.4728 60.5647 25.9457 60.0637 25.3824C59.501 24.7602 58.927 24.1128 58.6825 23.3107C58.4381 22.4843 58.5719 21.6217 58.6946 20.7952C58.8044 20.0999 58.9142 19.3811 58.7186 18.9498C58.511 18.5067 57.9122 18.1359 57.2645 17.7399C56.5431 17.2969 55.7976 16.842 55.3334 16.1231C54.8565 15.4043 54.7346 14.5417 54.624 13.7152C54.5262 12.9846 54.4284 12.2901 54.111 11.9303C53.7935 11.5713 53.109 11.3796 52.3755 11.1761C51.5563 10.9483 50.7009 10.7087 50.0412 10.1462C49.3807 9.58291 49.0264 8.79259 48.6721 8.03761C48.3667 7.35491 48.0733 6.72014 47.6572 6.45617C47.254 6.20477 46.5334 6.20477 45.7871 6.20477C44.9318 6.20477 44.0516 6.21656 43.2572 5.85753C42.4748 5.51029 41.9009 4.85116 41.351 4.21639C40.862 3.6531 40.3971 3.11417 39.9209 2.98219C39.468 2.85099 38.7474 3.06625 38.0628 3.26972C37.2435 3.50934 36.3882 3.76152 35.5209 3.64132C34.6648 3.52191 33.9441 3.05447 33.2347 2.59959C32.6118 2.20365 32.0002 1.80848 31.4992 1.80848C30.9982 1.80848 30.3874 2.19186 29.7517 2.61138C29.0423 3.06625 28.3088 3.53369 27.4655 3.6531C26.5862 3.7733 25.7421 3.52191 24.9236 3.28229C24.239 3.07803 23.5304 2.86278 23.0655 2.99476C22.5893 3.12596 22.1244 3.66567 21.6354 4.22817C21.0855 4.86295 20.5116 5.51029 19.7292 5.86932C18.9348 6.22913 18.0426 6.21656 17.1985 6.21656C16.441 6.21656 15.7324 6.20477 15.3292 6.46874C14.9131 6.73192 14.6197 7.3667 14.3143 8.0494C13.972 8.81615 13.6057 9.5947 12.9452 10.158C12.2855 10.7205 11.4422 10.9601 10.6109 11.1879C9.88946 11.3914 9.19286 11.5831 8.87542 11.9429C8.55719 12.3019 8.45939 12.9964 8.36159 13.7278C8.25177 14.5543 8.12993 15.4161 7.65297 16.1349C7.18884 16.8538 6.44334 17.3094 5.7219 17.7525C5.08622 18.1477 4.4754 18.5193 4.26778 18.9624C4.07219 19.3937 4.18201 20.1117 4.29183 20.807C4.41447 21.6334 4.54834 22.496 4.30385 23.3225C4.05936 24.1372 3.48541 24.772 2.92268 25.395C2.42168 25.9575 1.94472 26.4846 1.87177 26.9756C1.81085 27.4313 2.11626 28.0896 2.42168 28.7244C2.78881 29.4911 3.16717 30.2823 3.16717 31.1566C3.16717 32.031 2.78881 32.8214 2.42168 33.5881C2.11626 34.2229 1.81085 34.882 1.87177 35.3369C1.94472 35.8279 2.42168 36.355 2.92268 36.9183C3.48541 37.5413 4.05936 38.1879 4.30385 38.9908C4.54834 39.8172 4.41447 40.6798 4.29183 41.5063C4.18201 42.2008 4.07219 42.9196 4.26778 43.3509C4.4754 43.794 5.0742 44.1656 5.7219 44.5608C6.44334 45.0039 7.18884 45.4587 7.65297 46.1776C8.12993 46.8964 8.25177 47.759 8.36159 48.5855C8.45939 49.3161 8.55719 50.0106 8.87542 50.3704C9.19286 50.7294 9.87743 50.9211 10.6109 51.1246C11.4301 51.3524 12.2855 51.592 12.9452 52.1553C13.6057 52.7178 13.96 53.5089 14.3143 54.2631C14.6197 54.9458 14.9131 55.5806 15.3292 55.8445C15.7324 56.0959 16.453 56.0959 17.1985 56.0959C18.0546 56.0959 18.9348 56.0842 19.7292 56.4432C20.5116 56.7904 21.0855 57.4496 21.6354 58.0843C22.1244 58.6476 22.5893 59.1865 23.0655 59.3185C23.5304 59.4497 24.239 59.2345 24.9236 59.031C25.5954 58.8149 26.2799 58.6115 27.0014 58.6115Z" fill="#FF914D"/>
</g>
<mask id="mask1_124_112" style="mask-type:luminance" maskUnits="userSpaceOnUse" x="1" y="1" width="61" height="60">
<path d="M1.59277 1.8289H61.4633V60.5048H1.59277V1.8289Z" fill="white"/>
</mask>
<g mask="url(#mask1_124_112)">
<path d="M61.4056 31.1386C61.4056 31.6178 61.3935 32.097 61.3695 32.5762C61.3455 33.0555 61.3094 33.5339 61.2613 34.0108C61.2132 34.4884 61.1531 34.9645 61.0817 35.439C61.0096 35.9135 60.9262 36.3857 60.8308 36.8563C60.7354 37.3268 60.628 37.7943 60.5086 38.2602C60.3899 38.7252 60.2593 39.1872 60.1174 39.646C59.9755 40.1056 59.8216 40.5604 59.6573 41.0122C59.4921 41.4639 59.3158 41.9117 59.129 42.3548C58.9414 42.7979 58.7434 43.2362 58.5342 43.6699C58.3242 44.1035 58.1045 44.5317 57.8737 44.9544C57.6428 45.3778 57.4023 45.795 57.1506 46.2066C56.8989 46.6175 56.6368 47.0229 56.3651 47.422C56.0933 47.8203 55.8111 48.2123 55.5202 48.598C55.2284 48.983 54.927 49.3609 54.6168 49.7317C54.3065 50.1025 53.9867 50.4662 53.658 50.8213C53.3294 51.1764 52.9919 51.5244 52.6456 51.863C52.3001 52.2024 51.945 52.5332 51.5827 52.8553C51.2203 53.1774 50.8492 53.4908 50.4708 53.7949C50.0925 54.0989 49.7069 54.3943 49.3141 54.6803C48.9205 54.9654 48.5205 55.242 48.1141 55.5083C47.7069 55.7746 47.2933 56.0315 46.874 56.2782C46.454 56.5249 46.0283 56.7606 45.5963 56.9868C45.165 57.2131 44.7281 57.4283 44.2856 57.6342C43.8431 57.8392 43.3958 58.0333 42.9437 58.2171C42.4916 58.4001 42.0347 58.573 41.5738 58.7348C41.1129 58.8959 40.6487 59.0467 40.1798 59.1858C39.7116 59.3248 39.2403 59.4529 38.7658 59.5691C38.2904 59.6862 37.8134 59.7915 37.3333 59.8849C36.8531 59.9784 36.3713 60.0601 35.8872 60.1308C35.403 60.2008 34.9172 60.2597 34.4299 60.3068C33.9433 60.354 33.4551 60.3893 32.9661 60.4129C32.4771 60.4364 31.9882 60.4482 31.4992 60.4482C31.0094 60.4482 30.5204 60.4364 30.0314 60.4129C29.5424 60.3893 29.0543 60.354 28.5677 60.3068C28.0803 60.2597 27.5945 60.2008 27.1104 60.1308C26.6262 60.0601 26.1444 59.9784 25.6643 59.8849C25.1841 59.7915 24.7071 59.6862 24.2318 59.5691C23.7572 59.4529 23.2859 59.3248 22.8178 59.1858C22.3488 59.0467 21.8847 58.8959 21.4238 58.7348C20.9628 58.573 20.5059 58.4001 20.0538 58.2171C19.6017 58.0333 19.1544 57.8392 18.7119 57.6342C18.2694 57.4283 17.8326 57.2131 17.4013 56.9868C16.9692 56.7606 16.5436 56.5249 16.1235 56.2782C15.7043 56.0315 15.2907 55.7746 14.8834 55.5083C14.477 55.242 14.077 54.9654 13.6834 54.6803C13.2906 54.3943 12.9051 54.0989 12.5267 53.7949C12.1484 53.4908 11.7772 53.1774 11.4149 52.8553C11.0526 52.5332 10.6982 52.2024 10.3519 51.863C10.0057 51.5244 9.66817 51.1764 9.33952 50.8213C9.01086 50.4662 8.69101 50.1025 8.38079 49.7317C8.07057 49.3609 7.76916 48.983 7.47738 48.598C7.1864 48.2123 6.90423 47.8203 6.63248 47.422C6.36074 47.0229 6.09861 46.6175 5.84691 46.2066C5.5952 45.795 5.35472 45.3778 5.12386 44.9544C4.89299 44.5317 4.67335 44.1035 4.46333 43.6699C4.25411 43.2362 4.05612 42.7979 3.86854 42.3548C3.68176 41.9117 3.50541 41.4639 3.34028 41.0122C3.17595 40.5604 3.02204 40.1056 2.88016 39.646C2.73827 39.1872 2.60761 38.7252 2.48897 38.2602C2.36953 37.7943 2.26212 37.3268 2.16672 36.8563C2.07133 36.3857 1.98797 35.9135 1.91582 35.439C1.84448 34.9645 1.78436 34.4884 1.73626 34.0108C1.68816 33.5339 1.65209 33.0555 1.62804 32.5762C1.604 32.097 1.59277 31.6178 1.59277 31.1386C1.59277 30.6586 1.604 30.1793 1.62804 29.7001C1.65209 29.2209 1.68816 28.7424 1.73626 28.2656C1.78436 27.7879 1.84448 27.3118 1.91582 26.8373C1.98797 26.3628 2.07133 25.8907 2.16672 25.4201C2.26212 24.9495 2.36953 24.4821 2.48897 24.0162C2.60761 23.5511 2.73827 23.0892 2.88016 22.6304C3.02204 22.1708 3.17595 21.7159 3.34028 21.2642C3.50541 20.8125 3.68176 20.3647 3.86854 19.9216C4.05612 19.4785 4.25411 19.0401 4.46333 18.6065C4.67335 18.1728 4.89299 17.7446 5.12386 17.322C5.35472 16.8985 5.5952 16.4814 5.84691 16.0697C6.09861 15.6588 6.36074 15.2535 6.63248 14.8544C6.90423 14.4561 7.1864 14.064 7.47738 13.6783C7.76916 13.2934 8.07057 12.9155 8.38079 12.5447C8.69101 12.1739 9.01086 11.8101 9.33952 11.455C9.66817 11.0999 10.0057 10.7527 10.3519 10.4133C10.6982 10.0739 11.0526 9.74317 11.4149 9.42107C11.7772 9.09897 12.1484 8.78551 12.5267 8.48148C12.9051 8.17744 13.2906 7.88205 13.6834 7.59609C14.077 7.31091 14.477 7.03438 14.8834 6.76805C15.2907 6.50173 15.7043 6.24484 16.1235 5.99815C16.5436 5.75147 16.9692 5.51579 17.4013 5.28953C17.8326 5.06327 18.2694 4.84802 18.7119 4.64218C19.1544 4.43714 19.6017 4.24309 20.0538 4.05926C20.5059 3.87621 20.9628 3.70338 21.4238 3.54154C21.8847 3.38049 22.3488 3.22965 22.8178 3.0906C23.2859 2.95154 23.7572 2.82349 24.2318 2.70722C24.7071 2.59016 25.1841 2.48489 25.6643 2.3914C26.1444 2.29791 26.6262 2.21621 27.1104 2.14551C27.5945 2.07559 28.0803 2.01666 28.5677 1.96953C29.0543 1.92239 29.5424 1.88704 30.0314 1.86347C30.5204 1.8399 31.0094 1.8289 31.4992 1.8289C31.9882 1.8289 32.4771 1.8399 32.9661 1.86347C33.4551 1.88704 33.9433 1.92239 34.4299 1.96953C34.9172 2.01666 35.403 2.07559 35.8872 2.14551C36.3713 2.21621 36.8531 2.29791 37.3333 2.3914C37.8134 2.48489 38.2904 2.59016 38.7658 2.70722C39.2403 2.82349 39.7116 2.95154 40.1798 3.0906C40.6487 3.22965 41.1129 3.38049 41.5738 3.54154C42.0347 3.70338 42.4916 3.87621 42.9437 4.05926C43.3958 4.24309 43.8431 4.43714 44.2856 4.64218C44.7281 4.84802 45.165 5.06327 45.5963 5.28953C46.0283 5.51579 46.454 5.75147 46.874 5.99815C47.2933 6.24484 47.7069 6.50173 48.1141 6.76805C48.5205 7.03438 48.9205 7.31091 49.3141 7.59609C49.7069 7.88205 50.0925 8.17744 50.4708 8.48148C50.8492 8.78551 51.2203 9.09897 51.5827 9.42107C51.945 9.74317 52.3001 10.0739 52.6456 10.4133C52.9919 10.7527 53.3294 11.0999 53.658 11.455C53.9867 11.8101 54.3065 12.1739 54.6168 12.5447C54.927 12.9155 55.2284 13.2934 55.5202 13.6783C55.8111 14.064 56.0933 14.4561 56.3651 14.8544C56.6368 15.2535 56.8989 15.6588 57.1506 16.0697C57.4023 16.4814 57.6428 16.8985 57.8737 17.322C58.1045 17.7446 58.3242 18.1728 58.5342 18.6065C58.7434 19.0401 58.9414 19.4785 59.129 19.9216C59.3158 20.3647 59.4921 20.8125 59.6573 21.2642C59.8216 21.7159 59.9755 22.1708 60.1174 22.6304C60.2593 23.0892 60.3899 23.5511 60.5086 24.0162C60.628 24.4821 60.7354 24.9495 60.8308 25.4201C60.9262 25.8907 61.0096 26.3628 61.0817 26.8373C61.1531 27.3118 61.2132 27.7879 61.2613 28.2656C61.3094 28.7424 61.3455 29.2209 61.3695 29.7001C61.3935 30.1793 61.4056 30.6586 61.4056 31.1386Z" fill="#FFDE59"/>
</g>
<mask id="mask2_124_112" style="mask-type:luminance" maskUnits="userSpaceOnUse" x="3" y="3" width="57" height="56">
<path d="M3.75952 3.95242H59.1667V58.254H3.75952V3.95242Z" fill="white"/>
</mask>
<g mask="url(#mask2_124_112)">
<path d="M59.2388 31.1386C59.2388 31.584 59.2276 32.0287 59.206 32.4725C59.1835 32.9172 59.1498 33.3603 59.1058 33.8034C59.0609 34.2465 59.0056 34.688 58.939 35.1279C58.8725 35.5679 58.7947 36.0062 58.7058 36.4422C58.6176 36.8791 58.5182 37.3127 58.4076 37.7448C58.2977 38.1761 58.1759 38.605 58.0444 39.0301C57.913 39.4559 57.7703 39.8785 57.6172 40.2973C57.4649 40.716 57.3013 41.1316 57.1274 41.5425C56.9534 41.9533 56.7699 42.3603 56.5759 42.7625C56.3819 43.1647 56.1775 43.5615 55.9635 43.9543C55.7494 44.3463 55.5258 44.7336 55.2925 45.1154C55.0592 45.4964 54.8164 45.8728 54.5638 46.2428C54.3121 46.6128 54.0508 46.9758 53.7799 47.3332C53.5097 47.6907 53.23 48.0418 52.9422 48.3851C52.6544 48.7292 52.3578 49.0663 52.0532 49.3954C51.7478 49.7254 51.4352 50.0475 51.1145 50.3625C50.7931 50.6768 50.4644 50.9832 50.1277 51.2825C49.7919 51.581 49.448 51.8717 49.0969 52.1537C48.7466 52.4358 48.3883 52.7099 48.0235 52.9747C47.6588 53.2402 47.2884 53.4963 46.9109 53.743C46.5333 53.9905 46.1494 54.2285 45.7606 54.4572C45.371 54.6858 44.9758 54.9049 44.5758 55.1147C44.175 55.3245 43.7702 55.5248 43.3598 55.7149C42.9493 55.905 42.5341 56.0849 42.1149 56.2554C41.6956 56.4259 41.2716 56.5862 40.8443 56.7354C40.4171 56.8855 39.9858 57.0253 39.5513 57.1542C39.1177 57.283 38.68 57.4024 38.2399 57.51C37.799 57.6185 37.3565 57.7159 36.9108 57.8023C36.4659 57.8895 36.0186 57.9657 35.5697 58.0309C35.1208 58.0961 34.6703 58.1503 34.2182 58.1943C33.7661 58.2375 33.314 58.2705 32.8603 58.2925C32.4074 58.3137 31.9537 58.3247 31.4992 58.3247C31.0455 58.3247 30.5918 58.3137 30.138 58.2925C29.6851 58.2705 29.2322 58.2375 28.7801 58.1943C28.3288 58.1503 27.8783 58.0961 27.4294 58.0309C26.9797 57.9657 26.5332 57.8895 26.0875 57.8023C25.6426 57.7159 25.1993 57.6185 24.7593 57.51C24.3184 57.4024 23.8815 57.283 23.447 57.1542C23.0125 57.0253 22.5813 56.8855 22.154 56.7354C21.7268 56.5862 21.3035 56.4259 20.8835 56.2554C20.4642 56.0849 20.0498 55.905 19.6394 55.7149C19.229 55.5248 18.8233 55.3245 18.4233 55.1147C18.0225 54.9049 17.6273 54.6858 17.2386 54.4572C16.849 54.2285 16.4658 53.9905 16.0883 53.743C15.7107 53.4963 15.3396 53.2402 14.9748 52.9747C14.6101 52.7099 14.2526 52.4358 13.9015 52.1537C13.5504 51.8717 13.2073 51.581 12.8706 51.2825C12.5339 50.9832 12.2053 50.6768 11.8846 50.3625C11.5632 50.0475 11.2506 49.7254 10.9459 49.3954C10.6405 49.0663 10.3439 48.7292 10.0562 48.3851C9.76838 48.0418 9.48942 47.6907 9.21847 47.3332C8.94833 46.9758 8.68701 46.6128 8.4345 46.2428C8.1828 45.8728 7.93991 45.4964 7.70664 45.1154C7.47257 44.7336 7.24892 44.3463 7.03489 43.9543C6.82086 43.5615 6.61725 43.1647 6.42327 42.7625C6.22928 42.3603 6.04491 41.9533 5.87096 41.5425C5.69781 41.1316 5.53428 40.716 5.38117 40.2973C5.22807 39.8785 5.08618 39.4559 4.95392 39.0301C4.82245 38.605 4.70141 38.1761 4.59079 37.7448C4.48097 37.3127 4.38157 36.8791 4.29259 36.4422C4.20441 36.0062 4.12666 35.5679 4.06012 35.1279C3.99359 34.688 3.93748 34.2465 3.89339 33.8034C3.8485 33.3603 3.81563 32.9172 3.79319 32.4725C3.77074 32.0287 3.75952 31.584 3.75952 31.1386C3.75952 30.6939 3.77074 30.2493 3.79319 29.8046C3.81563 29.3607 3.8485 28.9169 3.89339 28.4738C3.93748 28.0315 3.99359 27.59 4.06012 27.15C4.12666 26.7093 4.20441 26.2717 4.29259 25.8349C4.38157 25.3989 4.48097 24.9644 4.59079 24.5331C4.70141 24.1018 4.82245 23.6729 4.95392 23.2471C5.08618 22.8213 5.22807 22.3986 5.38117 21.9799C5.53428 21.5612 5.69781 21.1464 5.87096 20.7347C6.04491 20.3238 6.22928 19.9177 6.42327 19.5154C6.61725 19.1132 6.82086 18.7157 7.03489 18.3236C7.24892 17.9308 7.47257 17.5435 7.70664 17.1625C7.93991 16.7807 8.1828 16.4052 8.4345 16.0352C8.68701 15.6651 8.94833 15.3014 9.21847 14.9439C9.48942 14.5865 9.76838 14.2361 10.0562 13.892C10.3439 13.5479 10.6405 13.2117 10.9459 12.8817C11.2506 12.5517 11.5632 12.2296 11.8846 11.9154C12.2053 11.6004 12.5339 11.294 12.8706 10.9954C13.2073 10.6961 13.5504 10.4055 13.9015 10.1234C14.2526 9.84138 14.6101 9.56799 14.9748 9.30245C15.3396 9.0377 15.7107 8.78159 16.0883 8.53412C16.4658 8.28744 16.849 8.0494 17.2386 7.82078C17.6273 7.59138 18.0225 7.3722 18.4233 7.16244C18.8233 6.95268 19.229 6.75313 19.6394 6.56302C20.0498 6.3729 20.4642 6.19221 20.8835 6.02173C21.3035 5.85204 21.7268 5.69177 22.154 5.54172C22.5813 5.39167 23.0125 5.25261 23.447 5.12299C23.8815 4.99415 24.3184 4.87552 24.7593 4.7671C25.1993 4.65948 25.6426 4.56206 26.0875 4.47486C26.5332 4.38844 26.9797 4.31223 27.4294 4.24703C27.8783 4.18182 28.3288 4.12683 28.7801 4.08362C29.2322 4.03963 29.6851 4.00742 30.138 3.98542C30.5918 3.96342 31.0455 3.95242 31.4992 3.95242C31.9537 3.95242 32.4074 3.96342 32.8603 3.98542C33.314 4.00742 33.7661 4.03963 34.2182 4.08362C34.6703 4.12683 35.1208 4.18182 35.5697 4.24703C36.0186 4.31223 36.4659 4.38844 36.9108 4.47486C37.3565 4.56206 37.799 4.65948 38.2399 4.7671C38.68 4.87552 39.1177 4.99415 39.5513 5.12299C39.9858 5.25261 40.4171 5.39167 40.8443 5.54172C41.2716 5.69177 41.6956 5.85204 42.1149 6.02173C42.5341 6.19221 42.9493 6.3729 43.3598 6.56302C43.7702 6.75313 44.175 6.95268 44.5758 7.16244C44.9758 7.3722 45.371 7.59138 45.7606 7.82078C46.1494 8.0494 46.5333 8.28744 46.9109 8.53412C47.2884 8.78159 47.6588 9.0377 48.0235 9.30245C48.3883 9.56799 48.7466 9.84138 49.0969 10.1234C49.448 10.4055 49.7919 10.6961 50.1277 10.9954C50.4644 11.294 50.7931 11.6004 51.1145 11.9154C51.4352 12.2296 51.7478 12.5517 52.0532 12.8817C52.3578 13.2117 52.6544 13.5479 52.9422 13.892C53.23 14.2361 53.5097 14.5865 53.7799 14.9439C54.0508 15.3014 54.3121 15.6651 54.5638 16.0352C54.8164 16.4052 55.0592 16.7807 55.2925 17.1625C55.5258 17.5435 55.7494 17.9308 55.9635 18.3236C56.1775 18.7157 56.3819 19.1132 56.5759 19.5154C56.7699 19.9177 56.9534 20.3238 57.1274 20.7347C57.3013 21.1464 57.4649 21.5612 57.6172 21.9799C57.7703 22.3986 57.913 22.8213 58.0444 23.2471C58.1767 23.6729 58.2977 24.1018 58.4076 24.5331C58.5182 24.9644 58.6176 25.3989 58.7058 25.8349C58.7947 26.2717 58.8725 26.7093 58.939 27.15C59.0056 27.59 59.0609 28.0315 59.1058 28.4738C59.1498 28.9169 59.1835 29.3607 59.206 29.8046C59.2276 30.2493 59.2388 30.6939 59.2388 31.1386Z" fill="#3B523A"/>
</g>
<mask id="mask3_124_112" style="mask-type:luminance" maskUnits="userSpaceOnUse" x="7" y="5" width="49" height="19">
<path d="M7.00446 5.72241H55.9475V23.3704H7.00446V5.72241Z" fill="white"/>
</mask>
<g mask="url(#mask3_124_112)">
<path d="M48.5221 23.3539C45.6075 16.9858 39.0824 12.5502 31.5 12.5502C23.9168 12.5502 17.3917 16.9858 14.4778 23.3539L11.5391 20.7708L7.0397 23.3539C10.2846 13.1386 20.0081 5.72241 31.5 5.72241C42.991 5.72241 52.7153 13.1386 55.9595 23.3539L51.4769 20.7708L48.5221 23.3539Z" fill="#ECEADA"/>
</g>
<path d="M14.2146 20.87L12.4093 20.6186L12.3965 20.6406L13.9164 21.4262L13.4739 22.2495L10.1007 20.5086L10.5464 19.6758L12.1079 19.8926L12.124 19.8644L10.8125 19.1887L11.2518 18.3654L14.625 20.1063L14.2146 20.87Z" fill="#3B523A"/>
<path d="M15.8105 18.5444C15.5644 18.861 15.3431 19.0527 15.1467 19.1195C14.9495 19.187 14.7427 19.1627 14.5247 19.0472C14.305 18.9325 13.9652 18.7039 13.505 18.3621C13.0433 18.0188 12.7275 17.7604 12.5559 17.586C12.3852 17.4123 12.305 17.2238 12.3155 17.0203C12.3267 16.8153 12.4549 16.5544 12.7002 16.2378C12.9463 15.922 13.1676 15.7311 13.364 15.6659C13.5612 15.5991 13.7696 15.6235 13.9892 15.7382C14.2097 15.8513 14.5495 16.0776 15.0089 16.417C15.4682 16.7587 15.7824 17.0172 15.9516 17.1931C16.1223 17.3676 16.2025 17.5569 16.192 17.7619C16.1832 17.9678 16.0558 18.2286 15.8105 18.5444ZM15.1564 18.0605C15.2093 17.9913 15.2309 17.9348 15.2205 17.8908C15.2117 17.8468 15.1548 17.7824 15.0505 17.6959C14.9479 17.6103 14.7323 17.4445 14.4028 17.1994C14.0742 16.9543 13.8537 16.7956 13.7423 16.7218C13.6293 16.6487 13.5499 16.6134 13.505 16.6149C13.4586 16.6173 13.408 16.6526 13.3543 16.7218C13.3014 16.7909 13.2806 16.8467 13.2934 16.8883C13.3046 16.9308 13.3608 16.9944 13.4634 17.08C13.566 17.1664 13.7824 17.3314 14.1111 17.5765C14.4405 17.8216 14.6618 17.9811 14.7748 18.0542C14.8886 18.128 14.9656 18.1642 15.0089 18.1642C15.0538 18.1642 15.1026 18.1296 15.1564 18.0605ZM11.9499 16.7249L11.9147 16.6998L11.6165 15.9802L12.1455 15.2951L12.9375 15.3768L12.9728 15.4019L12.6072 15.8765L12.1904 15.867L12.3187 16.2504L11.9499 16.7249Z" fill="#3B523A"/>
<path d="M18.1789 15.9279L16.5468 15.1203L16.5308 15.1391L17.714 16.3616L17.0246 16.9995L14.3985 14.2907L15.0943 13.6465L16.4987 14.3378L16.5212 14.3158L15.5015 13.2631L16.1909 12.6252L18.817 15.334L18.1789 15.9279Z" fill="#3B523A"/>
<path d="M19.585 12.9644L19.1457 12.3296L20.0724 11.7106L21.3165 13.5018C21.2219 13.6086 21.0984 13.728 20.9445 13.86C20.7906 13.9904 20.6415 14.102 20.4988 14.1962C20.199 14.3958 19.9441 14.5011 19.7325 14.5136C19.5225 14.5246 19.3125 14.4398 19.1008 14.2591C18.8892 14.0768 18.6319 13.7681 18.3281 13.3321C18.0251 12.8945 17.8271 12.5457 17.7349 12.2856C17.6435 12.024 17.6451 11.797 17.7413 11.6037C17.8359 11.4112 18.0395 11.2093 18.3537 10.9972C18.4716 10.9202 18.6159 10.8385 18.7866 10.7521C18.9557 10.6641 19.1088 10.595 19.2451 10.5447L19.6716 11.1575C19.3589 11.3256 19.1513 11.4434 19.0463 11.5126C18.8587 11.6383 18.7417 11.7381 18.6968 11.8111C18.6503 11.8826 18.6567 11.9832 18.7161 12.1128C18.7762 12.2432 18.9173 12.4679 19.1393 12.7884C19.3461 13.0862 19.4984 13.2928 19.5946 13.4075C19.6924 13.523 19.775 13.5882 19.8415 13.6023C19.9097 13.6172 19.9906 13.5929 20.0852 13.53L20.2103 13.4421L19.7838 12.8324L19.585 12.9644Z" fill="#3B523A"/>
<path d="M24.8913 11.9679L23.7081 10.6041L23.6857 10.6104L24.2917 12.1879L23.4035 12.5178L22.06 9.02027L22.9546 8.68717L23.9774 9.8656L24.0063 9.85303L23.4837 8.49234L24.3718 8.16553L25.7153 11.6631L24.8913 11.9679Z" fill="#3B523A"/>
<path d="M27.3635 9.77399L27.2096 9.02294L28.3062 8.80611L28.7423 10.9304C28.6156 10.9933 28.4553 11.0553 28.2613 11.1158C28.0665 11.1771 27.8845 11.2242 27.7162 11.2572C27.3611 11.3264 27.0845 11.3264 26.8857 11.2572C26.6886 11.1881 26.5282 11.0302 26.4048 10.7827C26.2829 10.536 26.1691 10.1534 26.0617 9.63572C25.9551 9.11643 25.911 8.71969 25.9302 8.44473C25.9495 8.16819 26.0417 7.96001 26.206 7.81938C26.3703 7.67719 26.6397 7.56956 27.014 7.49571C27.1527 7.469 27.317 7.44779 27.5078 7.43286C27.6978 7.41636 27.8653 7.41008 28.0112 7.41401L28.1587 8.13991C27.806 8.17605 27.5671 8.2059 27.4437 8.23104C27.2192 8.27504 27.0717 8.32217 27.0012 8.37245C26.9306 8.42116 26.8962 8.51622 26.8986 8.65842C26.9026 8.8014 26.9443 9.06301 27.0236 9.44403C27.0958 9.79599 27.1551 10.0442 27.2 10.1888C27.2449 10.3333 27.2938 10.426 27.3475 10.4653C27.4028 10.503 27.4862 10.5117 27.5976 10.4905L27.7515 10.4528L27.6008 9.72685L27.3635 9.77399Z" fill="#3B523A"/>
<path d="M30.9783 10.8559L30.9206 9.41035L30.4781 9.4292L30.5358 10.8747L29.5386 10.9093L29.3943 7.17606L30.3915 7.14149L30.4461 8.56503L30.8885 8.54617L30.834 7.12264L31.828 7.08493L31.9723 10.8182L30.9783 10.8559Z" fill="#3B523A"/>
<path d="M32.8346 10.8869L33.1873 7.16624L34.1781 7.25738L33.8254 10.978L32.8346 10.8869Z" fill="#3B523A"/>
<path d="M34.7022 11.0812L35.5006 7.4265L37.4149 7.82873L37.2417 8.61749L36.3054 8.42266L36.1675 9.05429L36.9627 9.22084L36.7928 10.0002L35.9976 9.83362L35.8533 10.503L36.7896 10.6978L36.6164 11.4834L34.7022 11.0812ZM34.9331 12.3193L35.1094 11.5117L36.0649 11.7128L35.8886 12.5204L34.9331 12.3193ZM35.709 7.09026L35.7186 7.04626L36.2541 6.47748L37.1102 6.6566L37.3764 7.39507L37.3668 7.43907L36.7704 7.31337L36.6036 6.93628L36.3022 7.21595L35.709 7.09026Z" fill="#3B523A"/>
<path d="M38.7168 8.19221L40.0026 8.66673C40.2656 8.761 40.4467 8.87648 40.5477 9.0124C40.6479 9.14909 40.6888 9.3125 40.6696 9.50262C40.6519 9.69117 40.5862 9.93628 40.4708 10.238C40.3617 10.5231 40.2527 10.7431 40.1437 10.8979C40.0363 11.0511 39.8976 11.1508 39.7269 11.1964C39.5553 11.2428 39.3357 11.2176 39.0663 11.121L38.7136 10.989L38.3128 12.0354L37.3798 11.6929L38.7168 8.19221ZM39.108 10.2819C39.1866 10.3118 39.2443 10.3228 39.2812 10.3165C39.3172 10.3102 39.3525 10.278 39.387 10.2191C39.4207 10.161 39.4688 10.0518 39.5313 9.89228C39.593 9.72887 39.6307 9.61418 39.6435 9.54661C39.6563 9.47984 39.6507 9.43348 39.6275 9.40834C39.6034 9.38163 39.5521 9.35335 39.4736 9.3235L39.3645 9.28265L38.999 10.2411L39.108 10.2819Z" fill="#3B523A"/>
<path d="M42.8383 14.3518L43.2519 13.1797L43.2102 13.1514L42.2515 13.9622L41.389 13.3934L43.0627 12.2338L43.5405 10.3075L44.4255 10.892L44.0279 12.0139L44.0663 12.039L44.993 11.2691L45.8491 11.8379L44.2267 12.966L43.7265 14.9395L42.8383 14.3518Z" fill="#3B523A"/>
<path d="M45.3842 16.4297L45.7625 15.9081L45.2591 15.4399L44.7525 15.8452L44.0375 15.1822L47.1637 12.9385L48.2219 13.9189L46.112 17.1054L45.3842 16.4297ZM47.0932 14.0635L47.0643 14.0352L45.894 14.9591L46.2211 15.2639L47.0932 14.0635Z" fill="#3B523A"/>
<path d="M47.4479 18.7831L48.4451 17.2841L48.429 17.2653L47.0599 18.2834L46.4891 17.5418L49.5288 15.2855L50.106 16.0334L49.2467 17.3281L49.2659 17.3533L50.4491 16.4765L51.0198 17.215L47.9801 19.4713L47.4479 18.7831Z" fill="#3B523A"/>
<path d="M49.0786 21.3793L50.3836 20.7068L50.1784 20.3234L48.8734 20.9959L48.4084 20.1317L51.7816 18.394L52.2465 19.2581L50.9608 19.9212L51.166 20.3046L52.4518 19.6415L52.9167 20.5088L49.5435 22.2466L49.0786 21.3793Z" fill="#3B523A"/>
<path d="M19.0898 32.2088L19.1795 34.4588H16.8068L14.8284 30.7696H14.6969L14.6873 31.9637L14.7739 34.4588H12.7955L12.9013 32.4351L12.7955 27.5611H15.1651L17.1435 31.2504H17.2749L17.2108 27.6366L19.2116 27.5203L19.0898 32.2088Z" fill="#FFD91D"/>
<path d="M25.7678 27.712L25.6492 29.2675L24.2127 29.2046H24.0812L24.0267 32.2214L24.1165 34.4588H21.9393L22.0484 32.4351L21.9939 29.2046H21.8528L20.4067 29.2675L20.2752 29.1198L20.3938 27.5611H25.6492L25.7678 27.712Z" fill="#FFD91D"/>
<path d="M32.87 34.4588H30.6607L30.4651 33.3181L30.4555 33.2867L29.3878 33.2647L28.4964 33.3087L28.3136 34.4588H26.1813L28.3136 27.5611H30.9429L32.87 34.4588ZM30.1285 31.7312L29.6507 29.4718H29.5192L28.91 31.7312L29.5192 31.7406L30.1285 31.7312Z" fill="#FFD91D"/>
<path d="M37.4591 27.4449C38.2415 27.4449 38.9189 27.5517 39.492 27.7654L39.0239 29.6509H38.8507C38.4868 29.4733 38.1726 29.3453 37.908 29.2675C37.6451 29.1905 37.3573 29.1512 37.0455 29.1512C36.712 29.1512 36.4563 29.2047 36.2792 29.3115C36.1012 29.4183 35.9721 29.6069 35.8912 29.8771C35.8118 30.1458 35.7725 30.5363 35.7725 31.0493C35.7725 31.567 35.8118 31.9629 35.8912 32.2371C35.9721 32.5097 36.1076 32.7014 36.2984 32.8122C36.4908 32.9238 36.7681 32.9787 37.1321 32.9787C37.2323 32.9787 37.3629 32.9646 37.5233 32.9348V32.5922L37.4912 31.4327L39.4824 31.2944L39.4471 32.2308V34.1163C38.607 34.4306 37.7702 34.5877 36.9365 34.5877C35.7966 34.5877 34.9373 34.2915 34.3585 33.6984C33.7789 33.1037 33.4896 32.2552 33.4896 31.153C33.4896 29.9463 33.831 29.0271 34.5156 28.3939C35.2018 27.7615 36.183 27.4449 37.4591 27.4449Z" fill="#FFD91D"/>
<path d="M45.3986 31.7406C45.9196 32.5372 46.4414 33.2765 46.9633 33.9592L46.9312 34.1917C46.1913 34.4117 45.4627 34.5437 44.7444 34.5877L44.5392 34.4148L44.4078 34.1508C44.3501 34.0362 44.233 33.7958 44.0583 33.4312C43.8851 33.0651 43.7328 32.721 43.603 32.4005H42.8751L42.9488 34.4588H40.7653L40.8711 32.4351L40.7653 27.5611L44.1032 27.5517C44.8935 27.5517 45.5028 27.7355 45.9308 28.1016C46.3581 28.4662 46.5721 28.9933 46.5721 29.6823C46.5721 30.0892 46.4679 30.4703 46.2611 30.8261C46.0559 31.1804 45.7681 31.4853 45.3986 31.7406ZM44.2763 29.896C44.2763 29.6131 44.201 29.4026 44.0519 29.2643C43.9044 29.1245 43.6639 29.0467 43.3304 29.0318L42.9392 29.0664L42.8943 30.845L43.6895 30.889C43.8923 30.7971 44.0406 30.6722 44.1352 30.515C44.229 30.3579 44.2763 30.1521 44.2763 29.896Z" fill="#FFD91D"/>
<path d="M50.0504 32.2214L50.137 34.4588H47.9534L48.0592 32.4351L47.9534 27.5611H50.1691L50.0504 32.2214Z" fill="#FFD91D"/>
<path d="M21.8512 46.9628C21.8844 46.975 21.9193 46.9872 21.9526 47C21.979 46.8889 21.9901 46.7744 21.9961 46.666C22.0267 46.0998 21.8759 45.5429 21.6381 45C20.8983 45.1689 20.1671 45.3551 19.4529 45.5646C18.6151 45.8091 17.7636 46.0736 17 46.4121C18.2026 46.4187 19.4239 46.4854 20.577 46.6666C21.0125 46.736 21.4566 46.8211 21.8512 46.9628Z" fill="#ECEADA"/>
<path d="M46 46.5846C45.7718 46.4928 45.542 46.403 45.3113 46.3151C44.0331 45.8249 42.715 45.3828 41.3681 45C41.2341 45.6647 41.112 46.332 41 47C41.2612 46.8906 41.5623 46.8184 41.8253 46.7728C43.1671 46.5397 44.6047 46.5254 46 46.5846Z" fill="#ECEADA"/>
<mask id="mask4_124_112" style="mask-type:luminance" maskUnits="userSpaceOnUse" x="40" y="44" width="13" height="8">
<path d="M40.6319 44.7148H52.5101V51.2872H40.6319V44.7148Z" fill="white"/>
</mask>
<g mask="url(#mask4_124_112)">
<path d="M43.6508 46.9388C43.1153 46.9585 42.575 46.9915 42.0467 47.0881C41.6868 47.1541 41.2227 47.2271 40.9293 47.466C40.8427 47.5359 40.7898 47.6066 40.7634 47.6773C40.7578 47.7268 40.7513 47.7755 40.7449 47.8258C40.7938 48.2343 41.6315 48.5965 41.9377 48.7151C44.4981 49.7042 47.3005 50.0129 49.7622 51.2479C49.5586 50.7349 49.3646 50.2172 49.1843 49.6963C49.0223 49.2289 48.8436 48.7473 48.769 48.2571C48.7217 47.9491 48.7193 47.6742 49.048 47.5343C49.4897 47.3473 49.9915 47.2806 50.4604 47.1934C51.0264 47.0873 51.6003 46.997 52.1566 46.8453C52.2424 46.8218 52.3819 46.788 52.4877 46.7456C52.4685 46.7322 52.4508 46.7181 52.4308 46.7063C52.0011 46.4235 51.521 46.2098 51.0528 45.9984C50.155 45.5891 49.2163 45.2498 48.3273 44.8216C48.244 44.985 48.1582 45.1476 48.0716 45.3087C47.8328 45.7549 47.5883 46.2082 47.278 46.6104C47.1265 46.8068 46.9205 47.0472 46.6608 47.0119C46.6464 47.0119 46.6311 47.0095 46.6151 47.0056C45.6315 46.927 44.6367 46.9019 43.6508 46.9388Z" fill="#ECEADA"/>
</g>
<path d="M15.8564 46.8605C15.9576 46.9235 16.042 46.9708 16.1545 46.9984C16.6052 46.5949 17.1749 46.2906 17.7076 46.014C18.6975 45.4977 19.7332 45.0626 20.7865 44.6851C23.8896 43.573 27.1798 42.9196 30.4789 42.7619C34.269 42.5799 38.0285 43.3877 41.5533 44.7158C43.2503 45.3551 44.9513 46.0826 46.5148 47C46.5221 46.9937 46.5309 46.9858 46.5413 46.9748C46.6145 46.9023 46.6795 46.8227 46.739 46.7383C46.9117 46.4948 47.0652 46.2394 47.2114 45.9809C47.798 44.942 48.3058 43.8583 48.7951 42.7722C48.8554 42.6374 48.9695 42.4096 49 42.3142C48.9968 42.3071 48.9871 42.2859 48.9638 42.2504C48.8361 42.0699 48.5444 41.8618 48.3243 41.7176C47.3697 41.0902 46.3091 40.6094 45.255 40.168C43.7155 39.5241 42.1302 38.9794 40.5233 38.5215C36.7847 37.4543 32.8846 36.8009 28.9829 37.0547C25.2362 37.2967 21.5257 38.1755 18.0145 39.461C16.8214 39.8985 15.6378 40.3761 14.5105 40.9594C14.1851 41.1272 13.8573 41.3006 13.5576 41.5087C13.4363 41.5931 13.3021 41.7081 13.1824 41.8303C13.127 41.8863 13.0659 41.943 13.0273 42.0124C13.0072 42.0478 13.0024 42.0754 13 42.0652C13.0281 42.1842 13.143 42.3064 13.229 42.4128C13.3881 42.6106 13.5456 42.8116 13.683 43.0252C14.0582 43.6108 14.2759 44.2548 14.5363 44.8853C14.5451 44.9011 14.5507 44.9153 14.5555 44.9318C14.6367 45.1273 14.7227 45.3227 14.8199 45.5135C15.0658 45.9998 15.3743 46.5578 15.8564 46.8605Z" fill="#ECEADA"/>
<mask id="mask5_124_112" style="mask-type:luminance" maskUnits="userSpaceOnUse" x="10" y="44" width="12" height="8">
<path d="M10.493 44.7148H21.9576V51.2872H10.493V44.7148Z" fill="white"/>
</mask>
<g mask="url(#mask5_124_112)">
<path d="M21.7436 47.8431C21.7292 47.8305 21.6049 47.7551 21.5352 47.7189C21.2867 47.5917 21.0222 47.4982 20.752 47.4259C20.0947 47.2476 19.4165 47.1525 18.7376 47.0967C17.8839 47.0252 17.0213 46.993 16.1636 47.0221C16.0193 47.0268 15.9424 46.931 15.9287 46.8226C15.8574 46.7809 15.7885 46.7346 15.7219 46.6827C15.0983 46.2011 14.7528 45.5286 14.4602 44.8232C13.1423 45.4422 11.8237 46.0597 10.5059 46.6764C10.9483 46.7581 11.3884 46.8469 11.8269 46.9443C12.3047 47.0504 12.7848 47.1596 13.249 47.3143C13.5215 47.4055 13.8638 47.5013 14.0434 47.7378C14.2125 47.9593 14.0177 48.2084 13.9271 48.4354C13.7596 48.8565 13.5937 49.2776 13.4293 49.701C13.2458 50.1748 13.063 50.6493 12.8882 51.1254C12.8642 51.1898 12.8401 51.2558 12.8169 51.3202C13.2145 51.1756 13.6185 51.0468 14.0209 50.9172C15.2658 50.5173 16.5147 50.1268 17.7516 49.701C18.7103 49.3711 19.6747 49.0341 20.5925 48.6051C20.9075 48.4574 21.2282 48.3034 21.5111 48.1C21.5785 48.0505 21.7091 47.9326 21.7212 47.9146C21.7396 47.8902 21.7484 47.8737 21.754 47.8643C21.754 47.8603 21.7548 47.8556 21.7548 47.8501C21.7516 47.8501 21.7476 47.847 21.7436 47.8431Z" fill="#ECEADA"/>
</g>
<mask id="mask6_124_112" style="mask-type:luminance" maskUnits="userSpaceOnUse" x="24" y="14" width="15" height="13">
<path d="M24.0098 14.9494H38.5798V26.6142H24.0098V14.9494Z" fill="white"/>
</mask>
<g mask="url(#mask6_124_112)">
<mask id="mask7_124_112" style="mask-type:luminance" maskUnits="userSpaceOnUse" x="22" y="11" width="19" height="18">
<path d="M22.4963 15.9739L36.3994 11.5359L40.4507 23.7271L26.5476 28.165L22.4963 15.9739Z" fill="white"/>
</mask>
<g mask="url(#mask7_124_112)">
<mask id="mask8_124_112" style="mask-type:luminance" maskUnits="userSpaceOnUse" x="22" y="11" width="19" height="18">
<path d="M22.4963 15.9739L36.3994 11.5359L40.4507 23.7271L26.5476 28.165L22.4963 15.9739Z" fill="white"/>
</mask>
<g mask="url(#mask8_124_112)">
<path d="M32.3874 26.2623C32.2936 26.2741 31.9633 26.34 31.6539 26.4084C31.2242 26.5027 31.0976 26.5027 31.1176 26.4092C31.1713 26.1664 32.1421 24.2252 32.6254 23.3964C33.3196 22.2061 34.288 20.9523 35.2291 20.0245C35.5168 19.7409 35.5345 19.7024 35.3525 19.7582C35.0038 19.8658 34.0515 20.5964 33.3533 21.2917C32.4339 22.2069 31.5313 23.5118 30.8395 24.9244L30.2455 26.1366L30.0779 25.6322C29.7276 24.574 29.6539 23.3186 29.8823 22.3075C30.0731 21.4653 30.6759 20.3827 31.3004 19.7645C32.2118 18.8618 33.5184 18.3213 34.5661 17.5192C35.5842 16.7391 37.1714 15.7217 37.4936 15.0272C37.5569 14.8905 38.393 17.9725 38.4082 18.8736C38.4579 21.7395 37.2235 23.9738 34.8659 25.2873C34.32 25.5906 32.7232 26.2191 32.3866 26.2623H32.3874ZM28.9493 25.6361C27.7589 25.0163 26.5885 23.9856 25.7877 22.8527C25.3741 22.2666 25.2939 22.0907 24.8827 20.8643C24.4939 19.704 24.4258 19.4149 24.3865 18.7542C24.332 17.8593 24.5709 17.1484 24.4715 16.3533C24.4322 16.0399 24.2054 15.442 24.2054 15.442L25.3036 15.9707C26.9565 16.7658 28.7433 16.8506 29.8703 17.6669C30.3809 18.0361 31.2202 18.85 31.2819 19.0346C31.2956 19.077 31.0583 19.3607 30.7537 19.6639C30.4491 19.9679 30.0571 20.433 29.8831 20.6978C29.7084 20.9625 29.5545 21.1699 29.5401 21.1589C29.5256 21.1471 29.2779 20.8785 28.9894 20.5611C28.4555 19.9742 27.1833 18.9459 26.9901 18.9451C26.9316 18.9451 27.1432 19.246 27.4615 19.6136C27.7789 19.9813 28.3032 20.6624 28.6254 21.1267L29.2114 21.9705L29.1473 22.5424C29.0767 23.167 29.1577 24.6337 29.3044 25.391L29.3974 25.8695L28.9493 25.6361Z" fill="#FFDE59"/>
</g>
</g>
</g>
<mask id="mask9_124_112" style="mask-type:luminance" maskUnits="userSpaceOnUse" x="24" y="15" width="6" height="12">
<path d="M24.0098 15.3517H29.9609V26.0109H24.0098V15.3517Z" fill="white"/>
</mask>
<g mask="url(#mask9_124_112)">
<mask id="mask10_124_112" style="mask-type:luminance" maskUnits="userSpaceOnUse" x="22" y="11" width="19" height="18">
<path d="M22.4963 15.9739L36.3994 11.5359L40.4507 23.7271L26.5476 28.165L22.4963 15.9739Z" fill="white"/>
</mask>
<g mask="url(#mask10_124_112)">
<mask id="mask11_124_112" style="mask-type:luminance" maskUnits="userSpaceOnUse" x="22" y="11" width="19" height="18">
<path d="M22.4963 15.9739L36.3994 11.5359L40.4507 23.7271L26.5476 28.165L22.4963 15.9739Z" fill="white"/>
</mask>
<g mask="url(#mask11_124_112)">
<path d="M28.9493 25.6361C27.7589 25.0163 26.5885 23.9856 25.7877 22.8527C25.3741 22.2666 25.2939 22.0907 24.8827 20.8643C24.4939 19.704 24.4258 19.4149 24.3865 18.7542C24.332 17.8593 24.5709 17.1484 24.4715 16.3533C24.4322 16.0399 24.2054 15.442 24.2054 15.442L25.3036 15.9707C25.9593 16.2858 26.6358 16.4892 27.2835 16.6715C28.7625 17.3503 28.0563 18.9584 29.8831 20.6978C29.7084 20.9625 29.5545 21.1699 29.5401 21.1589C29.5256 21.1471 29.2779 20.8785 28.9894 20.5611C28.4555 19.9742 27.1833 18.9458 26.9901 18.9451C26.9316 18.9451 27.1432 19.246 27.4615 19.6136C27.7789 19.9813 28.3032 20.6624 28.6254 21.1267L29.2114 21.9705L29.1473 22.5424C29.0767 23.1669 29.1577 24.6337 29.3044 25.391L29.3974 25.8695L28.9493 25.6361Z" fill="#FFBD59"/>
</g>
</g>
</g>
<mask id="mask12_124_112" style="mask-type:luminance" maskUnits="userSpaceOnUse" x="24" y="15" width="6" height="12">
<path d="M24.0098 15.3517H29.5505V26.0109H24.0098V15.3517Z" fill="white"/>
</mask>
<g mask="url(#mask12_124_112)">
<mask id="mask13_124_112" style="mask-type:luminance" maskUnits="userSpaceOnUse" x="22" y="11" width="19" height="18">
<path d="M22.4963 15.9739L36.3994 11.5359L40.4507 23.7271L26.5476 28.165L22.4963 15.9739Z" fill="white"/>
</mask>
<g mask="url(#mask13_124_112)">
<mask id="mask14_124_112" style="mask-type:luminance" maskUnits="userSpaceOnUse" x="22" y="11" width="19" height="18">
<path d="M22.4963 15.9739L36.3994 11.5359L40.4507 23.7271L26.5476 28.165L22.4963 15.9739Z" fill="white"/>
</mask>
<g mask="url(#mask14_124_112)">
<path d="M28.9493 25.6361C27.7589 25.0163 26.5885 23.9856 25.7877 22.8527C24.9068 21.6193 24.4771 20.1824 24.3865 18.7542C24.332 17.8593 24.5709 17.1484 24.4715 16.3533C24.4322 16.0399 24.2054 15.442 24.2054 15.442C26.2831 18.5138 23.8542 20.0622 29.1296 23.5778C29.221 24.8788 29.2178 24.9574 29.3044 25.391L29.3974 25.8695L28.9493 25.6361Z" fill="#FF914D"/>
</g>
</g>
</g>
<mask id="mask15_124_112" style="mask-type:luminance" maskUnits="userSpaceOnUse" x="26" y="7" width="9" height="12">
<path d="M26 7H34.0033V18.2626H26V7Z" fill="white"/>
</mask>
<g mask="url(#mask15_124_112)">
<mask id="mask16_124_112" style="mask-type:luminance" maskUnits="userSpaceOnUse" x="18" y="3" width="19" height="18">
<path d="M18.9459 8.02444L32.849 3.58651L36.9003 15.7777L22.9972 20.2156L18.9459 8.02444Z" fill="white"/>
</mask>
<g mask="url(#mask16_124_112)">
<mask id="mask17_124_112" style="mask-type:luminance" maskUnits="userSpaceOnUse" x="18" y="3" width="19" height="18">
<path d="M18.9459 8.02444L32.849 3.58651L36.9003 15.7777L22.9972 20.2156L18.9459 8.02444Z" fill="white"/>
</mask>
<g mask="url(#mask17_124_112)">
<path d="M27.289 16.9749L26.695 18.1871L26.5275 17.6828C26.1772 16.6246 26.1034 15.3691 26.3319 14.3581C26.5227 13.5159 27.1255 12.4333 27.7499 11.815C28.6614 10.9124 29.968 10.3719 31.0157 9.56975C32.0337 8.78963 33.6209 7.77226 33.9431 7.07778C34.279 11.7655 27.071 11.0899 27.289 16.9749Z" fill="#FFBD59"/>
</g>
</g>
</g>
<mask id="mask18_124_112" style="mask-type:luminance" maskUnits="userSpaceOnUse" x="24" y="49" width="8" height="11">
<path d="M24.215 49.7427H31.8078V59.5448H24.215V49.7427Z" fill="white"/>
</mask>
<g mask="url(#mask18_124_112)">
<path d="M31.6002 59.467C31.496 59.544 31.3469 59.522 31.2691 59.4199L24.2366 50.13L24.6174 49.8527L31.6491 59.141C31.7269 59.2447 31.7052 59.3908 31.6002 59.467Z" fill="#FFD91D"/>
</g>
<path d="M24.8565 49.7568C25.084 50.2706 25.0153 50.6373 24.829 50.86C24.6427 51.0827 24.409 51.0776 24.1815 50.5646C23.9535 50.0508 24.005 49 24.005 49C24.005 49 24.6294 49.2438 24.8565 49.7568Z" fill="#FAB725"/>
<path d="M26.9949 50.2983C26.9144 50.8499 26.4402 51.0261 25.8929 50.997C25.3445 50.9684 24.9295 50.7453 25.01 50.1937C25.0905 49.6428 26.185 49 26.185 49C26.185 49 27.0753 49.7468 26.9949 50.2983Z" fill="#FFD91D"/>
<path d="M26 50.9606C26.0646 50.9797 26.1337 50.9918 26.2052 50.9969C26.5981 51.0263 26.9385 50.8489 26.9963 50.2939C27.0502 49.7796 26.5046 49.097 26.4248 49C26.4164 49.5672 26.0213 50.8732 26 50.9606Z" fill="#FAB725"/>
<mask id="mask19_124_112" style="mask-type:luminance" maskUnits="userSpaceOnUse" x="22" y="50" width="4" height="3">
<path d="M22.9468 50.7483H25.6515V52.3572H22.9468V50.7483Z" fill="white"/>
</mask>
<g mask="url(#mask19_124_112)">
<path d="M24.3705 52.2213C25.0551 52.3611 25.3709 52.0869 25.4559 51.6871C25.5409 51.2864 25.3621 50.9117 24.6783 50.7718C23.9937 50.632 22.9789 51.1811 22.9789 51.1811C22.9789 51.1811 23.6867 52.0814 24.3705 52.2213Z" fill="#FAB725"/>
</g>
<path d="M23.0585 51.0112C23.0371 51.0097 23.0176 51.0052 23 51C23.1008 51.1445 23.6133 51.8458 24.1109 51.9648C24.6663 52.098 24.9226 51.8368 24.9915 51.4558C24.9954 51.4371 24.998 51.4177 25 51.3974C24.3554 51.2463 23.7076 51.0711 23.0585 51.0112Z" fill="#FFD91D"/>
<path d="M26.9974 51.2984C26.9572 51.8494 26.7202 52.0256 26.4462 51.9971C26.1722 51.9685 25.9648 51.7454 26.005 51.1938C26.0452 50.6422 26.5922 50 26.5922 50C26.5922 50 27.0376 50.7468 26.9974 51.2984Z" fill="#FFD91D"/>
<path d="M26 51.9607C26.0646 51.9798 26.133 51.9913 26.2044 51.9971C26.5981 52.0258 26.9385 51.8484 26.9963 51.2939C27.0502 50.7797 26.5046 50.097 26.4248 50C26.4164 50.5672 26.0213 51.8733 26 51.9607Z" fill="#FAB725"/>
<path d="M25.1144 52.9755C25.6627 53.0681 25.9162 52.8866 25.9843 52.6217C26.0523 52.3564 25.9092 52.1077 25.3609 52.0151C24.8134 51.9225 24 52.2867 24 52.2867C24 52.2867 24.5668 52.8829 25.1144 52.9755Z" fill="#FAB725"/>
<path d="M24.0585 52.0112C24.0377 52.009 24.0182 52.0045 24 52C24.1014 52.1445 24.6138 52.8458 25.1105 52.9648C25.6658 53.098 25.9226 52.8368 25.9915 52.4558C25.9948 52.4364 25.9974 52.4177 26 52.3974C25.355 52.2463 24.7068 52.0711 24.0585 52.0112Z" fill="#FFD91D"/>
<path d="M27.9974 52.2984C27.9572 52.8494 27.7202 53.0256 27.4462 52.9971C27.1722 52.9679 26.9648 52.7454 27.005 52.1932C27.0452 51.6422 27.5922 51 27.5922 51C27.5922 51 28.0381 51.7468 27.9974 52.2984Z" fill="#FFD91D"/>
<path d="M27 52.9601C27.0646 52.9792 27.133 52.9913 27.2044 52.9971C27.5981 53.0258 27.9385 52.8484 27.9963 52.2935C28.0502 51.7794 27.5046 51.0976 27.4248 51C27.4164 51.567 27.0213 52.8727 27 52.9601Z" fill="#FAB725"/>
<path d="M25.6717 53.9755C26.494 54.0681 26.8744 53.8866 26.9764 53.6217C27.0785 53.3564 26.8638 53.1077 26.0414 53.0151C25.2191 52.9225 24 53.2862 24 53.2862C24 53.2862 24.8503 53.8829 25.6717 53.9755Z" fill="#FAB725"/>
<path d="M24.0878 53.012C24.0556 53.0097 24.0273 53.0052 24 53C24.1521 53.1451 24.9207 53.8459 25.6658 53.9648C26.4987 54.098 26.8839 53.8369 26.9873 53.4555C26.9922 53.4368 26.9961 53.4173 27 53.3979C26.0315 53.2468 25.0601 53.0711 24.0878 53.012Z" fill="#FFD91D"/>
<path d="M28.9949 53.2983C28.9145 53.8499 28.4405 54.0261 27.8924 53.997C27.3443 53.9684 26.9296 53.7453 27.01 53.1937C27.0904 52.6428 28.1844 52 28.1844 52C28.1844 52 29.0753 52.7474 28.9949 53.2983Z" fill="#FFD91D"/>
<path d="M28 53.9606C28.0638 53.9797 28.133 53.9918 28.2044 53.9969C28.5981 54.0263 28.9385 53.8489 28.9963 53.2939C29.0502 52.7796 28.5046 52.097 28.4248 52C28.4164 52.5678 28.0205 53.8738 28 53.9606Z" fill="#FAB725"/>
<path d="M26.6717 54.9755C27.494 55.0682 27.8744 54.8865 27.9764 54.6215C28.0785 54.3561 27.8638 54.1078 27.0414 54.0151C26.2191 53.9224 25 54.2863 25 54.2863C25 54.2863 25.8512 54.8829 26.6717 54.9755Z" fill="#FAB725"/>
<path d="M25.0878 54.0112C25.0556 54.0097 25.0273 54.0052 25 54C25.1521 54.1445 25.9207 54.8458 26.6658 54.9648C27.4987 55.098 27.8839 54.8368 27.9873 54.4558C27.9922 54.4364 27.9961 54.4177 28 54.3974C27.0325 54.2463 26.0611 54.0711 25.0878 54.0112Z" fill="#FFD91D"/>
<path d="M28.9974 54.2984C28.9571 54.8494 28.7206 55.0256 28.4464 54.9971C28.1722 54.9685 27.9648 54.7454 28.005 54.1938C28.0452 53.6422 28.5925 53 28.5925 53C28.5925 53 29.0381 53.7462 28.9974 54.2984Z" fill="#FFD91D"/>
<path d="M28 54.9607C28.0639 54.9798 28.1331 54.9913 28.2046 54.9971C28.5985 55.0258 28.9384 54.8484 28.9962 54.2939C29.0502 53.7797 28.505 53.097 28.4244 53C28.416 53.5672 28.0205 54.8733 28 54.9607Z" fill="#FAB725"/>
<path d="M27.1144 55.9511C27.6627 56.1363 27.9162 55.7731 27.9843 55.2435C28.0523 54.7128 27.9092 54.2154 27.3609 54.0302C26.8127 53.845 26 54.5723 26 54.5723C26 54.5723 26.5668 55.7658 27.1144 55.9511Z" fill="#FAB725"/>
<path d="M26.0585 55.0112C26.0371 55.009 26.0176 55.0045 26 55C26.1015 55.1445 26.6133 55.8458 27.1109 55.9648C27.6663 56.098 27.9233 55.8368 27.9922 55.4558C27.9954 55.4364 27.998 55.4169 28 55.3974C27.3554 55.2463 26.7076 55.0711 26.0585 55.0112Z" fill="#FFD91D"/>
<path d="M29.9974 55.2978C29.9572 55.8494 29.7206 56.0256 29.4464 55.9971C29.1723 55.9679 28.9648 55.7454 29.005 55.1932C29.0452 54.6422 29.5925 54 29.5925 54C29.5925 54 30.0377 54.7468 29.9974 55.2978Z" fill="#FFD91D"/>
<path d="M29 55.9601C29.0639 55.9792 29.1331 55.9913 29.2046 55.9971C29.5985 56.0258 29.9384 55.8484 29.9962 55.2935C30.0502 54.7794 29.505 54.0976 29.4244 54C29.416 54.5677 29.0213 55.8733 29 55.9601Z" fill="#FAB725"/>
<path d="M28.1148 56.9511C28.6632 57.1363 28.9162 56.7731 28.9843 56.2424C29.0524 55.7118 28.9091 55.2154 28.3614 55.0302C27.813 54.845 27 55.5723 27 55.5723C27 55.5723 27.5664 56.7658 28.1148 56.9511Z" fill="#FAB725"/>
<path d="M27.0585 56.0112C27.0371 56.0097 27.0176 56.0052 27 56C27.1008 56.1444 27.6133 56.8452 28.1109 56.9649C28.6663 57.098 28.9226 56.8362 28.9915 56.4555C28.9954 56.4368 28.998 56.4174 29 56.3972C28.3554 56.2468 27.707 56.0711 27.0585 56.0112Z" fill="#FFD91D"/>
<mask id="mask20_124_112" style="mask-type:luminance" maskUnits="userSpaceOnUse" x="31" y="49" width="8" height="11">
<path d="M31.1921 49.7427H38.785V59.5448H31.1921V49.7427Z" fill="white"/>
</mask>
<g mask="url(#mask20_124_112)">
<path d="M31.3813 59.4662C31.4863 59.5424 31.6346 59.5212 31.7132 59.4183L38.7449 50.1292L38.3649 49.8519L31.3324 59.1402C31.2546 59.2439 31.2763 59.3892 31.3813 59.4662Z" fill="#FFD91D"/>
</g>
<path d="M38.1435 49.7567C37.916 50.2704 37.9847 50.6372 38.1709 50.8598C38.3576 51.0825 38.5908 51.0781 38.8187 50.5644C39.0457 50.0507 38.9952 49 38.9952 49C38.9952 49 38.3714 49.243 38.1435 49.7567Z" fill="#FAB725"/>
<path d="M36.0053 50.2981C36.0857 50.8498 36.5596 51.0261 37.1077 50.997C37.6546 50.9684 38.0704 50.7452 37.99 50.1935C37.9096 49.6424 36.8157 49 36.8157 49C36.8157 49 35.9238 49.7464 36.0053 50.2981Z" fill="#FFD91D"/>
<path d="M37 50.9606C36.9354 50.9797 36.867 50.9918 36.7956 50.9969C36.4019 51.0263 36.0615 50.8489 36.0037 50.2939C35.9498 49.7796 36.4954 49.0976 36.5752 49C36.5836 49.5672 36.9787 50.8732 37 50.9606Z" fill="#FAB725"/>
<path d="M38.8849 51.9756C38.3373 52.0682 38.0838 51.8861 38.0157 51.6212C37.9477 51.3559 38.0908 51.1077 38.6391 51.0151C39.1866 50.9225 40 51.2862 40 51.2862C40 51.2862 39.4332 51.883 38.8849 51.9756Z" fill="#FAB725"/>
<path d="M39.9415 51.0112C39.9623 51.0097 39.9818 51.0052 40 51C39.8986 51.1444 39.3862 51.8452 38.8888 51.9649C38.3342 52.098 38.0774 51.8362 38.0085 51.4555C38.0052 51.4368 38.0026 51.4174 38 51.3972C38.645 51.2468 39.2932 51.0711 39.9415 51.0112Z" fill="#FFD91D"/>
<path d="M36.0026 51.2984C36.0429 51.8494 36.2794 52.0256 36.5536 51.9971C36.8278 51.9685 37.0352 51.7454 36.995 51.1938C36.9548 50.6422 36.4075 50 36.4075 50C36.4075 50 35.9619 50.7468 36.0026 51.2984Z" fill="#FFD91D"/>
<path d="M37 51.9607C36.9361 51.9798 36.8669 51.992 36.7954 51.9971C36.4015 52.0258 36.0616 51.8484 36.0038 51.2939C35.9498 50.7797 36.495 50.097 36.5749 50C36.584 50.5672 36.9795 51.8733 37 51.9607Z" fill="#FAB725"/>
<path d="M37.8856 52.9755C37.3373 53.0682 37.0838 52.8865 37.0157 52.6215C36.9477 52.3561 37.0908 52.1078 37.6391 52.0151C38.1873 51.9224 39 52.2863 39 52.2863C39 52.2863 38.4332 52.8829 37.8856 52.9755Z" fill="#FAB725"/>
<path d="M38.9415 52.0112C38.9629 52.0097 38.9824 52.0052 39 52C38.8985 52.1445 38.3867 52.8458 37.8891 52.9648C37.3337 53.098 37.0767 52.8368 37.0078 52.4558C37.0046 52.4364 37.002 52.4177 37 52.3974C37.6446 52.2463 38.2924 52.0711 38.9415 52.0112Z" fill="#FFD91D"/>
<path d="M35.0026 52.2984C35.0428 52.8494 35.2794 53.0256 35.5536 52.9971C35.8277 52.9685 36.0352 52.7454 35.995 52.1938C35.9548 51.6422 35.4075 51 35.4075 51C35.4075 51 34.9623 51.7468 35.0026 52.2984Z" fill="#FFD91D"/>
<path d="M36 52.9607C35.9361 52.9792 35.8669 52.9913 35.7954 52.9971C35.4015 53.0258 35.0616 52.8484 35.0038 52.2939C34.9498 51.7797 35.495 51.097 35.5749 51C35.584 51.5679 35.9787 52.8733 36 52.9607Z" fill="#FAB725"/>
<path d="M37.3278 53.9755C36.5052 54.0681 36.1247 53.8866 36.0236 53.6217C35.9215 53.3564 36.1363 53.1077 36.9579 53.0151C37.7805 52.9225 39 53.2862 39 53.2862C39 53.2862 38.1504 53.8829 37.3278 53.9755Z" fill="#FAB725"/>
<path d="M38.9122 53.012C38.9444 53.0097 38.9737 53.0052 39 53C38.8488 53.1451 38.08 53.8459 37.3337 53.9648C36.5005 54.098 36.1151 53.8369 36.0127 53.4562C36.0068 53.4368 36.0029 53.4173 36 53.3979C36.9668 53.2468 37.9395 53.0711 38.9122 53.012Z" fill="#FFD91D"/>
<path d="M34.0053 53.2981C34.0857 53.8498 34.5589 54.0261 35.1072 53.997C35.6555 53.9684 36.0704 53.7452 35.99 53.1935C35.9096 52.6424 34.815 52 34.815 52C34.815 52 33.9238 52.747 34.0053 53.2981Z" fill="#FFD91D"/>
<path d="M35 53.9606C34.9361 53.9797 34.8669 53.9918 34.7954 53.9969C34.4015 54.0263 34.0615 53.8489 34.0037 53.2939C33.9498 52.7796 34.4958 52.0976 34.5756 52C34.584 52.5678 34.9787 53.8732 35 53.9606Z" fill="#FAB725"/>
<path d="M36.3278 54.9756C35.5052 55.0682 35.1257 54.8861 35.0236 54.6212C34.9215 54.3559 35.1363 54.1077 35.9579 54.0151C36.7805 53.9225 38 54.2862 38 54.2862C38 54.2862 37.1504 54.883 36.3278 54.9756Z" fill="#FAB725"/>
<path d="M37.9132 54.0112C37.9444 54.0097 37.9737 54.0052 38 54C37.8488 54.1444 37.08 54.8452 36.3337 54.9649C35.5005 55.098 35.1161 54.8362 35.0127 54.4555C35.0078 54.4368 35.0029 54.4174 35 54.3972C35.9678 54.2468 36.9395 54.0718 37.9132 54.0112Z" fill="#FFD91D"/>
<path d="M34.0026 54.2984C34.0428 54.8494 34.2799 55.0256 34.5535 54.9971C34.8276 54.9685 35.0356 54.7454 34.9949 54.1938C34.9547 53.6422 34.4074 53 34.4074 53C34.4074 53 33.9623 53.7468 34.0026 54.2984Z" fill="#FFD91D"/>
<path d="M35 54.9607C34.9354 54.9798 34.8663 54.9913 34.7948 54.9971C34.4019 55.0258 34.0615 54.8484 34.0037 54.2939C33.9498 53.7797 34.4954 53.097 34.5752 53C34.5836 53.5672 34.9787 54.8733 35 54.9607Z" fill="#FAB725"/>
<path d="M35.8852 55.9511C35.3368 56.1363 35.0838 55.7731 35.0157 55.2435C34.9476 54.7128 35.0909 54.2154 35.6386 54.0302C36.187 53.8449 37 54.5733 37 54.5733C37 54.5733 36.433 55.7658 35.8852 55.9511Z" fill="#FAB725"/>
<path d="M36.9421 55.0112C36.9629 55.009 36.9824 55.0045 37 55C36.8992 55.1445 36.3867 55.8458 35.8891 55.9648C35.3337 56.098 35.0774 55.8368 35.0085 55.4558C35.0052 55.4364 35.002 55.4177 35 55.3974C35.6446 55.2463 36.2924 55.0711 36.9421 55.0112Z" fill="#FFD91D"/>
<path d="M33.0026 55.2984C33.0428 55.8494 33.2798 56.0256 33.5538 55.9971C33.8273 55.9679 34.0352 55.7454 33.995 55.1932C33.9548 54.6422 33.4078 54 33.4078 54C33.4078 54 32.9624 54.7468 33.0026 55.2984Z" fill="#FFD91D"/>
<path d="M34 55.96C33.9354 55.9792 33.867 55.9913 33.7956 55.9971C33.4019 56.0258 33.0615 55.8484 33.0037 55.2939C32.9498 54.7797 33.4954 54.097 33.5752 54C33.5843 54.5679 33.9787 55.8733 34 55.96Z" fill="#FAB725"/>
<path d="M34.8849 56.9511C34.3373 57.1363 34.0838 56.7731 34.0157 56.2435C33.9477 55.7128 34.0908 55.2154 34.6391 55.0302C35.1866 54.845 36 55.5723 36 55.5723C36 55.5723 35.4332 56.7658 34.8849 56.9511Z" fill="#FAB725"/>
<path d="M35.9421 56.012C35.9629 56.0097 35.9824 56.0052 36 56C35.8992 56.1451 35.3867 56.8459 34.8891 56.9648C34.3343 57.098 34.0774 56.8369 34.0085 56.4555C34.0052 56.4368 34.002 56.4173 34 56.3979C34.6446 56.2468 35.293 56.0711 35.9421 56.012Z" fill="#FFD91D"/>
<mask id="mask21_124_112" style="mask-type:luminance" maskUnits="userSpaceOnUse" x="30" y="44" width="2" height="16">
<path d="M30.987 44.5136H31.8078V59.5448H30.987V44.5136Z" fill="white"/>
</mask>
<g mask="url(#mask21_124_112)">
<path d="M31.4872 59.4984C31.3213 59.4984 31.1858 59.3664 31.1858 59.203V44.5325H31.787V59.2038C31.787 59.3664 31.6523 59.4984 31.4872 59.4984Z" fill="#FFD91D"/>
</g>
<mask id="mask22_124_112" style="mask-type:luminance" maskUnits="userSpaceOnUse" x="30" y="42" width="3" height="4">
<path d="M30.5765 42.6509H32.6287V45.9214H30.5765V42.6509Z" fill="white"/>
</mask>
<g mask="url(#mask22_124_112)">
<path d="M32.5108 44.6205C32.502 45.4894 32.0708 45.8013 31.5425 45.7958C31.0142 45.7903 30.5886 45.4713 30.5974 44.6024C30.6062 43.7327 31.5738 42.647 31.5738 42.647C31.5738 42.647 32.5188 43.7508 32.5108 44.6205Z" fill="#FAB725"/>
</g>
<path d="M33.2493 46.6092C32.5309 47.1087 31.8791 47.0755 31.3975 46.8103C30.915 46.5451 30.7848 46.1495 31.5032 45.6493C32.2216 45.1498 34 45 34 45C34 45 33.9677 46.109 33.2493 46.6092Z" fill="#FFD91D"/>
<path d="M32 46.6485C32.0436 46.7058 32.0976 46.7594 32.1593 46.8088C32.5007 47.0758 32.9612 47.11 33.4695 46.6058C33.9404 46.1382 33.9945 45.1433 34 45C33.527 45.5468 32.0907 46.5765 32 46.6485Z" fill="#FAB725"/>
<path d="M29.7507 46.6092C30.4691 47.1087 31.1199 47.0755 31.6025 46.8103C32.085 46.5451 32.2152 46.1495 31.4968 45.6493C30.7784 45.1498 29 45 29 45C29 45 29.0323 46.109 29.7507 46.6092Z" fill="#FAB725"/>
<path d="M29.0579 45.0516C29.0359 45.035 29.0161 45.0172 29 45C29.0095 45.193 29.0784 46.1466 29.5609 46.6022C30.099 47.1106 30.5865 47.0768 30.9479 46.8069C30.9655 46.7928 30.9831 46.7786 31 46.7639C30.3724 46.1767 29.7588 45.5662 29.0579 45.0516Z" fill="#FFD91D"/>
<path d="M33.2493 48.4135C32.5309 49.1636 31.8801 49.1129 31.3975 48.7152C30.915 48.3184 30.7848 47.725 31.5032 46.9748C32.2216 46.2256 34 46 34 46C34 46 33.9677 47.6643 33.2493 48.4135Z" fill="#FFD91D"/>
<path d="M32 48.4724C32.0436 48.5593 32.0976 48.6398 32.16 48.7129C32.5014 49.1134 32.9612 49.1655 33.4695 48.4084C33.9411 47.708 33.9945 46.2158 34 46C33.527 46.8202 32.0907 48.3655 32 48.4724Z" fill="#FAB725"/>
<path d="M29.7507 48.4135C30.4691 49.1636 31.1199 49.1129 31.6025 48.7152C32.085 48.3184 32.2152 47.725 31.4968 46.9748C30.7784 46.2256 29 46 29 46C29 46 29.0313 47.6643 29.7507 48.4135Z" fill="#FAB725"/>
<path d="M29.0579 46.0766C29.0359 46.0517 29.0161 46.0258 29 46C29.0095 46.2896 29.0784 47.7194 29.5609 48.4029C30.099 49.1666 30.5865 49.1149 30.9479 48.71C30.9655 48.6897 30.9831 48.6685 31 48.6464C30.3717 47.7646 29.7581 46.8486 29.0579 46.0766Z" fill="#FFD91D"/>
<path d="M33.2493 49.6092C32.5309 50.1087 31.8801 50.0755 31.3975 49.8103C30.915 49.5457 30.7848 49.1495 31.5032 48.6499C32.2216 48.1498 34 48 34 48C34 48 33.9677 49.109 33.2493 49.6092Z" fill="#FFD91D"/>
<path d="M32 49.6485C32.0436 49.7058 32.0976 49.7594 32.16 49.8088C32.5014 50.0758 32.9612 50.1099 33.4695 49.6058C33.9411 49.1382 33.9945 48.1433 34 48C33.527 48.5468 32.0907 49.5765 32 49.6485Z" fill="#FAB725"/>
<path d="M29.7507 49.6092C30.4691 50.1087 31.1199 50.0755 31.6025 49.8103C32.085 49.5457 32.2152 49.1495 31.4968 48.6499C30.7784 48.1498 29 48 29 48C29 48 29.0313 49.109 29.7507 49.6092Z" fill="#FAB725"/>
<path d="M29.0579 48.0516C29.0359 48.035 29.0161 48.0172 29 48C29.0095 48.193 29.0784 49.1466 29.5609 49.6022C30.099 50.1106 30.5865 50.0768 30.9479 49.8069C30.9655 49.7928 30.9831 49.7786 31 49.7639C30.3717 49.1767 29.7581 48.5662 29.0579 48.0516Z" fill="#FFD91D"/>
<path d="M33.2493 51.4135C32.5309 52.1636 31.8801 52.1129 31.3975 51.7152C30.915 51.3184 30.7848 50.725 31.5032 49.9748C32.2216 49.2256 34 49 34 49C34 49 33.9677 50.6643 33.2493 51.4135Z" fill="#FFD91D"/>
<path d="M32 51.4724C32.0436 51.5593 32.0976 51.6398 32.16 51.7129C32.5014 52.1134 32.9612 52.1655 33.4695 51.4084C33.9411 50.708 33.9945 49.2158 34 49C33.527 49.8202 32.0907 51.3645 32 51.4724Z" fill="#FAB725"/>
<path d="M29.7507 51.4135C30.4691 52.1636 31.1199 52.1129 31.6025 51.7152C32.085 51.3184 32.2152 50.725 31.4968 49.9748C30.7784 49.2256 29 49 29 49C29 49 29.0313 50.6643 29.7507 51.4135Z" fill="#FAB725"/>
<path d="M29.0579 49.0766C29.0359 49.0517 29.0161 49.0258 29 49C29.0095 49.2896 29.0784 50.7194 29.5609 51.4029C30.099 52.1666 30.5865 52.1149 30.9479 51.71C30.9655 51.6897 30.9831 51.6685 31 51.6464C30.3717 50.7646 29.7581 49.8477 29.0579 49.0766Z" fill="#FFD91D"/>
<path d="M33.2493 52.6092C32.5309 53.1087 31.8801 53.0755 31.3975 52.8103C30.915 52.5457 30.7848 52.1495 31.5032 51.6499C32.2216 51.1498 34 51 34 51C34 51 33.9677 52.109 33.2493 52.6092Z" fill="#FFD91D"/>
<path d="M32 52.6485C32.0436 52.7058 32.0976 52.7594 32.16 52.8088C32.5014 53.0758 32.9612 53.1099 33.4695 52.6058C33.9411 52.1382 33.9945 51.1433 34 51C33.527 51.5468 32.0907 52.5771 32 52.6485Z" fill="#FAB725"/>
<path d="M29.7507 52.6092C30.4691 53.1087 31.1199 53.0755 31.6025 52.8103C32.085 52.5457 32.2152 52.1495 31.4968 51.6499C30.7784 51.1498 29 51 29 51C29 51 29.0313 52.109 29.7507 52.6092Z" fill="#FAB725"/>
<path d="M29.0579 51.0516C29.0359 51.035 29.0161 51.0172 29 51C29.0095 51.193 29.0784 52.1466 29.5609 52.6022C30.099 53.1106 30.5865 53.0768 30.9479 52.8069C30.9655 52.7928 30.9831 52.7786 31 52.7639C30.3717 52.1767 29.7581 51.5662 29.0579 51.0516Z" fill="#FFD91D"/>
<path d="M33.2493 54.4133C32.5309 55.1637 31.8801 55.1129 31.3975 54.7151C30.915 54.3182 30.7848 53.7246 31.5032 52.9742C32.2216 52.2247 34 52 34 52C34 52 33.9677 53.6639 33.2493 54.4133Z" fill="#FFD91D"/>
<path d="M32 54.4724C32.0436 54.5593 32.0976 54.6398 32.16 54.7129C32.5014 55.1134 32.9612 55.1655 33.4695 54.4084C33.9411 53.708 33.9945 52.2158 34 52C33.527 52.8202 32.0907 54.3645 32 54.4724Z" fill="#FAB725"/>
<path d="M29.7507 54.4133C30.4691 55.1637 31.1199 55.1129 31.6025 54.7151C32.085 54.3182 32.2152 53.7246 31.4968 52.9742C30.7784 52.2247 29 52 29 52C29 52 29.0313 53.6639 29.7507 54.4133Z" fill="#FAB725"/>
<path d="M29.0579 52.0775C29.0359 52.0517 29.0161 52.0258 29 52C29.0095 52.2896 29.0784 53.7194 29.5609 54.4029C30.099 55.1666 30.5865 55.1149 30.9479 54.71C30.9655 54.6897 30.9831 54.6685 31 54.6464C30.3717 53.7646 29.7581 52.8486 29.0579 52.0775Z" fill="#FFD91D"/>
<path d="M24.3356 40.5789L24.6595 41.5908L23.5821 41.8831L22.2098 40.447L22.152 40.4627L22.2995 41.0063L22.6555 42.1313L21.7577 42.3733L21.5492 41.4368L20.8791 39.2371L21.9565 38.9449L23.3288 40.3778L23.3865 40.3621L22.8959 38.728L23.7905 38.4295L24.3356 40.5789Z" fill="#3B523A"/>
<path d="M27.4249 37.9116L27.4858 38.6469L26.8125 38.7223L26.7516 38.7317L26.9536 40.1396L27.162 41.1766L26.1488 41.3337L26.0494 40.3815L25.78 38.8826L25.7127 38.892L25.0457 39.024L24.972 38.9643L24.9111 38.2321L27.3576 37.855L27.4249 37.9116Z" fill="#3B523A"/>
<path d="M29.7015 37.6149C30.0262 37.5961 30.3508 37.6362 30.6763 37.7344L30.5609 38.5577L30.423 38.63C30.2731 38.5506 30.1256 38.4901 29.9805 38.4477C29.837 38.4061 29.7224 38.3872 29.6374 38.3911C29.5605 38.3958 29.4995 38.4147 29.4546 38.4477C29.4097 38.4815 29.3881 38.5231 29.3905 38.5734C29.3945 38.6362 29.433 38.6889 29.5059 38.7305C29.5805 38.7706 29.7023 38.8232 29.8715 38.8876C30.0655 38.9615 30.2274 39.0306 30.3556 39.095C30.4839 39.1579 30.5969 39.2506 30.6955 39.3716C30.7957 39.491 30.851 39.6434 30.8623 39.8272C30.8751 40.0307 30.8286 40.2192 30.7244 40.3929C30.6218 40.5649 30.4663 40.7055 30.2595 40.814C30.0518 40.9232 29.8081 40.986 29.5284 41.0025C29.1821 41.0229 28.8142 40.9805 28.4254 40.8737L28.5184 39.9969L28.6178 39.9309C28.7821 40.0362 28.9552 40.1179 29.1372 40.176C29.3208 40.2326 29.4723 40.2577 29.5925 40.2515C29.6887 40.2452 29.7568 40.2255 29.7977 40.1918C29.8378 40.1588 29.857 40.1187 29.8554 40.0723C29.8506 40.0032 29.8106 39.9466 29.7336 39.9026C29.6566 39.8587 29.5332 39.8068 29.3649 39.7455C29.1741 39.6764 29.0162 39.6096 28.8903 39.5444C28.7637 39.48 28.653 39.3873 28.5568 39.2679C28.4606 39.1469 28.4069 38.9937 28.3965 38.8091C28.3837 38.5977 28.4294 38.4037 28.5344 38.2277C28.641 38.0517 28.7949 37.9103 28.9961 37.8035C29.1989 37.6951 29.4338 37.6322 29.7015 37.6149Z" fill="#3B523A"/>
<path d="M33.3199 37.6089C33.8008 37.6324 34.1664 37.7903 34.4165 38.0834C34.6666 38.3748 34.7788 38.7747 34.7531 39.2838C34.7251 39.8455 34.5584 40.2737 34.2529 40.5691C33.9491 40.8621 33.5323 40.9964 33.0024 40.9713C32.5231 40.9477 32.1591 40.789 31.909 40.4936C31.6589 40.1982 31.5467 39.7921 31.5724 39.2744C31.5996 38.7174 31.7656 38.2939 32.0694 38.0048C32.3748 37.7157 32.7916 37.5837 33.3199 37.6089ZM33.1884 38.4102C33.0537 38.4039 32.9511 38.422 32.8806 38.4636C32.8117 38.506 32.7595 38.583 32.7235 38.6962C32.689 38.8093 32.6666 38.975 32.6561 39.1927C32.6433 39.4676 32.6481 39.6782 32.6722 39.8243C32.6954 39.9688 32.7427 40.0718 32.8133 40.1323C32.8838 40.1912 32.9904 40.225 33.1339 40.2328C33.2662 40.2391 33.368 40.2218 33.4385 40.1794C33.5091 40.1378 33.5612 40.06 33.5956 39.9469C33.6317 39.8322 33.6549 39.6664 33.6662 39.4503C33.679 39.1762 33.6734 38.9664 33.6501 38.8219C33.6261 38.6757 33.5796 38.572 33.5091 38.5108C33.4385 38.4503 33.3311 38.4165 33.1884 38.4102Z" fill="#3B523A"/>
<path d="M36.8243 38.8009L36.7185 39.376L37.0648 39.4294L37.6548 39.5017L37.6997 39.5803L37.5233 40.2967L36.8724 40.1836L36.5774 40.1365L36.5678 40.2025L36.446 41.252L35.4263 41.1012L35.6251 40.1648L35.9297 37.8865L38.1197 38.2133L38.1678 38.2919L37.9851 39.0083L37.1802 38.8544L36.8243 38.8009Z" fill="#3B523A"/>
<path d="M41.2831 39.0306L41.0459 39.7283L40.395 39.5397L40.3372 39.524L39.9589 40.9004L39.7376 41.9343L38.7404 41.6892L39.029 40.7747L39.3817 39.2915L39.3176 39.2758L38.6475 39.1406L38.6058 39.0558L38.8398 38.3582L41.2447 38.9489L41.2831 39.0306Z" fill="#3B523A"/>
<path d="M4 38L16 38" stroke="#FFDE59" stroke-width="5" stroke-linecap="round"/>
</svg>
