<svg xmlns="http://www.w3.org/2000/svg" xmlns:xlink="http://www.w3.org/1999/xlink" width="500" zoomAndPan="magnify" viewBox="0 0 375 374.999991" height="500" preserveAspectRatio="xMidYMid meet" version="1.0"><defs><g/><clipPath id="9afc23d8c4"><path d="M 34 32.667969 L 341 32.667969 L 341 342.417969 L 34 342.417969 Z M 34 32.667969 " clip-rule="nonzero"/></clipPath><clipPath id="474b68b703"><path d="M 41.761719 41.761719 L 333.511719 41.761719 L 333.511719 333.511719 L 41.761719 333.511719 Z M 41.761719 41.761719 " clip-rule="nonzero"/></clipPath><clipPath id="1b6c385381"><path d="M 52.320312 52.320312 L 322.320312 52.320312 L 322.320312 322.320312 L 52.320312 322.320312 Z M 52.320312 52.320312 " clip-rule="nonzero"/></clipPath><clipPath id="b527abacb4"><path d="M 68.132812 61.121094 L 306.632812 61.121094 L 306.632812 148.871094 L 68.132812 148.871094 Z M 68.132812 61.121094 " clip-rule="nonzero"/></clipPath><clipPath id="0f0e7705c2"><path d="M 232 255 L 289.882812 255 L 289.882812 287.679688 L 232 287.679688 Z M 232 255 " clip-rule="nonzero"/></clipPath><clipPath id="e579029194"><path d="M 85.132812 255 L 141 255 L 141 287.679688 L 85.132812 287.679688 Z M 85.132812 255 " clip-rule="nonzero"/></clipPath><clipPath id="c06bd22711"><path d="M 151 107 L 222 107 L 222 165 L 151 165 Z M 151 107 " clip-rule="nonzero"/></clipPath><clipPath id="15be3efc61"><path d="M 143.625 112.09375 L 211.375 90.027344 L 231.117188 150.644531 L 163.367188 172.710938 Z M 143.625 112.09375 " clip-rule="nonzero"/></clipPath><clipPath id="a503c68a1b"><path d="M 143.625 112.09375 L 211.375 90.027344 L 231.117188 150.644531 L 163.367188 172.710938 Z M 143.625 112.09375 " clip-rule="nonzero"/></clipPath><clipPath id="3300f56c63"><path d="M 151 109 L 180 109 L 180 162 L 151 162 Z M 151 109 " clip-rule="nonzero"/></clipPath><clipPath id="73f6540d08"><path d="M 143.625 112.09375 L 211.375 90.027344 L 231.117188 150.644531 L 163.367188 172.710938 Z M 143.625 112.09375 " clip-rule="nonzero"/></clipPath><clipPath id="a82e32e7f8"><path d="M 143.625 112.09375 L 211.375 90.027344 L 231.117188 150.644531 L 163.367188 172.710938 Z M 143.625 112.09375 " clip-rule="nonzero"/></clipPath><clipPath id="27a78ee113"><path d="M 151 109 L 178 109 L 178 162 L 151 162 Z M 151 109 " clip-rule="nonzero"/></clipPath><clipPath id="fc844b5b64"><path d="M 143.625 112.09375 L 211.375 90.027344 L 231.117188 150.644531 L 163.367188 172.710938 Z M 143.625 112.09375 " clip-rule="nonzero"/></clipPath><clipPath id="4d9cf96427"><path d="M 143.625 112.09375 L 211.375 90.027344 L 231.117188 150.644531 L 163.367188 172.710938 Z M 143.625 112.09375 " clip-rule="nonzero"/></clipPath><clipPath id="692ef0d066"><path d="M 178 107 L 217 107 L 217 163 L 178 163 Z M 178 107 " clip-rule="nonzero"/></clipPath><clipPath id="d67b62bc74"><path d="M 143.625 112.09375 L 211.375 90.027344 L 231.117188 150.644531 L 163.367188 172.710938 Z M 143.625 112.09375 " clip-rule="nonzero"/></clipPath><clipPath id="66ca61ba19"><path d="M 143.625 112.09375 L 211.375 90.027344 L 231.117188 150.644531 L 163.367188 172.710938 Z M 143.625 112.09375 " clip-rule="nonzero"/></clipPath><clipPath id="737007e428"><path d="M 152 280 L 189 280 L 189 328.738281 L 152 328.738281 Z M 152 280 " clip-rule="nonzero"/></clipPath><clipPath id="8de249ec4f"><path d="M 145.820312 285 L 159 285 L 159 293 L 145.820312 293 Z M 145.820312 285 " clip-rule="nonzero"/></clipPath><clipPath id="435d35c32a"><path d="M 186 280 L 223 280 L 223 328.738281 L 186 328.738281 Z M 186 280 " clip-rule="nonzero"/></clipPath><clipPath id="fbd91c42ab"><path d="M 185 254 L 189 254 L 189 328.738281 L 185 328.738281 Z M 185 254 " clip-rule="nonzero"/></clipPath><clipPath id="47dad2ff7b"><path d="M 183 244.738281 L 193 244.738281 L 193 261 L 183 261 Z M 183 244.738281 " clip-rule="nonzero"/></clipPath></defs><rect x="-37.5" width="450" fill="#ffffff" y="-37.499999" height="449.999989" fill-opacity="1"/><rect x="-37.5" width="450" fill="#447641" y="-37.499999" height="449.999989" fill-opacity="1"/><path fill="#4d6d4b" d="M 330.085938 187.523438 C 330.085938 180.4375 337.292969 172.933594 336.339844 166.144531 C 335.324219 159.175781 326.332031 153.992188 324.367188 147.382812 C 322.402344 140.652344 327.167969 131.417969 324.308594 125.105469 C 321.390625 118.734375 311.261719 116.289062 307.511719 110.453125 C 303.699219 104.558594 305.722656 94.371094 301.136719 89.070312 C 296.550781 83.832031 286.1875 84.304688 280.886719 79.78125 C 275.644531 75.195312 274.691406 64.832031 268.796875 61.078125 C 262.960938 57.324219 253.132812 60.71875 246.757812 57.800781 C 240.445312 54.941406 236.632812 45.234375 229.902344 43.269531 C 223.292969 41.304688 214.835938 47.378906 207.867188 46.367188 C 201.015625 45.414062 194.585938 37.195312 187.496094 37.195312 C 180.410156 37.195312 173.976562 45.414062 167.1875 46.367188 C 160.21875 47.378906 151.761719 41.304688 145.148438 43.269531 C 138.417969 45.234375 134.546875 54.941406 128.292969 57.800781 C 121.921875 60.71875 112.09375 57.265625 106.253906 61.078125 C 100.359375 64.890625 99.40625 75.253906 94.164062 79.78125 C 88.921875 84.367188 78.5 83.832031 73.914062 89.070312 C 69.328125 94.3125 71.351562 104.558594 67.542969 110.453125 C 63.789062 116.289062 53.664062 118.734375 50.746094 125.105469 C 47.886719 131.417969 52.652344 140.652344 50.683594 147.382812 C 48.71875 153.992188 39.667969 159.175781 38.714844 166.144531 C 37.761719 172.933594 44.96875 180.4375 44.96875 187.523438 C 44.96875 194.613281 37.761719 202.117188 38.714844 208.90625 C 39.726562 215.875 48.71875 221.058594 50.683594 227.667969 C 52.652344 234.398438 47.886719 243.632812 50.746094 249.945312 C 53.664062 256.316406 63.789062 258.761719 67.542969 264.597656 C 71.351562 270.492188 69.328125 280.679688 73.914062 285.980469 C 78.5 291.21875 88.863281 290.742188 94.164062 295.269531 C 99.40625 299.855469 100.359375 310.21875 106.253906 313.972656 C 112.09375 317.726562 121.921875 314.332031 128.292969 317.25 C 134.605469 320.109375 138.417969 329.816406 145.148438 331.78125 C 151.761719 333.746094 160.21875 327.671875 167.1875 328.683594 C 173.976562 329.636719 180.410156 337.855469 187.496094 337.855469 C 194.585938 337.855469 201.015625 329.636719 207.804688 328.683594 C 214.773438 327.671875 223.234375 333.746094 229.84375 331.78125 C 236.574219 329.816406 240.445312 320.109375 246.699219 317.25 C 253.074219 314.332031 262.898438 317.785156 268.738281 313.972656 C 274.632812 310.160156 275.585938 299.796875 280.828125 295.269531 C 286.070312 290.683594 296.492188 291.21875 301.078125 285.980469 C 305.664062 280.738281 303.640625 270.492188 307.453125 264.597656 C 311.203125 258.761719 321.328125 256.316406 324.246094 249.945312 C 327.105469 243.632812 322.34375 234.398438 324.308594 227.667969 C 326.273438 221.058594 335.265625 215.875 336.277344 208.90625 C 337.292969 202.117188 330.085938 194.613281 330.085938 187.523438 Z M 330.085938 187.523438 " fill-opacity="1" fill-rule="nonzero"/><g clip-path="url(#9afc23d8c4)"><path fill="#ff914d" d="M 187.496094 342.324219 C 182.375 342.324219 177.964844 339.464844 174.09375 336.902344 C 171.355469 335.117188 168.734375 333.390625 166.589844 333.089844 C 164.269531 332.792969 161.230469 333.6875 158.015625 334.640625 C 153.605469 335.949219 148.664062 337.5 143.898438 336.070312 C 139.015625 334.640625 135.617188 330.648438 132.640625 327.136719 C 130.496094 324.632812 128.472656 322.25 126.445312 321.296875 C 124.363281 320.347656 121.207031 320.347656 117.871094 320.40625 C 113.285156 320.464844 108.042969 320.464844 103.875 317.726562 C 99.644531 314.984375 97.5 310.21875 95.59375 305.992188 C 94.222656 302.953125 92.972656 300.09375 91.246094 298.605469 C 89.519531 297.117188 86.480469 296.28125 83.324219 295.332031 C 78.917969 294.078125 73.855469 292.648438 70.578125 288.839844 C 67.304688 285.027344 66.589844 279.84375 65.933594 275.316406 C 65.457031 272.042969 65.039062 268.886719 63.847656 266.980469 C 62.65625 265.074219 59.976562 263.40625 57.175781 261.679688 C 53.246094 259.238281 48.839844 256.4375 46.753906 251.792969 C 44.667969 247.265625 45.445312 242.082031 46.160156 237.554688 C 46.636719 234.222656 47.113281 231.125 46.457031 228.921875 C 45.859375 226.777344 43.777344 224.453125 41.574219 221.953125 C 38.535156 218.496094 35.019531 214.507812 34.304688 209.503906 C 33.589844 204.621094 35.796875 199.914062 37.699219 195.746094 C 39.128906 192.707031 40.5 189.789062 40.5 187.464844 C 40.5 185.144531 39.128906 182.222656 37.699219 179.1875 C 35.796875 175.078125 33.589844 170.371094 34.304688 165.429688 C 35.019531 160.367188 38.476562 156.433594 41.574219 152.980469 C 43.777344 150.480469 45.800781 148.15625 46.457031 146.070312 C 47.113281 143.867188 46.636719 140.710938 46.160156 137.433594 C 45.445312 132.90625 44.667969 127.785156 46.753906 123.199219 C 48.839844 118.613281 53.304688 115.8125 57.175781 113.3125 C 59.976562 111.527344 62.65625 109.859375 63.847656 108.011719 C 65.097656 106.105469 65.515625 102.949219 65.933594 99.671875 C 66.527344 95.148438 67.242188 89.964844 70.578125 86.152344 C 73.855469 82.339844 78.917969 80.910156 83.324219 79.660156 C 86.539062 78.765625 89.578125 77.875 91.246094 76.386719 C 92.972656 74.894531 94.222656 72.035156 95.59375 69 C 97.5 64.769531 99.585938 60.003906 103.875 57.265625 C 108.101562 54.527344 113.285156 54.585938 117.871094 54.585938 C 121.207031 54.585938 124.363281 54.644531 126.445312 53.691406 C 128.472656 52.738281 130.496094 50.355469 132.640625 47.855469 C 135.617188 44.339844 139.015625 40.351562 143.898438 38.921875 C 148.664062 37.492188 153.664062 39.039062 158.015625 40.351562 C 161.230469 41.304688 164.269531 42.257812 166.589844 41.898438 C 168.792969 41.601562 171.355469 39.875 174.09375 38.085938 C 177.964844 35.527344 182.375 32.667969 187.496094 32.667969 C 192.617188 32.667969 197.027344 35.527344 200.898438 38.085938 C 203.636719 39.875 206.257812 41.601562 208.402344 41.898438 C 210.726562 42.257812 213.761719 41.304688 216.980469 40.351562 C 221.386719 39.039062 226.328125 37.492188 231.09375 38.921875 C 235.980469 40.351562 239.375 44.339844 242.351562 47.855469 C 244.496094 50.355469 246.519531 52.738281 248.546875 53.691406 C 250.628906 54.644531 253.789062 54.644531 257.121094 54.585938 C 261.710938 54.527344 266.949219 54.527344 271.121094 57.265625 C 275.347656 60.003906 277.492188 64.769531 279.398438 69 C 280.769531 72.035156 282.019531 74.894531 283.746094 76.386719 C 285.472656 77.875 288.511719 78.707031 291.667969 79.660156 C 296.074219 80.910156 301.136719 82.339844 304.414062 86.152344 C 307.691406 89.964844 308.40625 95.148438 309.058594 99.671875 C 309.535156 102.949219 309.953125 106.105469 311.144531 108.011719 C 312.335938 109.917969 315.015625 111.585938 317.816406 113.3125 C 321.746094 115.753906 326.152344 118.554688 328.238281 123.199219 C 330.324219 127.726562 329.546875 132.90625 328.832031 137.433594 C 328.359375 140.769531 327.882812 143.867188 328.535156 146.070312 C 329.132812 148.214844 331.214844 150.539062 333.421875 153.039062 C 336.457031 156.496094 339.972656 160.484375 340.6875 165.488281 C 341.402344 170.371094 339.199219 175.078125 337.292969 179.246094 C 335.863281 182.285156 334.492188 185.203125 334.492188 187.523438 C 334.492188 189.847656 335.863281 192.765625 337.292969 195.804688 C 339.199219 199.914062 341.402344 204.621094 340.6875 209.5625 C 339.972656 214.625 336.515625 218.554688 333.421875 222.011719 C 331.214844 224.511719 329.191406 226.835938 328.535156 228.921875 C 327.882812 231.125 328.359375 234.28125 328.832031 237.554688 C 329.546875 242.082031 330.324219 247.207031 328.238281 251.792969 C 326.152344 256.378906 321.6875 259.175781 317.816406 261.679688 C 315.015625 263.464844 312.335938 265.132812 311.144531 266.980469 C 309.894531 268.886719 309.476562 272.042969 309.058594 275.316406 C 308.464844 279.84375 307.75 285.027344 304.414062 288.839844 C 301.136719 292.648438 296.074219 294.078125 291.667969 295.332031 C 288.453125 296.222656 285.414062 297.117188 283.746094 298.605469 C 282.019531 300.09375 280.769531 302.953125 279.398438 305.992188 C 277.492188 310.21875 275.40625 314.984375 271.121094 317.726562 C 266.890625 320.464844 261.710938 320.40625 257.121094 320.40625 C 253.789062 320.40625 250.628906 320.347656 248.546875 321.296875 C 246.519531 322.25 244.496094 324.632812 242.351562 327.136719 C 239.375 330.648438 235.980469 334.640625 231.09375 336.070312 C 226.328125 337.5 221.328125 335.949219 216.980469 334.640625 C 213.761719 333.6875 210.726562 332.734375 208.402344 333.089844 C 206.199219 333.390625 203.636719 335.117188 200.898438 336.902344 C 197.027344 339.464844 192.617188 342.324219 187.496094 342.324219 Z M 165.578125 324.097656 C 166.351562 324.097656 167.066406 324.15625 167.839844 324.277344 C 172.011719 324.871094 175.523438 327.195312 178.980469 329.457031 C 182.078125 331.484375 185.054688 333.449219 187.496094 333.449219 C 189.9375 333.449219 192.917969 331.542969 196.011719 329.457031 C 199.46875 327.195312 203.042969 324.871094 207.152344 324.277344 C 211.378906 323.679688 215.550781 324.933594 219.539062 326.125 C 222.875 327.136719 226.328125 328.207031 228.59375 327.550781 C 230.917969 326.898438 233.179688 324.21875 235.5625 321.417969 C 238.242188 318.261719 241.042969 315.042969 244.851562 313.257812 C 248.726562 311.472656 253.074219 311.53125 257.183594 311.53125 C 260.695312 311.53125 264.328125 311.589844 266.296875 310.28125 C 268.320312 308.96875 269.75 305.8125 271.238281 302.417969 C 272.90625 298.605469 274.691406 294.734375 277.910156 291.933594 C 281.125 289.136719 285.234375 287.945312 289.226562 286.8125 C 292.738281 285.800781 296.136719 284.847656 297.683594 283.0625 C 299.230469 281.273438 299.707031 277.820312 300.183594 274.1875 C 300.722656 270.078125 301.316406 265.789062 303.640625 262.214844 C 305.902344 258.640625 309.535156 256.378906 313.050781 254.171875 C 316.148438 252.207031 319.125 250.363281 320.136719 248.15625 C 321.089844 246.015625 320.554688 242.441406 320.019531 238.984375 C 319.421875 234.875 318.769531 230.585938 319.960938 226.476562 C 321.152344 222.429688 323.949219 219.269531 326.691406 216.175781 C 329.132812 213.375 331.453125 210.753906 331.8125 208.3125 C 332.109375 206.046875 330.621094 202.773438 329.132812 199.617188 C 327.34375 195.804688 325.5 191.875 325.5 187.523438 C 325.5 183.175781 327.34375 179.246094 329.132812 175.433594 C 330.621094 172.277344 332.109375 169 331.8125 166.738281 C 331.453125 164.296875 329.132812 161.675781 326.691406 158.875 C 323.949219 155.78125 321.152344 152.5625 319.960938 148.574219 C 318.769531 144.464844 319.421875 140.175781 320.019531 136.066406 C 320.554688 132.609375 321.089844 129.035156 320.136719 126.890625 C 319.125 124.6875 316.207031 122.84375 313.050781 120.875 C 309.535156 118.671875 305.902344 116.410156 303.640625 112.835938 C 301.316406 109.261719 300.722656 104.972656 300.183594 100.863281 C 299.707031 97.230469 299.230469 93.777344 297.683594 91.988281 C 296.136719 90.203125 292.800781 89.25 289.226562 88.238281 C 285.234375 87.105469 281.066406 85.914062 277.851562 83.117188 C 274.632812 80.316406 272.90625 76.386719 271.179688 72.632812 C 269.691406 69.238281 268.261719 66.082031 266.234375 64.769531 C 264.269531 63.519531 260.757812 63.519531 257.121094 63.519531 C 252.953125 63.519531 248.664062 63.578125 244.792969 61.792969 C 240.980469 60.066406 238.183594 56.789062 235.503906 53.632812 C 233.121094 50.832031 230.855469 48.152344 228.535156 47.496094 C 226.328125 46.84375 222.816406 47.914062 219.480469 48.925781 C 215.488281 50.117188 211.320312 51.371094 207.09375 50.773438 C 202.921875 50.179688 199.410156 47.855469 195.953125 45.59375 C 192.917969 43.625 189.9375 41.660156 187.496094 41.660156 C 185.054688 41.660156 182.078125 43.566406 178.980469 45.652344 C 175.523438 47.914062 171.949219 50.238281 167.839844 50.832031 C 163.554688 51.429688 159.441406 50.179688 155.453125 48.988281 C 152.117188 47.972656 148.664062 46.902344 146.398438 47.558594 C 144.078125 48.210938 141.8125 50.894531 139.429688 53.691406 C 136.75 56.847656 133.953125 60.066406 130.140625 61.851562 C 126.269531 63.640625 121.921875 63.578125 117.808594 63.578125 C 114.117188 63.578125 110.664062 63.519531 108.699219 64.832031 C 106.671875 66.140625 105.242188 69.296875 103.753906 72.691406 C 102.085938 76.503906 100.300781 80.375 97.082031 83.175781 C 93.867188 85.972656 89.757812 87.164062 85.707031 88.296875 C 82.191406 89.308594 78.796875 90.261719 77.25 92.050781 C 75.699219 93.835938 75.222656 97.289062 74.746094 100.925781 C 74.210938 105.035156 73.617188 109.320312 71.292969 112.894531 C 69.03125 116.46875 65.398438 118.734375 61.882812 120.9375 C 58.785156 122.902344 55.808594 124.75 54.796875 126.953125 C 53.84375 129.097656 54.378906 132.667969 54.914062 136.125 C 55.511719 140.234375 56.164062 144.523438 54.972656 148.632812 C 53.78125 152.683594 50.984375 155.839844 48.242188 158.9375 C 45.800781 161.734375 43.476562 164.355469 43.121094 166.796875 C 42.824219 169.0625 44.3125 172.335938 45.800781 175.492188 C 47.589844 179.304688 49.433594 183.238281 49.433594 187.585938 C 49.433594 191.933594 47.589844 195.863281 45.800781 199.675781 C 44.3125 202.832031 42.824219 206.109375 43.121094 208.371094 C 43.476562 210.8125 45.800781 213.433594 48.242188 216.234375 C 50.984375 219.332031 53.78125 222.546875 54.972656 226.539062 C 56.164062 230.648438 55.511719 234.9375 54.914062 239.046875 C 54.378906 242.5 53.84375 246.074219 54.796875 248.21875 C 55.808594 250.421875 58.726562 252.269531 61.882812 254.234375 C 65.398438 256.4375 69.03125 258.699219 71.292969 262.273438 C 73.617188 265.847656 74.210938 270.136719 74.746094 274.246094 C 75.222656 277.878906 75.699219 281.332031 77.25 283.121094 C 78.796875 284.90625 82.132812 285.859375 85.707031 286.871094 C 89.699219 288.003906 93.867188 289.195312 97.082031 291.996094 C 100.300781 294.792969 102.027344 298.726562 103.753906 302.476562 C 105.242188 305.871094 106.671875 309.027344 108.699219 310.339844 C 110.664062 311.589844 114.175781 311.589844 117.808594 311.589844 C 121.980469 311.589844 126.269531 311.53125 130.140625 313.316406 C 133.953125 315.042969 136.75 318.320312 139.429688 321.476562 C 141.8125 324.277344 144.078125 326.957031 146.398438 327.613281 C 148.664062 328.265625 152.117188 327.195312 155.453125 326.183594 C 158.726562 325.109375 162.0625 324.097656 165.578125 324.097656 Z M 165.578125 324.097656 " fill-opacity="1" fill-rule="nonzero"/></g><g clip-path="url(#474b68b703)"><path fill="#ffde59" d="M 333.230469 187.496094 C 333.230469 189.878906 333.171875 192.261719 333.054688 194.644531 C 332.9375 197.027344 332.761719 199.40625 332.527344 201.777344 C 332.292969 204.152344 332 206.519531 331.652344 208.878906 C 331.300781 211.238281 330.894531 213.585938 330.429688 215.925781 C 329.964844 218.265625 329.441406 220.589844 328.859375 222.90625 C 328.28125 225.21875 327.644531 227.515625 326.953125 229.796875 C 326.261719 232.082031 325.511719 234.34375 324.710938 236.589844 C 323.90625 238.835938 323.046875 241.0625 322.136719 243.265625 C 321.222656 245.46875 320.257812 247.648438 319.238281 249.804688 C 318.214844 251.960938 317.144531 254.089844 316.019531 256.191406 C 314.894531 258.296875 313.722656 260.371094 312.496094 262.417969 C 311.269531 264.460938 309.992188 266.476562 308.667969 268.460938 C 307.34375 270.441406 305.96875 272.390625 304.550781 274.308594 C 303.128906 276.222656 301.660156 278.101562 300.148438 279.945312 C 298.636719 281.789062 297.078125 283.597656 295.476562 285.363281 C 293.875 287.128906 292.230469 288.859375 290.542969 290.542969 C 288.859375 292.230469 287.128906 293.875 285.363281 295.476562 C 283.597656 297.078125 281.789062 298.636719 279.945312 300.148438 C 278.101562 301.660156 276.222656 303.128906 274.308594 304.550781 C 272.390625 305.96875 270.441406 307.34375 268.460938 308.667969 C 266.476562 309.992188 264.460938 311.269531 262.417969 312.496094 C 260.371094 313.722656 258.296875 314.894531 256.191406 316.019531 C 254.089844 317.144531 251.960938 318.214844 249.804688 319.238281 C 247.648438 320.257812 245.46875 321.222656 243.265625 322.136719 C 241.0625 323.046875 238.835938 323.90625 236.589844 324.710938 C 234.34375 325.511719 232.082031 326.261719 229.796875 326.953125 C 227.515625 327.644531 225.21875 328.28125 222.90625 328.859375 C 220.589844 329.441406 218.265625 329.964844 215.925781 330.429688 C 213.585938 330.894531 211.238281 331.300781 208.878906 331.652344 C 206.519531 332 204.152344 332.292969 201.777344 332.527344 C 199.40625 332.761719 197.027344 332.9375 194.644531 333.054688 C 192.261719 333.171875 189.878906 333.230469 187.496094 333.230469 C 185.109375 333.230469 182.726562 333.171875 180.34375 333.054688 C 177.960938 332.9375 175.582031 332.761719 173.210938 332.527344 C 170.835938 332.292969 168.46875 332 166.109375 331.652344 C 163.75 331.300781 161.402344 330.894531 159.0625 330.429688 C 156.722656 329.964844 154.398438 329.441406 152.082031 328.859375 C 149.769531 328.28125 147.472656 327.644531 145.191406 326.953125 C 142.90625 326.261719 140.644531 325.511719 138.398438 324.710938 C 136.152344 323.90625 133.925781 323.046875 131.722656 322.136719 C 129.519531 321.222656 127.339844 320.257812 125.183594 319.238281 C 123.027344 318.214844 120.898438 317.144531 118.796875 316.019531 C 116.691406 314.894531 114.617188 313.722656 112.570312 312.496094 C 110.527344 311.269531 108.511719 309.992188 106.527344 308.667969 C 104.546875 307.34375 102.597656 305.96875 100.679688 304.550781 C 98.765625 303.128906 96.886719 301.660156 95.042969 300.148438 C 93.199219 298.636719 91.390625 297.078125 89.625 295.476562 C 87.859375 293.875 86.132812 292.230469 84.445312 290.542969 C 82.757812 288.859375 81.113281 287.128906 79.511719 285.363281 C 77.910156 283.597656 76.351562 281.789062 74.839844 279.945312 C 73.328125 278.101562 71.859375 276.222656 70.4375 274.308594 C 69.019531 272.390625 67.644531 270.441406 66.320312 268.460938 C 64.996094 266.476562 63.71875 264.460938 62.492188 262.417969 C 61.265625 260.371094 60.09375 258.296875 58.96875 256.191406 C 57.84375 254.089844 56.773438 251.960938 55.75 249.804688 C 54.730469 247.648438 53.765625 245.46875 52.851562 243.265625 C 51.941406 241.0625 51.082031 238.835938 50.277344 236.589844 C 49.476562 234.34375 48.726562 232.082031 48.035156 229.796875 C 47.34375 227.515625 46.707031 225.21875 46.128906 222.90625 C 45.546875 220.589844 45.023438 218.265625 44.558594 215.925781 C 44.09375 213.585938 43.6875 211.238281 43.335938 208.878906 C 42.988281 206.519531 42.695312 204.152344 42.460938 201.777344 C 42.226562 199.40625 42.050781 197.027344 41.933594 194.644531 C 41.816406 192.261719 41.761719 189.878906 41.761719 187.496094 C 41.761719 185.109375 41.816406 182.726562 41.933594 180.34375 C 42.050781 177.960938 42.226562 175.582031 42.460938 173.210938 C 42.695312 170.835938 42.988281 168.46875 43.335938 166.109375 C 43.6875 163.75 44.09375 161.402344 44.558594 159.0625 C 45.023438 156.722656 45.546875 154.398438 46.128906 152.082031 C 46.707031 149.769531 47.34375 147.472656 48.035156 145.191406 C 48.726562 142.90625 49.476562 140.644531 50.277344 138.398438 C 51.082031 136.152344 51.941406 133.925781 52.851562 131.722656 C 53.765625 129.519531 54.730469 127.339844 55.75 125.183594 C 56.773438 123.027344 57.84375 120.898438 58.96875 118.796875 C 60.09375 116.691406 61.265625 114.617188 62.492188 112.570312 C 63.71875 110.527344 64.996094 108.511719 66.320312 106.527344 C 67.644531 104.546875 69.019531 102.597656 70.4375 100.679688 C 71.859375 98.765625 73.328125 96.886719 74.839844 95.042969 C 76.351562 93.199219 77.910156 91.390625 79.511719 89.625 C 81.113281 87.859375 82.757812 86.132812 84.445312 84.445312 C 86.132812 82.757812 87.859375 81.113281 89.625 79.511719 C 91.390625 77.910156 93.199219 76.351562 95.042969 74.839844 C 96.886719 73.328125 98.765625 71.859375 100.679688 70.4375 C 102.597656 69.019531 104.546875 67.644531 106.527344 66.320312 C 108.511719 64.996094 110.527344 63.71875 112.570312 62.492188 C 114.617188 61.265625 116.691406 60.09375 118.796875 58.96875 C 120.898438 57.84375 123.027344 56.773438 125.183594 55.75 C 127.339844 54.730469 129.519531 53.765625 131.722656 52.851562 C 133.925781 51.941406 136.152344 51.082031 138.398438 50.277344 C 140.644531 49.476562 142.90625 48.726562 145.191406 48.035156 C 147.472656 47.34375 149.769531 46.707031 152.082031 46.128906 C 154.398438 45.546875 156.722656 45.023438 159.0625 44.558594 C 161.402344 44.09375 163.75 43.6875 166.109375 43.335938 C 168.46875 42.988281 170.835938 42.695312 173.210938 42.460938 C 175.582031 42.226562 177.960938 42.050781 180.34375 41.933594 C 182.726562 41.816406 185.109375 41.761719 187.496094 41.761719 C 189.878906 41.761719 192.261719 41.816406 194.644531 41.933594 C 197.027344 42.050781 199.40625 42.226562 201.777344 42.460938 C 204.152344 42.695312 206.519531 42.988281 208.878906 43.335938 C 211.238281 43.6875 213.585938 44.09375 215.925781 44.558594 C 218.265625 45.023438 220.589844 45.546875 222.90625 46.128906 C 225.21875 46.707031 227.515625 47.34375 229.796875 48.035156 C 232.082031 48.726562 234.34375 49.476562 236.589844 50.277344 C 238.835938 51.082031 241.0625 51.941406 243.265625 52.851562 C 245.46875 53.765625 247.648438 54.730469 249.804688 55.75 C 251.960938 56.773438 254.089844 57.84375 256.191406 58.96875 C 258.296875 60.09375 260.371094 61.265625 262.417969 62.492188 C 264.460938 63.71875 266.476562 64.996094 268.460938 66.320312 C 270.441406 67.644531 272.390625 69.019531 274.308594 70.4375 C 276.222656 71.859375 278.101562 73.328125 279.945312 74.839844 C 281.789062 76.351562 283.597656 77.910156 285.363281 79.511719 C 287.128906 81.113281 288.859375 82.757812 290.542969 84.445312 C 292.230469 86.132812 293.875 87.859375 295.476562 89.625 C 297.078125 91.390625 298.636719 93.199219 300.148438 95.042969 C 301.660156 96.886719 303.128906 98.765625 304.550781 100.679688 C 305.96875 102.597656 307.34375 104.546875 308.667969 106.527344 C 309.992188 108.511719 311.269531 110.527344 312.496094 112.570312 C 313.722656 114.617188 314.894531 116.691406 316.019531 118.796875 C 317.144531 120.898438 318.214844 123.027344 319.238281 125.183594 C 320.257812 127.339844 321.222656 129.519531 322.136719 131.722656 C 323.046875 133.925781 323.90625 136.152344 324.710938 138.398438 C 325.511719 140.644531 326.261719 142.90625 326.953125 145.191406 C 327.644531 147.472656 328.28125 149.769531 328.859375 152.082031 C 329.441406 154.398438 329.964844 156.722656 330.429688 159.0625 C 330.894531 161.402344 331.300781 163.75 331.652344 166.109375 C 332 168.46875 332.292969 170.835938 332.527344 173.210938 C 332.761719 175.582031 332.9375 177.960938 333.054688 180.34375 C 333.171875 182.726562 333.230469 185.109375 333.230469 187.496094 Z M 333.230469 187.496094 " fill-opacity="1" fill-rule="nonzero"/></g><g clip-path="url(#1b6c385381)"><path fill="#3b523a" d="M 322.671875 187.496094 C 322.671875 189.710938 322.617188 191.921875 322.511719 194.128906 C 322.402344 196.339844 322.238281 198.542969 322.023438 200.746094 C 321.804688 202.949219 321.535156 205.144531 321.210938 207.332031 C 320.886719 209.519531 320.507812 211.699219 320.074219 213.867188 C 319.644531 216.039062 319.160156 218.195312 318.621094 220.34375 C 318.085938 222.488281 317.492188 224.621094 316.851562 226.734375 C 316.210938 228.851562 315.515625 230.953125 314.769531 233.035156 C 314.027344 235.117188 313.230469 237.183594 312.382812 239.226562 C 311.535156 241.269531 310.640625 243.292969 309.695312 245.292969 C 308.75 247.292969 307.753906 249.265625 306.710938 251.21875 C 305.667969 253.167969 304.578125 255.09375 303.441406 256.992188 C 302.304688 258.886719 301.121094 260.757812 299.890625 262.597656 C 298.664062 264.4375 297.390625 266.242188 296.070312 268.019531 C 294.753906 269.796875 293.390625 271.542969 291.988281 273.25 C 290.585938 274.960938 289.140625 276.636719 287.65625 278.273438 C 286.167969 279.914062 284.644531 281.515625 283.082031 283.082031 C 281.515625 284.644531 279.914062 286.167969 278.273438 287.65625 C 276.636719 289.140625 274.960938 290.585938 273.25 291.988281 C 271.542969 293.390625 269.796875 294.753906 268.019531 296.070312 C 266.242188 297.390625 264.4375 298.664062 262.597656 299.890625 C 260.757812 301.121094 258.886719 302.304688 256.992188 303.441406 C 255.09375 304.578125 253.167969 305.667969 251.21875 306.710938 C 249.265625 307.753906 247.292969 308.75 245.292969 309.695312 C 243.292969 310.640625 241.269531 311.535156 239.226562 312.382812 C 237.183594 313.230469 235.117188 314.027344 233.035156 314.769531 C 230.953125 315.515625 228.851562 316.210938 226.734375 316.851562 C 224.621094 317.492188 222.488281 318.085938 220.34375 318.621094 C 218.195312 319.160156 216.039062 319.644531 213.867188 320.074219 C 211.699219 320.507812 209.519531 320.886719 207.332031 321.210938 C 205.144531 321.535156 202.949219 321.804688 200.746094 322.023438 C 198.542969 322.238281 196.339844 322.402344 194.128906 322.511719 C 191.921875 322.617188 189.710938 322.671875 187.496094 322.671875 C 185.285156 322.671875 183.074219 322.617188 180.863281 322.511719 C 178.65625 322.402344 176.449219 322.238281 174.246094 322.023438 C 172.046875 321.804688 169.851562 321.535156 167.664062 321.210938 C 165.472656 320.886719 163.296875 320.507812 161.125 320.074219 C 158.957031 319.644531 156.796875 319.160156 154.652344 318.621094 C 152.503906 318.085938 150.375 317.492188 148.257812 316.851562 C 146.140625 316.210938 144.039062 315.515625 141.957031 314.769531 C 139.875 314.027344 137.8125 313.230469 135.765625 312.382812 C 133.722656 311.535156 131.703125 310.640625 129.703125 309.695312 C 127.703125 308.75 125.726562 307.753906 123.777344 306.710938 C 121.824219 305.667969 119.898438 304.578125 118.003906 303.441406 C 116.105469 302.304688 114.238281 301.121094 112.398438 299.890625 C 110.558594 298.664062 108.75 297.390625 106.972656 296.070312 C 105.195312 294.753906 103.453125 293.390625 101.742188 291.988281 C 100.03125 290.585938 98.359375 289.140625 96.71875 287.65625 C 95.078125 286.167969 93.476562 284.644531 91.914062 283.082031 C 90.347656 281.515625 88.824219 279.914062 87.339844 278.273438 C 85.851562 276.636719 84.40625 274.960938 83.003906 273.25 C 81.601562 271.542969 80.242188 269.796875 78.921875 268.019531 C 77.605469 266.242188 76.332031 264.4375 75.101562 262.597656 C 73.875 260.757812 72.691406 258.886719 71.554688 256.992188 C 70.414062 255.09375 69.324219 253.167969 68.28125 251.21875 C 67.238281 249.265625 66.246094 247.292969 65.300781 245.292969 C 64.355469 243.292969 63.457031 241.269531 62.609375 239.226562 C 61.765625 237.183594 60.96875 235.117188 60.222656 233.035156 C 59.476562 230.953125 58.785156 228.851562 58.140625 226.734375 C 57.5 224.621094 56.910156 222.488281 56.371094 220.34375 C 55.835938 218.195312 55.351562 216.039062 54.917969 213.867188 C 54.488281 211.699219 54.109375 209.519531 53.785156 207.332031 C 53.460938 205.144531 53.1875 202.949219 52.972656 200.746094 C 52.753906 198.542969 52.59375 196.339844 52.484375 194.128906 C 52.375 191.921875 52.320312 189.710938 52.320312 187.496094 C 52.320312 185.285156 52.375 183.074219 52.484375 180.863281 C 52.59375 178.65625 52.753906 176.449219 52.972656 174.246094 C 53.1875 172.046875 53.460938 169.851562 53.785156 167.664062 C 54.109375 165.472656 54.488281 163.296875 54.917969 161.125 C 55.351562 158.957031 55.835938 156.796875 56.371094 154.652344 C 56.910156 152.507812 57.5 150.375 58.140625 148.257812 C 58.785156 146.140625 59.476562 144.039062 60.222656 141.957031 C 60.96875 139.875 61.765625 137.8125 62.609375 135.765625 C 63.457031 133.722656 64.355469 131.703125 65.300781 129.703125 C 66.246094 127.703125 67.238281 125.726562 68.28125 123.777344 C 69.324219 121.824219 70.414062 119.898438 71.554688 118.003906 C 72.691406 116.105469 73.875 114.238281 75.101562 112.398438 C 76.332031 110.558594 77.605469 108.75 78.921875 106.972656 C 80.242188 105.195312 81.601562 103.453125 83.003906 101.742188 C 84.40625 100.03125 85.851562 98.359375 87.339844 96.71875 C 88.824219 95.078125 90.347656 93.476562 91.914062 91.914062 C 93.476562 90.347656 95.078125 88.824219 96.71875 87.339844 C 98.359375 85.851562 100.03125 84.40625 101.742188 83.003906 C 103.453125 81.601562 105.195312 80.242188 106.972656 78.921875 C 108.75 77.605469 110.558594 76.332031 112.398438 75.101562 C 114.238281 73.875 116.105469 72.691406 118.003906 71.554688 C 119.898438 70.414062 121.824219 69.324219 123.777344 68.28125 C 125.726562 67.238281 127.703125 66.246094 129.703125 65.300781 C 131.703125 64.355469 133.722656 63.457031 135.765625 62.609375 C 137.8125 61.765625 139.875 60.96875 141.957031 60.222656 C 144.039062 59.476562 146.140625 58.785156 148.257812 58.140625 C 150.375 57.5 152.503906 56.910156 154.652344 56.371094 C 156.796875 55.835938 158.957031 55.351562 161.125 54.917969 C 163.296875 54.488281 165.472656 54.109375 167.664062 53.785156 C 169.851562 53.460938 172.046875 53.1875 174.246094 52.972656 C 176.449219 52.753906 178.65625 52.59375 180.863281 52.484375 C 183.074219 52.375 185.285156 52.320312 187.496094 52.320312 C 189.710938 52.320312 191.921875 52.375 194.128906 52.484375 C 196.339844 52.59375 198.542969 52.753906 200.746094 52.972656 C 202.949219 53.1875 205.144531 53.460938 207.332031 53.785156 C 209.519531 54.109375 211.699219 54.488281 213.867188 54.917969 C 216.039062 55.351562 218.195312 55.835938 220.34375 56.371094 C 222.488281 56.910156 224.621094 57.5 226.734375 58.140625 C 228.851562 58.785156 230.953125 59.476562 233.035156 60.222656 C 235.117188 60.96875 237.183594 61.765625 239.226562 62.609375 C 241.269531 63.457031 243.292969 64.355469 245.292969 65.300781 C 247.292969 66.246094 249.265625 67.238281 251.21875 68.28125 C 253.167969 69.324219 255.09375 70.414062 256.992188 71.554688 C 258.886719 72.691406 260.757812 73.875 262.597656 75.101562 C 264.4375 76.332031 266.242188 77.605469 268.019531 78.921875 C 269.796875 80.242188 271.542969 81.601562 273.25 83.003906 C 274.960938 84.40625 276.636719 85.851562 278.273438 87.339844 C 279.914062 88.824219 281.515625 90.347656 283.082031 91.914062 C 284.644531 93.476562 286.167969 95.078125 287.65625 96.71875 C 289.140625 98.359375 290.585938 100.03125 291.988281 101.742188 C 293.390625 103.453125 294.753906 105.195312 296.070312 106.972656 C 297.390625 108.75 298.664062 110.558594 299.890625 112.398438 C 301.121094 114.238281 302.304688 116.105469 303.441406 118.003906 C 304.578125 119.898438 305.667969 121.824219 306.710938 123.777344 C 307.753906 125.726562 308.75 127.703125 309.695312 129.703125 C 310.640625 131.703125 311.535156 133.722656 312.382812 135.765625 C 313.230469 137.8125 314.027344 139.875 314.769531 141.957031 C 315.515625 144.039062 316.210938 146.140625 316.851562 148.257812 C 317.496094 150.375 318.085938 152.507812 318.621094 154.652344 C 319.160156 156.796875 319.644531 158.957031 320.074219 161.125 C 320.507812 163.296875 320.886719 165.472656 321.210938 167.664062 C 321.535156 169.851562 321.804688 172.046875 322.023438 174.246094 C 322.238281 176.449219 322.402344 178.65625 322.511719 180.863281 C 322.617188 183.074219 322.671875 185.285156 322.671875 187.496094 Z M 322.671875 187.496094 " fill-opacity="1" fill-rule="nonzero"/></g><g clip-path="url(#b527abacb4)"><path fill="#eceada" d="M 270.449219 148.789062 C 256.246094 117.125 224.449219 95.070312 187.5 95.070312 C 150.546875 95.070312 118.75 117.125 104.550781 148.789062 L 90.230469 135.945312 L 68.304688 148.789062 C 84.117188 97.996094 131.5 61.121094 187.5 61.121094 C 243.496094 61.121094 290.882812 97.996094 306.691406 148.789062 L 284.847656 135.945312 Z M 270.449219 148.789062 " fill-opacity="1" fill-rule="nonzero"/></g><g fill="#3b523a" fill-opacity="1"><g transform="translate(99.158534, 144.250751)"><g><path d="M 4.109375 -7.8125 L -4.6875 -9.0625 L -4.75 -8.953125 L 2.65625 -5.046875 L 0.5 -0.953125 L -15.9375 -9.609375 L -13.765625 -13.75 L -6.15625 -12.671875 L -6.078125 -12.8125 L -12.46875 -16.171875 L -10.328125 -20.265625 L 6.109375 -11.609375 Z M 4.109375 -7.8125 "/></g></g></g><g fill="#3b523a" fill-opacity="1"><g transform="translate(106.732321, 130.218775)"><g><path d="M 4.3125 -5.34375 C 3.113281 -3.769531 2.035156 -2.816406 1.078125 -2.484375 C 0.117188 -2.148438 -0.890625 -2.269531 -1.953125 -2.84375 C -3.023438 -3.414062 -4.679688 -4.550781 -6.921875 -6.25 C -9.171875 -7.957031 -10.710938 -9.242188 -11.546875 -10.109375 C -12.378906 -10.972656 -12.769531 -11.910156 -12.71875 -12.921875 C -12.664062 -13.941406 -12.039062 -15.238281 -10.84375 -16.8125 C -9.644531 -18.382812 -8.566406 -19.332031 -7.609375 -19.65625 C -6.648438 -19.988281 -5.632812 -19.867188 -4.5625 -19.296875 C -3.488281 -18.734375 -1.832031 -17.609375 0.40625 -15.921875 C 2.644531 -14.222656 4.175781 -12.9375 5 -12.0625 C 5.832031 -11.195312 6.222656 -10.253906 6.171875 -9.234375 C 6.128906 -8.210938 5.507812 -6.914062 4.3125 -5.34375 Z M 1.125 -7.75 C 1.382812 -8.09375 1.488281 -8.375 1.4375 -8.59375 C 1.394531 -8.8125 1.117188 -9.132812 0.609375 -9.5625 C 0.109375 -9.988281 -0.941406 -10.8125 -2.546875 -12.03125 C -4.148438 -13.25 -5.222656 -14.039062 -5.765625 -14.40625 C -6.316406 -14.769531 -6.703125 -14.945312 -6.921875 -14.9375 C -7.148438 -14.925781 -7.394531 -14.75 -7.65625 -14.40625 C -7.914062 -14.0625 -8.015625 -13.785156 -7.953125 -13.578125 C -7.898438 -13.367188 -7.625 -13.050781 -7.125 -12.625 C -6.625 -12.195312 -5.570312 -11.375 -3.96875 -10.15625 C -2.363281 -8.9375 -1.285156 -8.144531 -0.734375 -7.78125 C -0.179688 -7.414062 0.195312 -7.234375 0.40625 -7.234375 C 0.625 -7.234375 0.863281 -7.40625 1.125 -7.75 Z M -14.5 -14.390625 L -14.671875 -14.515625 L -16.125 -18.09375 L -13.546875 -21.5 L -9.6875 -21.09375 L -9.515625 -20.96875 L -11.296875 -18.609375 L -13.328125 -18.65625 L -12.703125 -16.75 Z M -14.5 -14.390625 "/></g></g></g><g fill="#3b523a" fill-opacity="1"><g transform="translate(116.179855, 117.943297)"><g><path d="M 6.40625 -6.078125 L -1.546875 -10.09375 L -1.625 -10 L 4.140625 -3.921875 L 0.78125 -0.75 L -12.015625 -14.21875 L -8.625 -17.421875 L -1.78125 -13.984375 L -1.671875 -14.09375 L -6.640625 -19.328125 L -3.28125 -22.5 L 9.515625 -9.03125 Z M 6.40625 -6.078125 "/></g></g></g><g fill="#3b523a" fill-opacity="1"><g transform="translate(127.875802, 107.083043)"><g><path d="M 1.5625 -9.953125 L -0.578125 -13.109375 L 3.9375 -16.1875 L 10 -7.28125 C 9.539062 -6.75 8.9375 -6.15625 8.1875 -5.5 C 7.4375 -4.851562 6.710938 -4.296875 6.015625 -3.828125 C 4.554688 -2.835938 3.3125 -2.3125 2.28125 -2.25 C 1.257812 -2.195312 0.234375 -2.617188 -0.796875 -3.515625 C -1.828125 -4.421875 -3.082031 -5.957031 -4.5625 -8.125 C -6.039062 -10.300781 -7.003906 -12.035156 -7.453125 -13.328125 C -7.898438 -14.628906 -7.890625 -15.757812 -7.421875 -16.71875 C -6.960938 -17.675781 -5.96875 -18.679688 -4.4375 -19.734375 C -3.863281 -20.117188 -3.160156 -20.523438 -2.328125 -20.953125 C -1.503906 -21.390625 -0.757812 -21.734375 -0.09375 -21.984375 L 1.984375 -18.9375 C 0.460938 -18.101562 -0.550781 -17.515625 -1.0625 -17.171875 C -1.976562 -16.546875 -2.546875 -16.050781 -2.765625 -15.6875 C -2.992188 -15.332031 -2.960938 -14.832031 -2.671875 -14.1875 C -2.378906 -13.539062 -1.691406 -12.421875 -0.609375 -10.828125 C 0.398438 -9.347656 1.140625 -8.320312 1.609375 -7.75 C 2.085938 -7.175781 2.488281 -6.851562 2.8125 -6.78125 C 3.144531 -6.707031 3.539062 -6.828125 4 -7.140625 L 4.609375 -7.578125 L 2.53125 -10.609375 Z M 1.5625 -9.953125 "/></g></g></g><g fill="#3b523a" fill-opacity="1"><g transform="translate(140.876213, 98.672844)"><g/></g></g><g fill="#3b523a" fill-opacity="1"><g transform="translate(147.030029, 95.284464)"><g><path d="M 8.265625 -3.109375 L 2.5 -9.890625 L 2.390625 -9.859375 L 5.34375 -2.015625 L 1.015625 -0.375 L -5.53125 -17.765625 L -1.171875 -19.421875 L 3.8125 -13.5625 L 3.953125 -13.625 L 1.40625 -20.390625 L 5.734375 -22.015625 L 12.28125 -4.625 Z M 8.265625 -3.109375 "/></g></g></g><g fill="#3b523a" fill-opacity="1"><g transform="translate(162.030258, 89.829036)"><g><path d="M 5.3125 -8.5625 L 4.5625 -12.296875 L 9.90625 -13.375 L 12.03125 -2.8125 C 11.414062 -2.5 10.632812 -2.191406 9.6875 -1.890625 C 8.738281 -1.585938 7.851562 -1.351562 7.03125 -1.1875 C 5.300781 -0.84375 3.953125 -0.84375 2.984375 -1.1875 C 2.023438 -1.53125 1.242188 -2.316406 0.640625 -3.546875 C 0.046875 -4.773438 -0.507812 -6.675781 -1.03125 -9.25 C -1.550781 -11.832031 -1.765625 -13.804688 -1.671875 -15.171875 C -1.578125 -16.546875 -1.128906 -17.582031 -0.328125 -18.28125 C 0.472656 -18.988281 1.785156 -19.523438 3.609375 -19.890625 C 4.285156 -20.023438 5.085938 -20.128906 6.015625 -20.203125 C 6.941406 -20.285156 7.757812 -20.316406 8.46875 -20.296875 L 9.1875 -16.6875 C 7.46875 -16.507812 6.304688 -16.359375 5.703125 -16.234375 C 4.609375 -16.015625 3.890625 -15.78125 3.546875 -15.53125 C 3.203125 -15.289062 3.035156 -14.816406 3.046875 -14.109375 C 3.066406 -13.398438 3.269531 -12.097656 3.65625 -10.203125 C 4.007812 -8.453125 4.296875 -7.21875 4.515625 -6.5 C 4.734375 -5.78125 4.972656 -5.320312 5.234375 -5.125 C 5.503906 -4.9375 5.910156 -4.894531 6.453125 -5 L 7.203125 -5.1875 L 6.46875 -8.796875 Z M 5.3125 -8.5625 "/></g></g></g><g fill="#3b523a" fill-opacity="1"><g transform="translate(176.864021, 86.958366)"><g><path d="M 8.09375 -0.3125 L 7.8125 -7.5 L 5.65625 -7.40625 L 5.9375 -0.21875 L 1.078125 -0.046875 L 0.375 -18.609375 L 5.234375 -18.78125 L 5.5 -11.703125 L 7.65625 -11.796875 L 7.390625 -18.875 L 12.234375 -19.0625 L 12.9375 -0.5 Z M 8.09375 -0.3125 "/></g></g></g><g fill="#3b523a" fill-opacity="1"><g transform="translate(192.925526, 86.706411)"><g><path d="M 1.078125 0.09375 L 2.796875 -18.40625 L 7.625 -17.953125 L 5.90625 0.546875 Z M 1.078125 0.09375 "/></g></g></g><g fill="#3b523a" fill-opacity="1"><g transform="translate(202.057693, 87.547365)"><g><path d="M 1.046875 0.21875 L 4.9375 -17.953125 L 14.265625 -15.953125 L 13.421875 -12.03125 L 8.859375 -13 L 8.1875 -9.859375 L 12.0625 -9.03125 L 11.234375 -5.15625 L 7.359375 -5.984375 L 6.65625 -2.65625 L 11.21875 -1.6875 L 10.375 2.21875 Z M 2.171875 6.375 L 3.03125 2.359375 L 7.6875 3.359375 L 6.828125 7.375 Z M 5.953125 -19.625 L 6 -19.84375 L 8.609375 -22.671875 L 12.78125 -21.78125 L 14.078125 -18.109375 L 14.03125 -17.890625 L 11.125 -18.515625 L 10.3125 -20.390625 L 8.84375 -19 Z M 5.953125 -19.625 "/></g></g></g><g fill="#3b523a" fill-opacity="1"><g transform="translate(215.136464, 90.432834)"><g><path d="M 7.53125 -17.03125 L 13.796875 -14.671875 C 15.078125 -14.203125 15.960938 -13.628906 16.453125 -12.953125 C 16.941406 -12.273438 17.140625 -11.460938 17.046875 -10.515625 C 16.960938 -9.578125 16.640625 -8.359375 16.078125 -6.859375 C 15.546875 -5.441406 15.015625 -4.347656 14.484375 -3.578125 C 13.960938 -2.816406 13.285156 -2.320312 12.453125 -2.09375 C 11.617188 -1.863281 10.546875 -1.988281 9.234375 -2.46875 L 7.515625 -3.125 L 5.5625 2.078125 L 1.015625 0.375 Z M 9.4375 -6.640625 C 9.820312 -6.492188 10.101562 -6.4375 10.28125 -6.46875 C 10.457031 -6.5 10.628906 -6.660156 10.796875 -6.953125 C 10.960938 -7.242188 11.195312 -7.785156 11.5 -8.578125 C 11.800781 -9.390625 11.984375 -9.960938 12.046875 -10.296875 C 12.109375 -10.628906 12.082031 -10.859375 11.96875 -10.984375 C 11.851562 -11.117188 11.601562 -11.257812 11.21875 -11.40625 L 10.6875 -11.609375 L 8.90625 -6.84375 Z M 9.4375 -6.640625 "/></g></g></g><g fill="#3b523a" fill-opacity="1"><g transform="translate(229.242748, 96.093813)"><g/></g></g><g fill="#3b523a" fill-opacity="1"><g transform="translate(235.564176, 99.169259)"><g><path d="M 7.1875 4.859375 L 9.203125 -0.96875 L 9 -1.109375 L 4.328125 2.921875 L 0.125 0.09375 L 8.28125 -5.671875 L 10.609375 -15.25 L 14.921875 -12.34375 L 12.984375 -6.765625 L 13.171875 -6.640625 L 17.6875 -10.46875 L 21.859375 -7.640625 L 13.953125 -2.03125 L 11.515625 7.78125 Z M 7.1875 4.859375 "/></g></g></g><g fill="#3b523a" fill-opacity="1"><g transform="translate(248.579718, 108.141677)"><g><path d="M 6.578125 6.21875 L 8.421875 3.625 L 5.96875 1.296875 L 3.5 3.3125 L 0.015625 0.015625 L 15.25 -11.140625 L 20.40625 -6.265625 L 10.125 9.578125 Z M 14.90625 -5.546875 L 14.765625 -5.6875 L 9.0625 -1.09375 L 10.65625 0.421875 Z M 14.90625 -5.546875 "/></g></g></g><g fill="#3b523a" fill-opacity="1"><g transform="translate(259.886271, 119.030543)"><g><path d="M 5.328125 7.03125 L 10.1875 -0.421875 L 10.109375 -0.515625 L 3.4375 4.546875 L 0.65625 0.859375 L 15.46875 -10.359375 L 18.28125 -6.640625 L 14.09375 -0.203125 L 14.1875 -0.078125 L 19.953125 -4.4375 L 22.734375 -0.765625 L 7.921875 10.453125 Z M 5.328125 7.03125 "/></g></g></g><g fill="#3b523a" fill-opacity="1"><g transform="translate(269.395355, 131.814415)"><g><path d="M 3.765625 7.15625 L 10.125 3.8125 L 9.125 1.90625 L 2.765625 5.25 L 0.5 0.953125 L 16.9375 -7.6875 L 19.203125 -3.390625 L 12.9375 -0.09375 L 13.9375 1.8125 L 20.203125 -1.484375 L 22.46875 2.828125 L 6.03125 11.46875 Z M 3.765625 7.15625 "/></g></g></g><g fill="#ffd91d" fill-opacity="1"><g transform="translate(93.16535, 204.005187)"><g><path d="M 33.859375 -11.1875 L 34.296875 0 L 22.734375 0 L 13.09375 -18.34375 L 12.453125 -18.34375 L 12.40625 -12.40625 L 12.828125 0 L 3.1875 0 L 3.703125 -10.0625 L 3.1875 -34.296875 L 14.734375 -34.296875 L 24.375 -15.953125 L 25.015625 -15.953125 L 24.703125 -33.921875 L 34.453125 -34.5 Z M 33.859375 -11.1875 "/></g></g></g><g fill="#ffd91d" fill-opacity="1"><g transform="translate(132.379815, 204.005187)"><g><path d="M 27.1875 -33.546875 L 26.609375 -25.8125 L 19.609375 -26.125 L 18.96875 -26.125 L 18.703125 -11.125 L 19.140625 0 L 8.53125 0 L 9.0625 -10.0625 L 8.796875 -26.125 L 8.109375 -26.125 L 1.0625 -25.8125 L 0.421875 -26.546875 L 1 -34.296875 L 26.609375 -34.296875 Z M 27.1875 -33.546875 "/></g></g></g><g fill="#ffd91d" fill-opacity="1"><g transform="translate(161.472771, 204.005187)"><g><path d="M 32.703125 0 L 21.9375 0 L 20.984375 -5.671875 L 20.9375 -5.828125 L 15.734375 -5.9375 L 11.390625 -5.71875 L 10.5 0 L 0.109375 0 L 10.5 -34.296875 L 23.3125 -34.296875 Z M 19.34375 -13.5625 L 17.015625 -24.796875 L 16.375 -24.796875 L 13.40625 -13.5625 L 16.375 -13.515625 Z M 19.34375 -13.5625 "/></g></g></g><g fill="#ffd91d" fill-opacity="1"><g transform="translate(196.288877, 204.005187)"><g><path d="M 20.25 -34.875 C 24.0625 -34.875 27.363281 -34.34375 30.15625 -33.28125 L 27.875 -23.90625 L 27.03125 -23.90625 C 25.257812 -24.789062 23.726562 -25.425781 22.4375 -25.8125 C 21.15625 -26.195312 19.753906 -26.390625 18.234375 -26.390625 C 16.609375 -26.390625 15.363281 -26.125 14.5 -25.59375 C 13.632812 -25.0625 13.003906 -24.125 12.609375 -22.78125 C 12.222656 -21.445312 12.03125 -19.503906 12.03125 -16.953125 C 12.03125 -14.378906 12.222656 -12.410156 12.609375 -11.046875 C 13.003906 -9.691406 13.664062 -8.738281 14.59375 -8.1875 C 15.53125 -7.632812 16.882812 -7.359375 18.65625 -7.359375 C 19.144531 -7.359375 19.78125 -7.429688 20.5625 -7.578125 L 20.5625 -9.28125 L 20.40625 -15.046875 L 30.109375 -15.734375 L 29.9375 -11.078125 L 29.9375 -1.703125 C 25.84375 -0.140625 21.765625 0.640625 17.703125 0.640625 C 12.148438 0.640625 7.960938 -0.832031 5.140625 -3.78125 C 2.316406 -6.738281 0.90625 -10.957031 0.90625 -16.4375 C 0.90625 -22.4375 2.570312 -27.007812 5.90625 -30.15625 C 9.25 -33.300781 14.03125 -34.875 20.25 -34.875 Z M 20.25 -34.875 "/></g></g></g><g fill="#ffd91d" fill-opacity="1"><g transform="translate(229.46223, 204.005187)"><g><path d="M 25.765625 -13.515625 C 28.304688 -9.554688 30.847656 -5.878906 33.390625 -2.484375 L 33.234375 -1.328125 C 29.628906 -0.234375 26.078125 0.421875 22.578125 0.640625 L 21.578125 -0.21875 L 20.9375 -1.53125 C 20.65625 -2.101562 20.085938 -3.296875 19.234375 -5.109375 C 18.390625 -6.929688 17.648438 -8.640625 17.015625 -10.234375 L 13.46875 -10.234375 L 13.828125 0 L 3.1875 0 L 3.703125 -10.0625 L 3.1875 -34.296875 L 19.453125 -34.34375 C 23.304688 -34.34375 26.273438 -33.429688 28.359375 -31.609375 C 30.441406 -29.796875 31.484375 -27.175781 31.484375 -23.75 C 31.484375 -21.726562 30.976562 -19.832031 29.96875 -18.0625 C 28.96875 -16.300781 27.566406 -14.785156 25.765625 -13.515625 Z M 20.296875 -22.6875 C 20.296875 -24.09375 19.929688 -25.140625 19.203125 -25.828125 C 18.484375 -26.523438 17.3125 -26.910156 15.6875 -26.984375 L 13.78125 -26.8125 L 13.5625 -17.96875 L 17.4375 -17.75 C 18.425781 -18.207031 19.148438 -18.828125 19.609375 -19.609375 C 20.066406 -20.390625 20.296875 -21.414062 20.296875 -22.6875 Z M 20.296875 -22.6875 "/></g></g></g><g fill="#ffd91d" fill-opacity="1"><g transform="translate(264.490304, 204.005187)"><g><path d="M 13.40625 -11.125 L 13.828125 0 L 3.1875 0 L 3.703125 -10.0625 L 3.1875 -34.296875 L 13.984375 -34.296875 Z M 13.40625 -11.125 "/></g></g></g><path fill="#eceada" d="M 140.148438 267.871094 C 140.300781 267.957031 140.460938 268.042969 140.613281 268.132812 C 140.734375 267.351562 140.785156 266.546875 140.8125 265.785156 C 140.953125 261.804688 140.261719 257.890625 139.171875 254.074219 C 135.78125 255.261719 132.429688 256.570312 129.15625 258.042969 C 125.316406 259.761719 121.414062 261.621094 117.914062 264 C 123.425781 264.046875 129.023438 264.515625 134.308594 265.789062 C 136.304688 266.277344 138.339844 266.875 140.148438 267.871094 Z M 140.148438 267.871094 " fill-opacity="1" fill-rule="nonzero"/><path fill="#eceada" d="M 256.105469 263.640625 C 255.054688 263.089844 253.996094 262.550781 252.933594 262.023438 C 247.046875 259.082031 240.976562 256.429688 234.773438 254.132812 C 234.15625 258.121094 233.59375 262.125 233.078125 266.132812 C 234.28125 265.476562 235.667969 265.042969 236.878906 264.769531 C 243.058594 263.371094 249.679688 263.285156 256.105469 263.640625 Z M 256.105469 263.640625 " fill-opacity="1" fill-rule="nonzero"/><g clip-path="url(#0f0e7705c2)"><path fill="#eceada" d="M 246.710938 266.058594 C 244.101562 266.15625 241.46875 266.320312 238.894531 266.800781 C 237.140625 267.128906 234.878906 267.492188 233.449219 268.679688 C 233.027344 269.027344 232.769531 269.378906 232.640625 269.730469 C 232.613281 269.976562 232.582031 270.21875 232.550781 270.46875 C 232.789062 272.5 236.871094 274.300781 238.363281 274.890625 C 250.839844 279.808594 264.496094 281.34375 276.492188 287.484375 C 275.5 284.933594 274.554688 282.359375 273.675781 279.769531 C 272.886719 277.445312 272.015625 275.050781 271.652344 272.613281 C 271.421875 271.082031 271.410156 269.714844 273.011719 269.019531 C 275.164062 268.089844 277.609375 267.757812 279.894531 267.324219 C 282.652344 266.796875 285.449219 266.347656 288.160156 265.59375 C 288.578125 265.476562 289.257812 265.308594 289.773438 265.097656 C 289.679688 265.03125 289.59375 264.960938 289.496094 264.902344 C 287.402344 263.496094 285.0625 262.433594 282.78125 261.382812 C 278.40625 259.347656 273.832031 257.660156 269.5 255.53125 C 269.09375 256.34375 268.675781 257.152344 268.253906 257.953125 C 267.089844 260.171875 265.898438 262.425781 264.386719 264.425781 C 263.648438 265.402344 262.644531 266.597656 261.378906 266.421875 C 261.308594 266.421875 261.234375 266.410156 261.15625 266.390625 C 256.363281 266 251.515625 265.875 246.710938 266.058594 Z M 246.710938 266.058594 " fill-opacity="1" fill-rule="nonzero"/></g><path fill="#eceada" d="M 112.582031 263.269531 C 113.074219 263.582031 113.484375 263.816406 114.03125 263.953125 C 116.222656 261.953125 118.992188 260.445312 121.582031 259.074219 C 126.394531 256.515625 131.429688 254.359375 136.550781 252.488281 C 151.636719 246.976562 167.632812 243.738281 183.671875 242.957031 C 202.097656 242.054688 220.375 246.058594 237.511719 252.640625 C 245.761719 255.808594 254.03125 259.414062 261.632812 263.960938 C 261.667969 263.929688 261.710938 263.890625 261.761719 263.835938 C 262.117188 263.476562 262.433594 263.082031 262.722656 262.664062 C 263.5625 261.457031 264.308594 260.191406 265.019531 258.910156 C 267.871094 253.761719 270.339844 248.390625 272.71875 243.007812 C 273.011719 242.339844 273.566406 241.210938 273.714844 240.738281 C 273.699219 240.703125 273.652344 240.597656 273.539062 240.421875 C 272.917969 239.527344 271.5 238.496094 270.429688 237.78125 C 265.789062 234.671875 260.632812 232.289062 255.507812 230.101562 C 248.023438 226.910156 240.316406 224.210938 232.503906 221.941406 C 214.328125 216.652344 195.367188 213.414062 176.398438 214.671875 C 158.183594 215.871094 140.144531 220.226562 123.074219 226.597656 C 117.273438 228.765625 111.519531 231.132812 106.039062 234.023438 C 104.457031 234.855469 102.863281 235.714844 101.40625 236.746094 C 100.816406 237.164062 100.164062 237.734375 99.582031 238.339844 C 99.3125 238.617188 99.015625 238.898438 98.828125 239.242188 C 98.730469 239.417969 98.707031 239.554688 98.695312 239.503906 C 98.832031 240.09375 99.390625 240.699219 99.808594 241.226562 C 100.582031 242.207031 101.347656 243.203125 102.015625 244.261719 C 103.839844 247.164062 104.898438 250.355469 106.164062 253.480469 C 106.207031 253.558594 106.234375 253.628906 106.257812 253.710938 C 106.652344 254.679688 107.070312 255.648438 107.542969 256.59375 C 108.738281 259.003906 110.238281 261.769531 112.582031 263.269531 Z M 112.582031 263.269531 " fill-opacity="1" fill-rule="nonzero"/><g clip-path="url(#e579029194)"><path fill="#eceada" d="M 139.957031 270.554688 C 139.886719 270.492188 139.28125 270.117188 138.941406 269.9375 C 137.730469 269.304688 136.441406 268.839844 135.125 268.480469 C 131.921875 267.59375 128.617188 267.121094 125.308594 266.84375 C 121.148438 266.488281 116.945312 266.328125 112.765625 266.472656 C 112.0625 266.496094 111.6875 266.019531 111.621094 265.480469 C 111.273438 265.273438 110.9375 265.042969 110.613281 264.785156 C 107.574219 262.390625 105.890625 259.046875 104.464844 255.539062 C 98.042969 258.617188 91.617188 261.6875 85.195312 264.753906 C 87.351562 265.160156 89.496094 265.601562 91.632812 266.085938 C 93.960938 266.613281 96.300781 267.15625 98.5625 267.925781 C 99.890625 268.378906 101.558594 268.855469 102.433594 270.03125 C 103.257812 271.132812 102.308594 272.371094 101.867188 273.5 C 101.050781 275.59375 100.242188 277.6875 99.441406 279.792969 C 98.546875 282.148438 97.65625 284.507812 96.804688 286.875 C 96.6875 287.195312 96.570312 287.523438 96.457031 287.84375 C 98.394531 287.125 100.363281 286.484375 102.324219 285.839844 C 108.390625 283.851562 114.476562 281.910156 120.503906 279.792969 C 125.175781 278.152344 129.875 276.476562 134.347656 274.34375 C 135.882812 273.609375 137.445312 272.84375 138.824219 271.832031 C 139.152344 271.585938 139.789062 271 139.847656 270.910156 C 139.9375 270.789062 139.980469 270.707031 140.007812 270.660156 C 140.007812 270.640625 140.011719 270.617188 140.011719 270.589844 C 139.996094 270.589844 139.976562 270.574219 139.957031 270.554688 Z M 139.957031 270.554688 " fill-opacity="1" fill-rule="nonzero"/></g><g clip-path="url(#c06bd22711)"><g clip-path="url(#15be3efc61)"><g clip-path="url(#a503c68a1b)"><path fill="#ffde59" d="M 191.824219 163.25 C 191.367188 163.308594 189.757812 163.636719 188.25 163.976562 C 186.15625 164.445312 185.539062 164.445312 185.636719 163.980469 C 185.898438 162.773438 190.628906 153.121094 192.984375 149 C 196.367188 143.082031 201.085938 136.847656 205.671875 132.234375 C 207.074219 130.824219 207.160156 130.632812 206.273438 130.910156 C 204.574219 131.445312 199.933594 135.078125 196.53125 138.535156 C 192.050781 143.085938 187.652344 149.574219 184.28125 156.597656 L 181.386719 162.625 L 180.570312 160.117188 C 178.863281 154.855469 178.503906 148.613281 179.617188 143.585938 C 180.546875 139.398438 183.484375 134.015625 186.527344 130.941406 C 190.96875 126.453125 197.335938 123.765625 202.441406 119.777344 C 207.402344 115.898438 215.136719 110.839844 216.707031 107.386719 C 217.015625 106.707031 221.089844 122.03125 221.164062 126.511719 C 221.40625 140.761719 215.390625 151.871094 203.902344 158.402344 C 201.242188 159.910156 193.460938 163.035156 191.820312 163.25 Z M 175.070312 160.136719 C 169.269531 157.054688 163.566406 151.929688 159.664062 146.296875 C 157.648438 143.382812 157.257812 142.507812 155.253906 136.410156 C 153.359375 130.640625 153.027344 129.203125 152.835938 125.917969 C 152.570312 121.46875 153.734375 117.933594 153.25 113.980469 C 153.058594 112.421875 151.953125 109.449219 151.953125 109.449219 L 157.304688 112.078125 C 165.359375 116.03125 174.066406 116.453125 179.558594 120.511719 C 182.046875 122.347656 186.136719 126.394531 186.4375 127.3125 C 186.503906 127.523438 185.347656 128.933594 183.863281 130.441406 C 182.378906 131.953125 180.46875 134.265625 179.621094 135.582031 C 178.769531 136.898438 178.019531 137.929688 177.949219 137.875 C 177.878906 137.816406 176.671875 136.480469 175.265625 134.902344 C 172.664062 131.984375 166.464844 126.871094 165.523438 126.867188 C 165.238281 126.867188 166.269531 128.363281 167.820312 130.191406 C 169.367188 132.019531 171.921875 135.40625 173.492188 137.714844 L 176.347656 141.910156 L 176.035156 144.753906 C 175.691406 147.859375 176.085938 155.152344 176.800781 158.917969 L 177.253906 161.296875 Z M 175.070312 160.136719 " fill-opacity="1" fill-rule="nonzero"/></g></g></g><g clip-path="url(#3300f56c63)"><g clip-path="url(#73f6540d08)"><g clip-path="url(#a82e32e7f8)"><path fill="#ffbd59" d="M 175.070312 160.136719 C 169.269531 157.054688 163.566406 151.929688 159.664062 146.296875 C 157.648438 143.382812 157.257812 142.507812 155.253906 136.410156 C 153.359375 130.640625 153.027344 129.203125 152.835938 125.917969 C 152.570312 121.46875 153.734375 117.933594 153.25 113.980469 C 153.058594 112.421875 151.953125 109.449219 151.953125 109.449219 L 157.304688 112.078125 C 160.5 113.644531 163.796875 114.65625 166.953125 115.5625 C 174.160156 118.9375 170.71875 126.933594 179.621094 135.582031 C 178.769531 136.898438 178.019531 137.929688 177.949219 137.875 C 177.878906 137.816406 176.671875 136.480469 175.265625 134.902344 C 172.664062 131.984375 166.464844 126.871094 165.523438 126.867188 C 165.238281 126.867188 166.269531 128.363281 167.820312 130.191406 C 169.367188 132.019531 171.921875 135.40625 173.492188 137.714844 L 176.347656 141.910156 L 176.035156 144.753906 C 175.691406 147.859375 176.085938 155.152344 176.800781 158.917969 L 177.253906 161.296875 Z M 175.070312 160.136719 " fill-opacity="1" fill-rule="nonzero"/></g></g></g><g clip-path="url(#27a78ee113)"><g clip-path="url(#fc844b5b64)"><g clip-path="url(#4d9cf96427)"><path fill="#ff914d" d="M 175.070312 160.136719 C 169.269531 157.054688 163.566406 151.929688 159.664062 146.296875 C 155.371094 140.164062 153.277344 133.019531 152.835938 125.917969 C 152.570312 121.46875 153.734375 117.933594 153.25 113.980469 C 153.058594 112.421875 151.953125 109.449219 151.953125 109.449219 C 162.078125 124.722656 150.242188 132.421875 175.949219 149.902344 C 176.394531 156.371094 176.378906 156.761719 176.800781 158.917969 L 177.253906 161.296875 Z M 175.070312 160.136719 " fill-opacity="1" fill-rule="nonzero"/></g></g></g><g clip-path="url(#692ef0d066)"><g clip-path="url(#d67b62bc74)"><g clip-path="url(#66ca61ba19)"><path fill="#ffbd59" d="M 184.28125 156.597656 L 181.386719 162.625 L 180.570312 160.117188 C 178.863281 154.855469 178.503906 148.613281 179.617188 143.585938 C 180.546875 139.398438 183.484375 134.015625 186.527344 130.941406 C 190.96875 126.453125 197.335938 123.765625 202.441406 119.777344 C 207.402344 115.898438 215.136719 110.839844 216.707031 107.386719 C 218.34375 130.695312 183.21875 127.335938 184.28125 156.597656 Z M 184.28125 156.597656 " fill-opacity="1" fill-rule="nonzero"/></g></g></g><g clip-path="url(#737007e428)"><path fill="#ffd91d" d="M 187.988281 328.351562 C 187.480469 328.734375 186.753906 328.625 186.375 328.117188 L 152.105469 281.925781 L 153.960938 280.546875 L 188.226562 326.730469 C 188.605469 327.246094 188.5 327.972656 187.988281 328.351562 Z M 187.988281 328.351562 " fill-opacity="1" fill-rule="nonzero"/></g><path fill="#fab725" d="M 156.394531 279.164062 C 158.398438 281.921875 157.792969 283.890625 156.152344 285.085938 C 154.511719 286.28125 152.453125 286.253906 150.449219 283.5 C 148.441406 280.742188 148.894531 275.101562 148.894531 275.101562 C 148.894531 275.101562 154.394531 276.410156 156.394531 279.164062 Z M 156.394531 279.164062 " fill-opacity="1" fill-rule="nonzero"/><path fill="#ffd91d" d="M 163.832031 284.085938 C 163.535156 287.484375 161.785156 288.570312 159.765625 288.390625 C 157.742188 288.214844 156.210938 286.839844 156.507812 283.441406 C 156.804688 280.046875 160.84375 276.085938 160.84375 276.085938 C 160.84375 276.085938 164.128906 280.6875 163.832031 284.085938 Z M 163.832031 284.085938 " fill-opacity="1" fill-rule="nonzero"/><path fill="#fab725" d="M 158.710938 288.167969 C 159.042969 288.285156 159.398438 288.359375 159.765625 288.390625 C 161.785156 288.570312 163.535156 287.484375 163.832031 284.085938 C 164.109375 280.9375 161.304688 276.757812 160.894531 276.164062 C 160.851562 279.636719 158.820312 287.632812 158.710938 288.167969 Z M 158.710938 288.167969 " fill-opacity="1" fill-rule="nonzero"/><g clip-path="url(#8de249ec4f)"><path fill="#fab725" d="M 152.757812 292.324219 C 156.09375 293.019531 157.632812 291.65625 158.046875 289.667969 C 158.460938 287.675781 157.589844 285.8125 154.257812 285.117188 C 150.921875 284.421875 145.976562 287.152344 145.976562 287.152344 C 145.976562 287.152344 149.425781 291.628906 152.757812 292.324219 Z M 152.757812 292.324219 " fill-opacity="1" fill-rule="nonzero"/></g><path fill="#ffd91d" d="M 146.4375 287.347656 C 146.308594 287.339844 146.191406 287.316406 146.085938 287.289062 C 146.691406 288.042969 149.769531 291.703125 152.757812 292.324219 C 156.09375 293.019531 157.632812 291.65625 158.046875 289.667969 C 158.070312 289.570312 158.085938 289.46875 158.097656 289.363281 C 154.226562 288.574219 150.335938 287.660156 146.4375 287.347656 Z M 146.4375 287.347656 " fill-opacity="1" fill-rule="nonzero"/><path fill="#ffd91d" d="M 167.21875 288.773438 C 166.921875 292.167969 165.171875 293.253906 163.148438 293.078125 C 161.125 292.902344 159.59375 291.527344 159.890625 288.128906 C 160.1875 284.730469 164.226562 280.773438 164.226562 280.773438 C 164.226562 280.773438 167.515625 285.375 167.21875 288.773438 Z M 167.21875 288.773438 " fill-opacity="1" fill-rule="nonzero"/><path fill="#fab725" d="M 162.09375 292.855469 C 162.425781 292.972656 162.777344 293.042969 163.144531 293.078125 C 165.167969 293.253906 166.917969 292.167969 167.214844 288.773438 C 167.492188 285.625 164.6875 281.445312 164.277344 280.851562 C 164.234375 284.324219 162.203125 292.320312 162.09375 292.855469 Z M 162.09375 292.855469 " fill-opacity="1" fill-rule="nonzero"/><path fill="#fab725" d="M 156.140625 297.011719 C 159.476562 297.707031 161.019531 296.34375 161.433594 294.355469 C 161.847656 292.363281 160.976562 290.496094 157.640625 289.800781 C 154.308594 289.105469 149.359375 291.839844 149.359375 291.839844 C 149.359375 291.839844 152.808594 296.316406 156.140625 297.011719 Z M 156.140625 297.011719 " fill-opacity="1" fill-rule="nonzero"/><path fill="#ffd91d" d="M 149.820312 292.035156 C 149.695312 292.023438 149.578125 292 149.46875 291.976562 C 150.078125 292.730469 153.15625 296.390625 156.140625 297.011719 C 159.476562 297.707031 161.019531 296.34375 161.433594 294.355469 C 161.453125 294.253906 161.46875 294.15625 161.484375 294.050781 C 157.609375 293.261719 153.714844 292.347656 149.820312 292.035156 Z M 149.820312 292.035156 " fill-opacity="1" fill-rule="nonzero"/><path fill="#ffd91d" d="M 170.660156 293.414062 C 170.363281 296.808594 168.613281 297.894531 166.589844 297.71875 C 164.566406 297.539062 163.035156 296.167969 163.332031 292.765625 C 163.628906 289.371094 167.667969 285.414062 167.667969 285.414062 C 167.667969 285.414062 170.960938 290.015625 170.660156 293.414062 Z M 170.660156 293.414062 " fill-opacity="1" fill-rule="nonzero"/><path fill="#fab725" d="M 165.539062 297.496094 C 165.871094 297.613281 166.222656 297.6875 166.589844 297.722656 C 168.613281 297.898438 170.363281 296.8125 170.660156 293.414062 C 170.9375 290.265625 168.132812 286.089844 167.722656 285.492188 C 167.679688 288.964844 165.648438 296.960938 165.539062 297.496094 Z M 165.539062 297.496094 " fill-opacity="1" fill-rule="nonzero"/><path fill="#fab725" d="M 159.585938 301.652344 C 162.921875 302.347656 164.464844 300.984375 164.878906 298.996094 C 165.292969 297.003906 164.421875 295.136719 161.085938 294.441406 C 157.75 293.746094 152.804688 296.476562 152.804688 296.476562 C 152.804688 296.476562 156.253906 300.957031 159.585938 301.652344 Z M 159.585938 301.652344 " fill-opacity="1" fill-rule="nonzero"/><path fill="#ffd91d" d="M 153.265625 296.679688 C 153.136719 296.667969 153.023438 296.644531 152.914062 296.617188 C 153.523438 297.375 156.601562 301.035156 159.585938 301.65625 C 162.921875 302.351562 164.464844 300.988281 164.878906 298.996094 C 164.898438 298.898438 164.914062 298.796875 164.929688 298.695312 C 161.050781 297.90625 157.160156 296.988281 153.265625 296.679688 Z M 153.265625 296.679688 " fill-opacity="1" fill-rule="nonzero"/><path fill="#ffd91d" d="M 174.105469 298.054688 C 173.808594 301.453125 172.058594 302.539062 170.035156 302.359375 C 168.011719 302.183594 166.480469 300.808594 166.777344 297.410156 C 167.074219 294.015625 171.113281 290.054688 171.113281 290.054688 C 171.113281 290.054688 174.402344 294.660156 174.105469 298.054688 Z M 174.105469 298.054688 " fill-opacity="1" fill-rule="nonzero"/><path fill="#fab725" d="M 168.984375 302.136719 C 169.3125 302.253906 169.667969 302.328125 170.035156 302.359375 C 172.058594 302.539062 173.808594 301.453125 174.105469 298.054688 C 174.382812 294.90625 171.578125 290.726562 171.167969 290.132812 C 171.125 293.609375 169.089844 301.605469 168.984375 302.136719 Z M 168.984375 302.136719 " fill-opacity="1" fill-rule="nonzero"/><path fill="#fab725" d="M 163.027344 306.292969 C 166.363281 306.988281 167.90625 305.625 168.320312 303.636719 C 168.734375 301.644531 167.863281 299.78125 164.527344 299.085938 C 161.191406 298.390625 156.246094 301.121094 156.246094 301.121094 C 156.246094 301.121094 159.699219 305.597656 163.027344 306.292969 Z M 163.027344 306.292969 " fill-opacity="1" fill-rule="nonzero"/><path fill="#ffd91d" d="M 156.707031 301.320312 C 156.578125 301.3125 156.464844 301.289062 156.355469 301.261719 C 156.964844 302.015625 160.042969 305.675781 163.027344 306.296875 C 166.363281 306.992188 167.90625 305.628906 168.320312 303.640625 C 168.339844 303.539062 168.355469 303.441406 168.371094 303.335938 C 164.496094 302.546875 160.605469 301.632812 156.707031 301.320312 Z M 156.707031 301.320312 " fill-opacity="1" fill-rule="nonzero"/><path fill="#ffd91d" d="M 177.546875 302.699219 C 177.25 306.09375 175.503906 307.179688 173.480469 307.003906 C 171.457031 306.828125 169.925781 305.453125 170.222656 302.054688 C 170.519531 298.65625 174.558594 294.699219 174.558594 294.699219 C 174.558594 294.699219 177.847656 299.296875 177.546875 302.699219 Z M 177.546875 302.699219 " fill-opacity="1" fill-rule="nonzero"/><path fill="#fab725" d="M 172.429688 306.78125 C 172.757812 306.898438 173.113281 306.96875 173.480469 307.003906 C 175.503906 307.179688 177.25 306.09375 177.546875 302.699219 C 177.824219 299.550781 175.023438 295.371094 174.609375 294.777344 C 174.566406 298.25 172.535156 306.246094 172.429688 306.78125 Z M 172.429688 306.78125 " fill-opacity="1" fill-rule="nonzero"/><path fill="#fab725" d="M 166.472656 310.9375 C 169.808594 311.632812 171.351562 310.269531 171.765625 308.28125 C 172.179688 306.289062 171.308594 304.421875 167.972656 303.726562 C 164.636719 303.03125 159.691406 305.761719 159.691406 305.761719 C 159.691406 305.761719 163.140625 310.242188 166.472656 310.9375 Z M 166.472656 310.9375 " fill-opacity="1" fill-rule="nonzero"/><path fill="#ffd91d" d="M 160.152344 305.960938 C 160.023438 305.949219 159.90625 305.925781 159.800781 305.902344 C 160.410156 306.65625 163.484375 310.316406 166.472656 310.9375 C 169.808594 311.632812 171.351562 310.269531 171.765625 308.28125 C 171.785156 308.179688 171.800781 308.078125 171.8125 307.976562 C 167.941406 307.1875 164.050781 306.273438 160.152344 305.960938 Z M 160.152344 305.960938 " fill-opacity="1" fill-rule="nonzero"/><path fill="#ffd91d" d="M 180.992188 307.335938 C 180.695312 310.734375 178.949219 311.820312 176.925781 311.644531 C 174.902344 311.464844 173.371094 310.09375 173.667969 306.691406 C 173.964844 303.296875 178.003906 299.339844 178.003906 299.339844 C 178.003906 299.339844 181.289062 303.941406 180.992188 307.335938 Z M 180.992188 307.335938 " fill-opacity="1" fill-rule="nonzero"/><path fill="#fab725" d="M 175.871094 311.417969 C 176.199219 311.535156 176.554688 311.609375 176.921875 311.644531 C 178.945312 311.820312 180.691406 310.734375 180.988281 307.335938 C 181.265625 304.1875 178.464844 300.011719 178.050781 299.414062 C 178.007812 302.890625 175.980469 310.886719 175.871094 311.417969 Z M 175.871094 311.417969 " fill-opacity="1" fill-rule="nonzero"/><path fill="#fab725" d="M 169.917969 315.578125 C 173.253906 316.273438 174.792969 314.910156 175.207031 312.917969 C 175.621094 310.925781 174.75 309.0625 171.417969 308.367188 C 168.082031 307.671875 163.136719 310.402344 163.136719 310.402344 C 163.136719 310.402344 166.582031 314.882812 169.917969 315.578125 Z M 169.917969 315.578125 " fill-opacity="1" fill-rule="nonzero"/><path fill="#ffd91d" d="M 163.597656 310.601562 C 163.46875 310.59375 163.351562 310.570312 163.246094 310.542969 C 163.851562 311.296875 166.929688 314.957031 169.917969 315.582031 C 173.253906 316.277344 174.792969 314.910156 175.207031 312.921875 C 175.230469 312.824219 175.246094 312.722656 175.257812 312.617188 C 171.386719 311.832031 167.492188 310.914062 163.597656 310.601562 Z M 163.597656 310.601562 " fill-opacity="1" fill-rule="nonzero"/><g clip-path="url(#435d35c32a)"><path fill="#ffd91d" d="M 186.921875 328.347656 C 187.433594 328.726562 188.15625 328.621094 188.539062 328.109375 L 222.804688 281.921875 L 220.953125 280.542969 L 186.683594 326.726562 C 186.304688 327.242188 186.410156 327.964844 186.921875 328.347656 Z M 186.921875 328.347656 " fill-opacity="1" fill-rule="nonzero"/></g><path fill="#fab725" d="M 218.511719 279.160156 C 216.507812 281.917969 217.113281 283.886719 218.753906 285.082031 C 220.398438 286.277344 222.453125 286.253906 224.460938 283.496094 C 226.460938 280.738281 226.015625 275.097656 226.015625 275.097656 C 226.015625 275.097656 220.519531 276.402344 218.511719 279.160156 Z M 218.511719 279.160156 " fill-opacity="1" fill-rule="nonzero"/><path fill="#ffd91d" d="M 211.078125 284.082031 C 211.375 287.480469 213.125 288.566406 215.148438 288.386719 C 217.167969 288.210938 218.703125 286.835938 218.40625 283.4375 C 218.109375 280.042969 214.070312 276.085938 214.070312 276.085938 C 214.070312 276.085938 210.777344 280.683594 211.078125 284.082031 Z M 211.078125 284.082031 " fill-opacity="1" fill-rule="nonzero"/><path fill="#fab725" d="M 216.199219 288.164062 C 215.867188 288.28125 215.515625 288.355469 215.148438 288.386719 C 213.125 288.566406 211.375 287.480469 211.078125 284.082031 C 210.800781 280.933594 213.605469 276.757812 214.015625 276.160156 C 214.058594 279.632812 216.089844 287.628906 216.199219 288.164062 Z M 216.199219 288.164062 " fill-opacity="1" fill-rule="nonzero"/><path fill="#fab725" d="M 222.148438 292.324219 C 218.816406 293.019531 217.273438 291.652344 216.859375 289.664062 C 216.445312 287.671875 217.316406 285.808594 220.652344 285.113281 C 223.984375 284.417969 228.933594 287.148438 228.933594 287.148438 C 228.933594 287.148438 225.484375 291.628906 222.148438 292.324219 Z M 222.148438 292.324219 " fill-opacity="1" fill-rule="nonzero"/><path fill="#ffd91d" d="M 228.472656 287.34375 C 228.597656 287.335938 228.714844 287.3125 228.824219 287.285156 C 228.214844 288.039062 225.136719 291.699219 222.148438 292.324219 C 218.816406 293.019531 217.273438 291.652344 216.859375 289.664062 C 216.839844 289.566406 216.824219 289.464844 216.808594 289.359375 C 220.683594 288.574219 224.578125 287.65625 228.472656 287.34375 Z M 228.472656 287.34375 " fill-opacity="1" fill-rule="nonzero"/><path fill="#ffd91d" d="M 207.695312 288.769531 C 207.992188 292.164062 209.738281 293.25 211.761719 293.074219 C 213.785156 292.898438 215.316406 291.523438 215.019531 288.125 C 214.722656 284.726562 210.683594 280.769531 210.683594 280.769531 C 210.683594 280.769531 207.394531 285.371094 207.695312 288.769531 Z M 207.695312 288.769531 " fill-opacity="1" fill-rule="nonzero"/><path fill="#fab725" d="M 212.8125 292.851562 C 212.484375 292.96875 212.128906 293.042969 211.761719 293.074219 C 209.738281 293.25 207.992188 292.164062 207.695312 288.769531 C 207.417969 285.621094 210.21875 281.441406 210.628906 280.847656 C 210.675781 284.320312 212.707031 292.316406 212.8125 292.851562 Z M 212.8125 292.851562 " fill-opacity="1" fill-rule="nonzero"/><path fill="#fab725" d="M 218.769531 297.007812 C 215.433594 297.703125 213.890625 296.339844 213.476562 294.351562 C 213.0625 292.359375 213.933594 290.496094 217.269531 289.800781 C 220.605469 289.105469 225.550781 291.835938 225.550781 291.835938 C 225.550781 291.835938 222.101562 296.3125 218.769531 297.007812 Z M 218.769531 297.007812 " fill-opacity="1" fill-rule="nonzero"/><path fill="#ffd91d" d="M 225.089844 292.03125 C 225.21875 292.023438 225.335938 292 225.441406 291.972656 C 224.832031 292.726562 221.757812 296.386719 218.769531 297.007812 C 215.433594 297.703125 213.890625 296.339844 213.476562 294.351562 C 213.457031 294.25 213.441406 294.152344 213.429688 294.046875 C 217.300781 293.257812 221.191406 292.34375 225.089844 292.03125 Z M 225.089844 292.03125 " fill-opacity="1" fill-rule="nonzero"/><path fill="#ffd91d" d="M 204.25 293.410156 C 204.546875 296.804688 206.292969 297.890625 208.316406 297.714844 C 210.339844 297.539062 211.871094 296.164062 211.574219 292.765625 C 211.277344 289.367188 207.238281 285.410156 207.238281 285.410156 C 207.238281 285.410156 203.953125 290.011719 204.25 293.410156 Z M 204.25 293.410156 " fill-opacity="1" fill-rule="nonzero"/><path fill="#fab725" d="M 209.371094 297.492188 C 209.042969 297.605469 208.6875 297.679688 208.320312 297.714844 C 206.296875 297.890625 204.550781 296.804688 204.253906 293.410156 C 203.976562 290.261719 206.777344 286.082031 207.1875 285.488281 C 207.234375 288.964844 209.261719 296.957031 209.371094 297.492188 Z M 209.371094 297.492188 " fill-opacity="1" fill-rule="nonzero"/><path fill="#fab725" d="M 215.324219 301.648438 C 211.988281 302.34375 210.445312 300.980469 210.035156 298.992188 C 209.621094 297 210.492188 295.132812 213.824219 294.4375 C 217.160156 293.742188 222.105469 296.472656 222.105469 296.472656 C 222.105469 296.472656 218.660156 300.953125 215.324219 301.648438 Z M 215.324219 301.648438 " fill-opacity="1" fill-rule="nonzero"/><path fill="#ffd91d" d="M 221.644531 296.675781 C 221.773438 296.664062 221.890625 296.640625 221.996094 296.613281 C 221.390625 297.371094 218.3125 301.03125 215.324219 301.652344 C 211.988281 302.347656 210.445312 300.984375 210.035156 298.996094 C 210.011719 298.894531 209.996094 298.792969 209.984375 298.691406 C 213.855469 297.902344 217.75 296.984375 221.644531 296.675781 Z M 221.644531 296.675781 " fill-opacity="1" fill-rule="nonzero"/><path fill="#ffd91d" d="M 200.808594 298.050781 C 201.105469 301.449219 202.851562 302.535156 204.875 302.355469 C 206.898438 302.179688 208.429688 300.804688 208.132812 297.40625 C 207.835938 294.011719 203.796875 290.054688 203.796875 290.054688 C 203.796875 290.054688 200.507812 294.65625 200.808594 298.050781 Z M 200.808594 298.050781 " fill-opacity="1" fill-rule="nonzero"/><path fill="#fab725" d="M 205.925781 302.132812 C 205.597656 302.25 205.242188 302.324219 204.875 302.355469 C 202.851562 302.535156 201.105469 301.449219 200.808594 298.050781 C 200.53125 294.902344 203.335938 290.726562 203.746094 290.128906 C 203.789062 293.605469 205.816406 301.597656 205.925781 302.132812 Z M 205.925781 302.132812 " fill-opacity="1" fill-rule="nonzero"/><path fill="#fab725" d="M 211.878906 306.292969 C 208.542969 306.988281 207.003906 305.621094 206.589844 303.632812 C 206.175781 301.640625 207.046875 299.777344 210.378906 299.082031 C 213.714844 298.386719 218.660156 301.117188 218.660156 301.117188 C 218.660156 301.117188 215.214844 305.597656 211.878906 306.292969 Z M 211.878906 306.292969 " fill-opacity="1" fill-rule="nonzero"/><path fill="#ffd91d" d="M 218.203125 301.3125 C 218.328125 301.304688 218.445312 301.28125 218.550781 301.253906 C 217.945312 302.007812 214.867188 305.667969 211.878906 306.292969 C 208.542969 306.988281 207.003906 305.621094 206.589844 303.632812 C 206.570312 303.535156 206.550781 303.433594 206.539062 303.328125 C 210.414062 302.542969 214.304688 301.628906 218.203125 301.3125 Z M 218.203125 301.3125 " fill-opacity="1" fill-rule="nonzero"/><path fill="#ffd91d" d="M 197.363281 302.695312 C 197.660156 306.089844 199.410156 307.175781 201.429688 307 C 203.453125 306.824219 204.988281 305.449219 204.6875 302.050781 C 204.390625 298.652344 200.351562 294.695312 200.351562 294.695312 C 200.351562 294.695312 197.066406 299.296875 197.363281 302.695312 Z M 197.363281 302.695312 " fill-opacity="1" fill-rule="nonzero"/><path fill="#fab725" d="M 202.484375 306.777344 C 202.152344 306.894531 201.796875 306.964844 201.429688 307 C 199.410156 307.175781 197.660156 306.089844 197.363281 302.695312 C 197.085938 299.546875 199.890625 295.367188 200.300781 294.773438 C 200.34375 298.246094 202.375 306.242188 202.484375 306.777344 Z M 202.484375 306.777344 " fill-opacity="1" fill-rule="nonzero"/><path fill="#fab725" d="M 208.4375 310.933594 C 205.101562 311.628906 203.5625 310.265625 203.148438 308.277344 C 202.734375 306.285156 203.605469 304.417969 206.9375 303.722656 C 210.273438 303.027344 215.21875 305.761719 215.21875 305.761719 C 215.21875 305.761719 211.769531 310.238281 208.4375 310.933594 Z M 208.4375 310.933594 " fill-opacity="1" fill-rule="nonzero"/><path fill="#ffd91d" d="M 214.761719 305.957031 C 214.886719 305.945312 215.003906 305.921875 215.109375 305.898438 C 214.503906 306.652344 211.425781 310.3125 208.4375 310.933594 C 205.101562 311.628906 203.5625 310.265625 203.148438 308.277344 C 203.128906 308.175781 203.109375 308.078125 203.097656 307.972656 C 206.96875 307.183594 210.859375 306.269531 214.761719 305.957031 Z M 214.761719 305.957031 " fill-opacity="1" fill-rule="nonzero"/><path fill="#ffd91d" d="M 193.917969 307.335938 C 194.214844 310.730469 195.964844 311.816406 197.988281 311.640625 C 200.007812 311.460938 201.542969 310.089844 201.246094 306.6875 C 200.949219 303.292969 196.910156 299.335938 196.910156 299.335938 C 196.910156 299.335938 193.621094 303.9375 193.917969 307.335938 Z M 193.917969 307.335938 " fill-opacity="1" fill-rule="nonzero"/><path fill="#fab725" d="M 199.039062 311.414062 C 198.707031 311.53125 198.355469 311.605469 197.988281 311.640625 C 195.964844 311.816406 194.214844 310.730469 193.917969 307.335938 C 193.640625 304.1875 196.445312 300.007812 196.855469 299.414062 C 196.902344 302.890625 198.929688 310.882812 199.039062 311.414062 Z M 199.039062 311.414062 " fill-opacity="1" fill-rule="nonzero"/><path fill="#fab725" d="M 204.992188 315.574219 C 201.660156 316.269531 200.117188 314.90625 199.703125 312.917969 C 199.289062 310.925781 200.160156 309.058594 203.496094 308.363281 C 206.828125 307.667969 211.777344 310.398438 211.777344 310.398438 C 211.777344 310.398438 208.328125 314.878906 204.992188 315.574219 Z M 204.992188 315.574219 " fill-opacity="1" fill-rule="nonzero"/><path fill="#ffd91d" d="M 211.316406 310.601562 C 211.441406 310.589844 211.558594 310.566406 211.664062 310.539062 C 211.058594 311.296875 207.980469 314.957031 204.992188 315.578125 C 201.660156 316.273438 200.117188 314.910156 199.703125 312.917969 C 199.683594 312.820312 199.664062 312.71875 199.652344 312.617188 C 203.523438 311.828125 207.417969 310.910156 211.316406 310.601562 Z M 211.316406 310.601562 " fill-opacity="1" fill-rule="nonzero"/><g clip-path="url(#fbd91c42ab)"><path fill="#ffd91d" d="M 187.4375 328.507812 C 186.628906 328.507812 185.96875 327.851562 185.96875 327.039062 L 185.96875 254.09375 L 188.898438 254.09375 L 188.898438 327.042969 C 188.898438 327.851562 188.242188 328.507812 187.4375 328.507812 Z M 187.4375 328.507812 " fill-opacity="1" fill-rule="nonzero"/></g><g clip-path="url(#47dad2ff7b)"><path fill="#fab725" d="M 192.425781 254.53125 C 192.382812 258.851562 190.28125 260.402344 187.707031 260.375 C 185.132812 260.347656 183.058594 258.761719 183.101562 254.441406 C 183.144531 250.117188 187.859375 244.71875 187.859375 244.71875 C 187.859375 244.71875 192.464844 250.207031 192.425781 254.53125 Z M 192.425781 254.53125 " fill-opacity="1" fill-rule="nonzero"/></g><path fill="#ffd91d" d="M 196.277344 265.171875 C 193.410156 268.402344 190.808594 268.1875 188.886719 266.472656 C 186.960938 264.757812 186.441406 262.199219 189.308594 258.964844 C 192.175781 255.734375 199.273438 254.765625 199.273438 254.765625 C 199.273438 254.765625 199.144531 261.9375 196.277344 265.171875 Z M 196.277344 265.171875 " fill-opacity="1" fill-rule="nonzero"/><path fill="#fab725" d="M 187.984375 265.445312 C 188.230469 265.8125 188.535156 266.15625 188.882812 266.472656 C 190.808594 268.183594 193.40625 268.402344 196.273438 265.171875 C 198.929688 262.175781 199.234375 255.800781 199.265625 254.882812 C 196.597656 258.386719 188.496094 264.984375 187.984375 265.445312 Z M 187.984375 265.445312 " fill-opacity="1" fill-rule="nonzero"/><path fill="#fab725" d="M 178.785156 265.171875 C 181.652344 268.402344 184.25 268.1875 186.175781 266.472656 C 188.101562 264.757812 188.621094 262.199219 185.753906 258.964844 C 182.886719 255.734375 175.789062 254.765625 175.789062 254.765625 C 175.789062 254.765625 175.917969 261.9375 178.785156 265.171875 Z M 178.785156 265.171875 " fill-opacity="1" fill-rule="nonzero"/><path fill="#ffd91d" d="M 176.105469 255.316406 C 175.988281 255.210938 175.882812 255.097656 175.796875 254.988281 C 175.847656 256.214844 176.214844 262.273438 178.785156 265.167969 C 181.652344 268.398438 184.25 268.183594 186.175781 266.46875 C 186.269531 266.378906 186.363281 266.289062 186.453125 266.195312 C 183.109375 262.464844 179.839844 258.585938 176.105469 255.316406 Z M 176.105469 255.316406 " fill-opacity="1" fill-rule="nonzero"/><path fill="#ffd91d" d="M 196.179688 272.5 C 193.3125 275.734375 190.714844 275.515625 188.789062 273.800781 C 186.863281 272.089844 186.34375 269.53125 189.210938 266.296875 C 192.078125 263.066406 199.175781 262.09375 199.175781 262.09375 C 199.175781 262.09375 199.046875 269.269531 196.179688 272.5 Z M 196.179688 272.5 " fill-opacity="1" fill-rule="nonzero"/><path fill="#fab725" d="M 187.886719 272.773438 C 188.132812 273.144531 188.4375 273.488281 188.789062 273.800781 C 190.714844 275.511719 193.308594 275.734375 196.175781 272.5 C 198.835938 269.507812 199.136719 263.132812 199.167969 262.210938 C 196.5 265.714844 188.398438 272.316406 187.886719 272.773438 Z M 187.886719 272.773438 " fill-opacity="1" fill-rule="nonzero"/><path fill="#fab725" d="M 178.691406 272.5 C 181.558594 275.734375 184.15625 275.515625 186.082031 273.800781 C 188.007812 272.089844 188.527344 269.53125 185.660156 266.296875 C 182.792969 263.066406 175.695312 262.09375 175.695312 262.09375 C 175.695312 262.09375 175.820312 269.269531 178.691406 272.5 Z M 178.691406 272.5 " fill-opacity="1" fill-rule="nonzero"/><path fill="#ffd91d" d="M 176.011719 262.648438 C 175.894531 262.542969 175.789062 262.433594 175.703125 262.324219 C 175.753906 263.550781 176.121094 269.605469 178.691406 272.5 C 181.558594 275.734375 184.15625 275.515625 186.082031 273.800781 C 186.175781 273.714844 186.269531 273.625 186.359375 273.53125 C 183.011719 269.796875 179.742188 265.917969 176.011719 262.648438 Z M 176.011719 262.648438 " fill-opacity="1" fill-rule="nonzero"/><path fill="#ffd91d" d="M 196.179688 279.832031 C 193.3125 283.0625 190.714844 282.847656 188.789062 281.132812 C 186.863281 279.421875 186.34375 276.859375 189.210938 273.628906 C 192.078125 270.394531 199.175781 269.425781 199.175781 269.425781 C 199.175781 269.425781 199.046875 276.597656 196.179688 279.832031 Z M 196.179688 279.832031 " fill-opacity="1" fill-rule="nonzero"/><path fill="#fab725" d="M 187.886719 280.109375 C 188.132812 280.476562 188.4375 280.820312 188.789062 281.136719 C 190.714844 282.847656 193.308594 283.066406 196.175781 279.835938 C 198.835938 276.839844 199.136719 270.464844 199.167969 269.546875 C 196.5 273.050781 188.398438 279.648438 187.886719 280.109375 Z M 187.886719 280.109375 " fill-opacity="1" fill-rule="nonzero"/><path fill="#fab725" d="M 178.691406 279.832031 C 181.558594 283.0625 184.15625 282.847656 186.082031 281.132812 C 188.007812 279.421875 188.527344 276.859375 185.660156 273.628906 C 182.792969 270.394531 175.695312 269.425781 175.695312 269.425781 C 175.695312 269.425781 175.820312 276.597656 178.691406 279.832031 Z M 178.691406 279.832031 " fill-opacity="1" fill-rule="nonzero"/><path fill="#ffd91d" d="M 176.011719 269.980469 C 175.894531 269.875 175.789062 269.761719 175.703125 269.652344 C 175.753906 270.878906 176.121094 276.9375 178.691406 279.832031 C 181.558594 283.0625 184.15625 282.847656 186.082031 281.132812 C 186.175781 281.042969 186.269531 280.953125 186.359375 280.859375 C 183.011719 277.128906 179.742188 273.25 176.011719 269.980469 Z M 176.011719 269.980469 " fill-opacity="1" fill-rule="nonzero"/><path fill="#ffd91d" d="M 196.179688 287.164062 C 193.3125 290.398438 190.714844 290.179688 188.789062 288.464844 C 186.863281 286.753906 186.34375 284.195312 189.210938 280.960938 C 192.078125 277.730469 199.175781 276.757812 199.175781 276.757812 C 199.175781 276.757812 199.046875 283.933594 196.179688 287.164062 Z M 196.179688 287.164062 " fill-opacity="1" fill-rule="nonzero"/><path fill="#fab725" d="M 187.886719 287.4375 C 188.132812 287.808594 188.4375 288.152344 188.789062 288.464844 C 190.714844 290.175781 193.308594 290.398438 196.175781 287.164062 C 198.835938 284.171875 199.136719 277.796875 199.167969 276.875 C 196.5 280.378906 188.398438 286.976562 187.886719 287.4375 Z M 187.886719 287.4375 " fill-opacity="1" fill-rule="nonzero"/><path fill="#fab725" d="M 178.691406 287.164062 C 181.558594 290.398438 184.15625 290.179688 186.082031 288.464844 C 188.007812 286.753906 188.527344 284.195312 185.660156 280.960938 C 182.792969 277.730469 175.695312 276.757812 175.695312 276.757812 C 175.695312 276.757812 175.820312 283.933594 178.691406 287.164062 Z M 178.691406 287.164062 " fill-opacity="1" fill-rule="nonzero"/><path fill="#ffd91d" d="M 176.011719 277.3125 C 175.894531 277.207031 175.789062 277.097656 175.703125 276.988281 C 175.753906 278.214844 176.121094 284.269531 178.691406 287.164062 C 181.558594 290.398438 184.15625 290.179688 186.082031 288.464844 C 186.175781 288.378906 186.269531 288.289062 186.359375 288.195312 C 183.011719 284.460938 179.742188 280.578125 176.011719 277.3125 Z M 176.011719 277.3125 " fill-opacity="1" fill-rule="nonzero"/><path fill="#ffd91d" d="M 196.179688 294.496094 C 193.3125 297.726562 190.714844 297.511719 188.789062 295.796875 C 186.863281 294.085938 186.34375 291.523438 189.210938 288.292969 C 192.078125 285.058594 199.175781 284.089844 199.175781 284.089844 C 199.175781 284.089844 199.046875 291.261719 196.179688 294.496094 Z M 196.179688 294.496094 " fill-opacity="1" fill-rule="nonzero"/><path fill="#fab725" d="M 187.886719 294.769531 C 188.132812 295.136719 188.4375 295.480469 188.789062 295.796875 C 190.714844 297.507812 193.308594 297.726562 196.175781 294.496094 C 198.835938 291.5 199.136719 285.125 199.167969 284.207031 C 196.5 287.710938 188.398438 294.3125 187.886719 294.769531 Z M 187.886719 294.769531 " fill-opacity="1" fill-rule="nonzero"/><path fill="#fab725" d="M 178.691406 294.496094 C 181.558594 297.726562 184.15625 297.511719 186.082031 295.796875 C 188.007812 294.085938 188.527344 291.523438 185.660156 288.292969 C 182.792969 285.058594 175.695312 284.089844 175.695312 284.089844 C 175.695312 284.089844 175.820312 291.261719 178.691406 294.496094 Z M 178.691406 294.496094 " fill-opacity="1" fill-rule="nonzero"/><path fill="#ffd91d" d="M 176.011719 284.644531 C 175.894531 284.539062 175.789062 284.425781 175.703125 284.316406 C 175.753906 285.542969 176.121094 291.601562 178.691406 294.496094 C 181.558594 297.726562 184.15625 297.511719 186.082031 295.796875 C 186.175781 295.707031 186.269531 295.617188 186.359375 295.523438 C 183.011719 291.792969 179.742188 287.914062 176.011719 284.644531 Z M 176.011719 284.644531 " fill-opacity="1" fill-rule="nonzero"/><path fill="#ffd91d" d="M 196.179688 301.824219 C 193.3125 305.058594 190.714844 304.839844 188.789062 303.125 C 186.863281 301.414062 186.34375 298.855469 189.210938 295.621094 C 192.078125 292.390625 199.175781 291.421875 199.175781 291.421875 C 199.175781 291.421875 199.046875 298.59375 196.179688 301.824219 Z M 196.179688 301.824219 " fill-opacity="1" fill-rule="nonzero"/><path fill="#fab725" d="M 187.886719 302.101562 C 188.132812 302.472656 188.4375 302.816406 188.789062 303.128906 C 190.714844 304.839844 193.308594 305.0625 196.175781 301.828125 C 198.835938 298.835938 199.136719 292.460938 199.167969 291.539062 C 196.5 295.042969 188.398438 301.640625 187.886719 302.101562 Z M 187.886719 302.101562 " fill-opacity="1" fill-rule="nonzero"/><path fill="#fab725" d="M 178.691406 301.824219 C 181.558594 305.058594 184.15625 304.839844 186.082031 303.125 C 188.007812 301.414062 188.527344 298.855469 185.660156 295.621094 C 182.792969 292.390625 175.695312 291.421875 175.695312 291.421875 C 175.695312 291.421875 175.820312 298.59375 178.691406 301.824219 Z M 178.691406 301.824219 " fill-opacity="1" fill-rule="nonzero"/><path fill="#ffd91d" d="M 176.011719 291.976562 C 175.894531 291.867188 175.789062 291.757812 175.703125 291.648438 C 175.753906 292.875 176.121094 298.929688 178.691406 301.824219 C 181.558594 305.058594 184.15625 304.839844 186.082031 303.125 C 186.175781 303.039062 186.269531 302.949219 186.359375 302.855469 C 183.011719 299.121094 179.742188 295.242188 176.011719 291.976562 Z M 176.011719 291.976562 " fill-opacity="1" fill-rule="nonzero"/><g fill="#3b523a" fill-opacity="1"><g transform="translate(138.572277, 243.748307)"><g><path d="M 14.015625 -9.3125 L 15.59375 -4.28125 L 10.34375 -2.828125 L 3.65625 -9.96875 L 3.375 -9.890625 L 4.09375 -7.1875 L 5.828125 -1.59375 L 1.453125 -0.390625 L 0.4375 -5.046875 L -2.828125 -15.984375 L 2.421875 -17.4375 L 9.109375 -10.3125 L 9.390625 -10.390625 L 7 -18.515625 L 11.359375 -20 Z M 14.015625 -9.3125 "/></g></g></g><g fill="#3b523a" fill-opacity="1"><g transform="translate(157.438737, 238.813607)"><g><path d="M 10.203125 -17.640625 L 10.5 -13.984375 L 7.21875 -13.609375 L 6.921875 -13.5625 L 7.90625 -6.5625 L 8.921875 -1.40625 L 3.984375 -0.625 L 3.5 -5.359375 L 2.1875 -12.8125 L 1.859375 -12.765625 L -1.390625 -12.109375 L -1.75 -12.40625 L -2.046875 -16.046875 L 9.875 -17.921875 Z M 10.203125 -17.640625 "/></g></g></g><g fill="#3b523a" fill-opacity="1"><g transform="translate(172.095274, 236.588759)"><g><path d="M 6.640625 -16.890625 C 8.222656 -16.984375 9.804688 -16.785156 11.390625 -16.296875 L 10.828125 -12.203125 L 10.15625 -11.84375 C 9.425781 -12.238281 8.707031 -12.539062 8 -12.75 C 7.300781 -12.957031 6.742188 -13.050781 6.328125 -13.03125 C 5.953125 -13.007812 5.65625 -12.914062 5.4375 -12.75 C 5.21875 -12.582031 5.113281 -12.375 5.125 -12.125 C 5.144531 -11.8125 5.332031 -11.550781 5.6875 -11.34375 C 6.050781 -11.144531 6.644531 -10.882812 7.46875 -10.5625 C 8.414062 -10.195312 9.203125 -9.851562 9.828125 -9.53125 C 10.453125 -9.21875 11.003906 -8.757812 11.484375 -8.15625 C 11.972656 -7.5625 12.242188 -6.804688 12.296875 -5.890625 C 12.359375 -4.878906 12.132812 -3.941406 11.625 -3.078125 C 11.125 -2.222656 10.367188 -1.523438 9.359375 -0.984375 C 8.347656 -0.441406 7.160156 -0.128906 5.796875 -0.046875 C 4.109375 0.0546875 2.316406 -0.15625 0.421875 -0.6875 L 0.875 -5.046875 L 1.359375 -5.375 C 2.160156 -4.851562 3.003906 -4.445312 3.890625 -4.15625 C 4.785156 -3.875 5.523438 -3.75 6.109375 -3.78125 C 6.578125 -3.8125 6.910156 -3.910156 7.109375 -4.078125 C 7.304688 -4.242188 7.398438 -4.441406 7.390625 -4.671875 C 7.367188 -5.015625 7.171875 -5.296875 6.796875 -5.515625 C 6.421875 -5.734375 5.820312 -5.992188 5 -6.296875 C 4.070312 -6.640625 3.300781 -6.972656 2.6875 -7.296875 C 2.070312 -7.617188 1.53125 -8.078125 1.0625 -8.671875 C 0.59375 -9.273438 0.332031 -10.035156 0.28125 -10.953125 C 0.21875 -12.003906 0.441406 -12.96875 0.953125 -13.84375 C 1.472656 -14.71875 2.222656 -15.421875 3.203125 -15.953125 C 4.191406 -16.492188 5.335938 -16.804688 6.640625 -16.890625 Z M 6.640625 -16.890625 "/></g></g></g><g fill="#3b523a" fill-opacity="1"><g transform="translate(187.056053, 235.714795)"><g><path d="M 9.3125 -16.046875 C 11.65625 -15.929688 13.4375 -15.144531 14.65625 -13.6875 C 15.875 -12.238281 16.421875 -10.25 16.296875 -7.71875 C 16.160156 -4.925781 15.347656 -2.796875 13.859375 -1.328125 C 12.378906 0.128906 10.347656 0.796875 7.765625 0.671875 C 5.429688 0.554688 3.65625 -0.234375 2.4375 -1.703125 C 1.21875 -3.171875 0.671875 -5.191406 0.796875 -7.765625 C 0.929688 -10.535156 1.738281 -12.640625 3.21875 -14.078125 C 4.707031 -15.515625 6.738281 -16.171875 9.3125 -16.046875 Z M 8.671875 -12.0625 C 8.015625 -12.09375 7.515625 -12.003906 7.171875 -11.796875 C 6.835938 -11.585938 6.582031 -11.203125 6.40625 -10.640625 C 6.238281 -10.078125 6.128906 -9.253906 6.078125 -8.171875 C 6.015625 -6.804688 6.039062 -5.757812 6.15625 -5.03125 C 6.269531 -4.3125 6.5 -3.800781 6.84375 -3.5 C 7.1875 -3.207031 7.707031 -3.039062 8.40625 -3 C 9.050781 -2.96875 9.546875 -3.054688 9.890625 -3.265625 C 10.234375 -3.472656 10.488281 -3.859375 10.65625 -4.421875 C 10.832031 -4.992188 10.945312 -5.816406 11 -6.890625 C 11.0625 -8.253906 11.035156 -9.296875 10.921875 -10.015625 C 10.804688 -10.742188 10.578125 -11.257812 10.234375 -11.5625 C 9.890625 -11.863281 9.367188 -12.03125 8.671875 -12.0625 Z M 8.671875 -12.0625 "/></g></g></g><g fill="#3b523a" fill-opacity="1"><g transform="translate(205.148716, 236.798141)"><g><path d="M 8.296875 -11.203125 L 7.78125 -8.34375 L 9.46875 -8.078125 L 12.34375 -7.71875 L 12.5625 -7.328125 L 11.703125 -3.765625 L 8.53125 -4.328125 L 7.09375 -4.5625 L 7.046875 -4.234375 L 6.453125 0.984375 L 1.484375 0.234375 L 2.453125 -4.421875 L 3.9375 -15.75 L 14.609375 -14.125 L 14.84375 -13.734375 L 13.953125 -10.171875 L 10.03125 -10.9375 Z M 8.296875 -11.203125 "/></g></g></g><g fill="#3b523a" fill-opacity="1"><g transform="translate(218.876657, 238.971698)"><g><path d="M 16.296875 -12.234375 L 15.140625 -8.765625 L 11.96875 -9.703125 L 11.6875 -9.78125 L 9.84375 -2.9375 L 8.765625 2.203125 L 3.90625 0.984375 L 5.3125 -3.5625 L 7.03125 -10.9375 L 6.71875 -11.015625 L 3.453125 -11.6875 L 3.25 -12.109375 L 4.390625 -15.578125 L 16.109375 -12.640625 Z M 16.296875 -12.234375 "/></g></g></g><g fill="#3b523a" fill-opacity="1"><g transform="translate(233.388748, 242.850477)"><g/></g></g><path stroke-linecap="round" transform="matrix(0.75, -0.000000000000000558, 0.000000000000000558, 0.75, 52.321115, 218.569805)" fill="none" stroke-linejoin="miter" d="M 2.498931 2.500677 L 78.941644 2.500677 " stroke="#ffde59" stroke-width="5" stroke-opacity="1" stroke-miterlimit="4"/><path stroke-linecap="round" transform="matrix(0.75, -0.000000000000000558, 0.000000000000000558, 0.75, 261.598523, 218.569805)" fill="none" stroke-linejoin="miter" d="M 2.498844 2.500677 L 78.941557 2.500677 " stroke="#ffde59" stroke-width="5" stroke-opacity="1" stroke-miterlimit="4"/></svg>